<svg xmlns="http://www.w3.org/2000/svg">
<defs>
<font id="Girassol-Regular" horiz-adv-x="540" >
  <font-face 
    font-family="Girassol"
    font-weight="400"
    font-stretch="condensed"
    units-per-em="1000"
    panose-1="0 0 0 0 0 0 0 0 0 0"
    ascent="800"
    descent="-200"
    x-height="540"
    cap-height="750"
    bbox="-33 -326 1092 1070"
    underline-thickness="50"
    underline-position="-100"
    unicode-range="U+000D-25CA"
  />
<missing-glyph horiz-adv-x="572" 
d="M524 710v-670h-476v670h476zM515 339v362h-458v-362h458zM309 664h169v-290h-384v290h169v3l-5 14l-1 4q0 4 3 4q6 2 8 2l3 -7h9v9h12v-9h9l3 7q2 0 8 -2q3 0 3 -4l-1 -4l-5 -14v-3zM309 660v-7q0 -3 -2 -9l74 8q2 1 2.5 -1t-1.5 -3l-77 -22q-18 -6 -37 0l-77 22
q-2 1 -1 3t2 1l73 -8q-2 6 -2 9v7h-160q-1 -1 -2 -1t-1 -0.5t-1 -0.5v-1l-1 -2v-273h0.5t0.5 -1t1 -2h1q0 -1 1 -1h1h366h1t1 1h1l0.5 0.5t0.5 1.5v0.5t1 0.5v273q0 5 -5 5h-160zM121 567l-12 41q-5 18 7.5 31.5t31.5 10.5l49 -9q2 -1 2 -3t-2 -2h-38q-14 0 -24 -10t-10 -24
v-34q0 -2 -2 -2t-2 1zM376 636q-1 0 -1.5 2t1.5 3l49 9q19 3 31 -10.5t7 -31.5l-12 -41q0 -1 -2 -1t-2 2v34q0 14 -9.5 24t-23.5 10h-38zM180 623q9 -3 18 0l19 5q2 0 2 -1t-1 -1l-10 -6q-8 -7 -19 -7t-19 6l-11 7q-1 0 -0.5 1t1.5 1zM355 625q-1 1 -0.5 2t1.5 0l20 -5
q9 -2 17 1l20 4q1 1 1.5 0t-0.5 -2l-10 -6q-19 -13 -39 0zM437 613l-9 -87q-1 -7 0 -15l9 -86q1 -2 -1 -2t-3 2l-23 75q-5 18 0 38l23 77q1 2 3 1t1 -3zM135 425l10 87q2 8 0 15l-10 86q0 2 2 3t3 -1l23 -77q5 -18 0 -37l-23 -76q-1 -2 -3 -2t-2 2zM262 555q-16 0 -16 17
q0 14 11 23t27 9q20 0 32 -10.5t12 -27.5q0 -19 -10 -27.5t-20 -17.5t-10 -30h-11q0 27 7.5 36.5t14.5 15.5t7 23q0 12 -6.5 20t-17.5 8t-18 -10q13 -3 13 -15q0 -6 -4.5 -10.5t-10.5 -3.5zM461 565q1 2 2.5 1.5t1.5 -2.5l-8 -32q-3 -14 0 -27l8 -32q0 -1 -1.5 -1.5
t-2.5 0.5l-10 15q-8 14 -8.5 31t8.5 31zM116 505q3 14 0 28l-8 31q0 2 1 2.5t2 -1.5l10 -15q10 -14 9.5 -31t-8.5 -31l-11 -16q-1 -1 -2 -0.5t-1 1.5zM272 462q0 13 11 13q10 0 10 -13q0 -12 -10 -12q-11 0 -11 12zM451 471l12 -41q5 -18 -7 -32t-31 -10l-49 10q-2 0 -1.5 2

<glyph glyph-name="R_R" unicode="RR" horiz-adv-x="1065" 
d="M90 80v590q0 26 -12.5 34.5t-47.5 8.5v37h256q95 0 141.5 -54.5t46.5 -160.5q0 -150 -93 -194q87 -46 87 -192v-13q0 -44 20 -71.5t53 -27.5h17v-37h-17q-103 0 -145.5 49t-42.5 146v28q0 44 -20 72t-53 28h-30v40h36q33 0 53 27t20 71v153q0 44 -20 70t-53 26h-84v-630
q0 -25 12.5 -34t47.5 -9v-37h-232v37q35 0 47.5 9t12.5 34zM601 0v670q0 26 -12.5 34.5t-47.5 8.5v37h256q95 0 141.5 -54.5t46.5 -160.5q0 -150 -93 -194q87 -46 87 -192v-13q0 -44 20 -71.5t53 -27.5h21v-37h-21q-103 0 -145.5 49t-42.5 146v28q0 44 -20 72t-53 28h-30v40
h36q33 0 53 27t20 71v153q0 44 -20 70t-53 26h-84v-630q0 -25 12.5 -34t47.5 -9v-37h-172z" />
    <glyph glyph-name="T_T" unicode="TT" horiz-adv-x="912" 
d="M141 37q32 0 46 10t14 33v630h-13q-38 0 -63.5 -11t-44 -42t-35.5 -90l-37 9l44 211h34q5 -22 14.5 -29.5t31.5 -7.5h259q23 0 32.5 7.5t13.5 29.5h36q5 -22 14.5 -29.5t31.5 -7.5h261q23 0 32.5 7.5t13.5 29.5h34l44 -211l-37 -9q-17 59 -35.5 90t-43.5 42t-64 11h-19
v-630h1q0 -23 14 -33t46 -10v-37h-232v37q53 0 59 31v642h-74q-22 0 -31.5 -7.5t-14.5 -29.5h-36q-4 22 -13.5 29.5t-32.5 7.5h-78v-630q0 -23 14 -33t46 -10v-37h-232v37z" />
    <glyph glyph-name="r_r" unicode="rr" horiz-adv-x="953" 
d="M24 37q32 0 46 10t14 33v380q0 23 -14 33t-46 10v37h236q92 0 135 -42t43 -131q0 -43 -22 -74.5t-70 -55.5q84 -35 84 -125q0 -31 12.5 -53t30.5 -22h36v-37h-39q-73 0 -107.5 27t-34.5 85q0 43 -22 74.5t-51 31.5h-21v37h26q33 0 53 27t20 71v51q0 44 -20 70.5t-53 26.5
h-66v-421q0 -23 14 -33t46 -10v-37h-230v37zM553 0v460q0 23 -14 33t-46 10v37h236q92 0 135 -42t43 -131q0 -43 -22 -74.5t-70 -55.5q84 -35 84 -125q0 -31 12.5 -53t30.5 -22h6v-37h-9q-73 0 -107.5 27t-34.5 85q0 43 -22 74.5t-51 31.5h-21v37h26q33 0 53 27t20 71v51
q0 44 -20 70.5t-53 26.5h-66v-421q0 -23 14 -33t46 -10v-37h-170z" />
    <glyph glyph-name="t_t" unicode="tt" horiz-adv-x="750" 
d="M104 37q32 0 46 10t14 33v421h-17q-32 0 -51 -10t-32.5 -39t-29.5 -87l-34 9l34 192h31q3 -26 46 -26h218q23 0 30 6.5t8 19.5h31q3 -26 46 -26h195q43 0 46 26h31l34 -192l-34 -9q-16 58 -29.5 87t-32.5 39t-51 10h-19v-421q0 -23 14 -33t46 -10v-37h-230v37q32 0 46 10
t14 33v421h-30q-43 0 -46 -26h-31q-3 26 -46 26h-47v-421q0 -23 14 -33t46 -10v-37h-230v37z" />
    <glyph glyph-name=".notdef" horiz-adv-x="572" 
d="M524 710v-670h-476v670h476zM515 339v362h-458v-362h458zM309 664h169v-290h-384v290h169v3l-5 14l-1 4q0 4 3 4q6 2 8 2l3 -7h9v9h12v-9h9l3 7q2 0 8 -2q3 0 3 -4l-1 -4l-5 -14v-3zM309 660v-7q0 -3 -2 -9l74 8q2 1 2.5 -1t-1.5 -3l-77 -22q-18 -6 -37 0l-77 22
q-2 1 -1 3t2 1l73 -8q-2 6 -2 9v7h-160q-1 -1 -2 -1t-1 -0.5t-1 -0.5v-1l-1 -2v-273h0.5t0.5 -1t1 -2h1q0 -1 1 -1h1h366h1t1 1h1l0.5 0.5t0.5 1.5v0.5t1 0.5v273q0 5 -5 5h-160zM121 567l-12 41q-5 18 7.5 31.5t31.5 10.5l49 -9q2 -1 2 -3t-2 -2h-38q-14 0 -24 -10t-10 -24
v-34q0 -2 -2 -2t-2 1zM376 636q-1 0 -1.5 2t1.5 3l49 9q19 3 31 -10.5t7 -31.5l-12 -41q0 -1 -2 -1t-2 2v34q0 14 -9.5 24t-23.5 10h-38zM180 623q9 -3 18 0l19 5q2 0 2 -1t-1 -1l-10 -6q-8 -7 -19 -7t-19 6l-11 7q-1 0 -0.5 1t1.5 1zM355 625q-1 1 -0.5 2t1.5 0l20 -5
q9 -2 17 1l20 4q1 1 1.5 0t-0.5 -2l-10 -6q-19 -13 -39 0zM437 613l-9 -87q-1 -7 0 -15l9 -86q1 -2 -1 -2t-3 2l-23 75q-5 18 0 38l23 77q1 2 3 1t1 -3zM135 425l10 87q2 8 0 15l-10 86q0 2 2 3t3 -1l23 -77q5 -18 0 -37l-23 -76q-1 -2 -3 -2t-2 2zM262 555q-16 0 -16 17
q0 14 11 23t27 9q20 0 32 -10.5t12 -27.5q0 -19 -10 -27.5t-20 -17.5t-10 -30h-11q0 27 7.5 36.5t14.5 15.5t7 23q0 12 -6.5 20t-17.5 8t-18 -10q13 -3 13 -15q0 -6 -4.5 -10.5t-10.5 -3.5zM461 565q1 2 2.5 1.5t1.5 -2.5l-8 -32q-3 -14 0 -27l8 -32q0 -1 -1.5 -1.5
t-2.5 0.5l-10 15q-8 14 -8.5 31t8.5 31zM116 505q3 14 0 28l-8 31q0 2 1 2.5t2 -1.5l10 -15q10 -14 9.5 -31t-8.5 -31l-11 -16q-1 -1 -2 -0.5t-1 1.5zM272 462q0 13 11 13q10 0 10 -13q0 -12 -10 -12q-11 0 -11 12zM451 471l12 -41q5 -18 -7 -32t-31 -10l-49 10q-2 0 -1.5 2
t1.5 2h38q14 0 23.5 10t9.5 24v34q0 2 2 2.5t2 -1.5zM197 402q2 0 2 -2t-2 -2l-49 -10q-19 -4 -31.5 10t-7.5 32l12 41q0 2 2 1.5t2 -2.5v-34q0 -14 10 -24t24 -10h38zM160 410q-1 0 -1.5 1t0.5 2l10 6q20 13 39 0l10 -6q3 -3 -1 -3l-20 5q-8 3 -17 0zM403 419l11 -6
q2 -3 -1 -3l-20 5q-9 2 -18 0l-19 -5q-2 0 -1 3l10 6q19 14 38 0zM382 389q2 -1 1.5 -3t-2.5 -2l-88 10q-7 2 -15 0l-86 -10q-1 0 -2 2t1 3l76 22q19 6 37 0zM515 330h-458v-282h458v282z" />
    <glyph glyph-name="space" unicode=" " horiz-adv-x="192" 
 />
    <glyph glyph-name="nbspace" unicode="&#xa0;" horiz-adv-x="192" 
 />
    <glyph glyph-name="figurespace" unicode="&#x2007;" 
 />
    <glyph glyph-name="A" unicode="A" horiz-adv-x="478" 
d="M107 81q-4 -21 11.5 -32.5t48.5 -11.5v-37h-167v37q29 0 43 10t19 34l150 683h48l155 -685q5 -25 17.5 -33.5t42.5 -8.5v-37h-232v37q36 0 50.5 9.5t9.5 31.5l-21 101h-154zM137 219h136l-66 319z" />
    <glyph glyph-name="B" unicode="B" horiz-adv-x="494" 
d="M26 37q32 0 46 10t14 33v590q0 23 -14 33t-46 10v37h236q90 0 137.5 -48t47.5 -139q0 -63 -18 -100t-62 -63q54 -28 78.5 -72.5t24.5 -114.5q0 -109 -46 -161t-142 -52h-256v37zM262 710h-64v-670h84q33 0 53 26.5t20 69.5v141q0 44 -20 71t-53 27h-43v40h23q33 0 53 27
t20 71v101q0 44 -19.5 70t-53.5 26z" />
    <glyph glyph-name="C" unicode="C" horiz-adv-x="426" 
d="M241 760q38 0 54 6t24 22h34l44 -181l-34 -9q-19 50 -35 76t-33.5 36t-44.5 10q-40 0 -67.5 -30.5t-27.5 -75.5v-478q0 -43 25.5 -71t64.5 -28q47 0 76 41.5t29 110.5v16h43v-1q0 -109 -40.5 -161.5t-124.5 -52.5q-87 0 -136 57t-49 157v342q0 105 50.5 159.5t147.5 54.5
z" />
    <glyph glyph-name="D" unicode="D" horiz-adv-x="494" 
d="M24 37q32 0 46 10t14 33v590q0 23 -14 33t-46 10v37h238q185 0 185 -214v-322q0 -214 -185 -214h-238v37zM262 710h-66v-670h66q34 0 54.5 26.5t20.5 69.5v478q0 44 -20.5 70t-54.5 26z" />
    <glyph glyph-name="E" unicode="E" horiz-adv-x="483" 
d="M30 37q32 0 46 10t14 33v590q0 23 -14 33t-46 10v37h295q23 0 33 8.5t13 29.5h34l44 -181l-34 -9q-17 48 -33.5 72t-42 32t-70.5 8h-67v-295h26q69 0 69 72h37v-184h-37q0 38 -16.5 55t-52.5 17h-26v-335h108q45 0 69.5 10t36.5 38t18 83h35v-202h-37q-4 17 -19.5 24
t-49.5 7h-333v37z" />
    <glyph glyph-name="F" unicode="F" horiz-adv-x="475" 
d="M30 37q32 0 46 10t14 33v590q0 26 -12.5 34.5t-47.5 8.5v37h295q23 0 33 8.5t13 29.5h34l44 -181l-34 -9q-17 48 -33.5 72t-42 32t-70.5 8h-67v-315h26q69 0 69 72h37v-184h-37q0 38 -16.5 55t-52.5 17h-26v-275q0 -23 14 -33t46 -10v-37h-232v37z" />
    <glyph glyph-name="G" unicode="G" horiz-adv-x="459" 
d="M253 720q-39 0 -67.5 -31t-28.5 -75v-488q0 -44 19.5 -70t53.5 -26q35 0 55.5 26.5t20.5 69.5v197q0 53 -71 53v37h208v-37q-30 0 -30 -35v-341h-23l-28 37q-45 -47 -133 -47q-184 0 -184 214v342q0 104 51 159t148 55q38 0 54 6t24 22h34l44 -181l-34 -9q-19 50 -35 76
t-33.5 36t-44.5 10z" />
    <glyph glyph-name="H" unicode="H" horiz-adv-x="548" 
d="M86 80v590q0 23 -14 33t-46 10v37h232v-37q-32 0 -46 -10t-14 -33v-255h163v255q0 23 -14 33t-46 10v37h230v-37q-32 0 -46 -10t-14 -33v-590q0 -23 14 -33t46 -10v-37h-230v37q32 0 46 10t14 33v292h-163v-292q0 -24 13 -33.5t47 -9.5v-37h-232v37q34 0 47 9.5t13 33.5z
" />
    <glyph glyph-name="I" unicode="I" horiz-adv-x="292" 
d="M30 37q32 0 46 10t14 33v590q0 23 -14 33t-46 10v37h232v-37q-32 0 -46 -10t-14 -33v-590q0 -23 14 -33t46 -10v-37h-232v37z" />
    <glyph glyph-name="J" unicode="J" horiz-adv-x="454" 
d="M206 713v37h232v-37q-32 0 -46 -10t-14 -33v-446q0 -115 -50.5 -174.5t-147.5 -59.5q-47 0 -85.5 19.5t-60.5 52.5t-22 74q0 37 23 62.5t57 26.5q32 1 55 -22.5t23 -56.5q0 -26 -11.5 -40.5t-27 -21.5t-27 -9l-11.5 -2l6.5 -10.5t22.5 -21.5t46 -11q46 0 72 39t26 107
v494q0 23 -14 33t-46 10z" />
    <glyph glyph-name="J.alt_1" horiz-adv-x="292" 
d="M4 -120h-37v40h25q47 0 72.5 38t25.5 108v604q0 23 -14 33t-46 10v37h232v-37q-32 0 -46 -10t-14 -33v-556q0 -115 -50.5 -174.5t-147.5 -59.5z" />
    <glyph glyph-name="K" unicode="K" horiz-adv-x="528" 
d="M294 395q48 0 87 -29t61.5 -77.5t22.5 -109.5v-46q0 -43 20 -69.5t53 -26.5h11v-37h-11q-97 0 -142.5 47t-45.5 148v60q0 43 -23 71.5t-58 28.5h-27v40l129 282q7 14 -7 25t-40 11v37h167v-37q-30 0 -46 -9.5t-27 -34.5zM30 37q32 0 46 10t14 33v590q0 23 -14 33t-46 10
v37h232v-37q-32 0 -46 -10t-14 -33v-590q0 -23 14 -33t46 -10v-37h-232v37z" />
    <glyph glyph-name="K.alt_1" horiz-adv-x="542" 
d="M492 81q18 -43 64 -43v-37h-230v37q72 0 54 43l-138 314l129 282q7 15 -7 25.5t-40 10.5v37h167v-37q-29 0 -45.5 -10t-27.5 -34l-124 -274h62zM30 38q32 0 46 10t14 33v589q0 23 -14 33t-46 10v37h232v-37q-32 0 -46 -10t-14 -33v-589q0 -23 14 -33t46 -10v-37h-232v37z
" />
    <glyph glyph-name="L" unicode="L" horiz-adv-x="449" 
d="M30 37q32 0 46 10t14 33v590q0 23 -14 33t-46 10v37h232v-37q-32 0 -46 -10t-14 -33v-630h76q45 0 69.5 10t36.5 38t18 83h35v-202h-37q-4 17 -19.5 24t-49.5 7h-301v37z" />
    <glyph glyph-name="M" unicode="M" horiz-adv-x="736" 
d="M30 37q32 0 46 10t14 33v590q0 23 -14 33t-46 10v37h197l147 -551l140 551h192v-37q-34 0 -47 -9.5t-13 -33.5v-590q0 -23 14 -33t46 -10v-37h-230v37q32 0 46 10t14 33v574l-168 -654h-46l-185 641v-561q0 -23 14 -33t46 -10v-37h-167v37z" />
    <glyph glyph-name="N" unicode="N" horiz-adv-x="512" 
d="M9 37q32 0 46 10t14 33v590q0 23 -14 33t-46 10v37h176l211 -474v394q0 23 -14 33t-46 10v37h167v-37q-32 0 -46 -10t-14 -33v-670h-49l-278 630v-550q0 -23 14 -33t46 -10v-37h-167v37z" />
    <glyph glyph-name="O" unicode="O" horiz-adv-x="480" 
d="M240 760q91 0 142 -56.5t51 -157.5v-342q0 -105 -49.5 -159.5t-143.5 -54.5q-95 0 -146 55.5t-51 158.5v342q0 104 50.5 159t146.5 55zM240 30q36 0 59.5 27t23.5 69v498q0 42 -23.5 69t-59.5 27q-35 0 -59 -27.5t-24 -68.5v-498q0 -43 23 -69.5t60 -26.5z" />
    <glyph glyph-name="P" unicode="P" horiz-adv-x="498" 
d="M30 37q32 0 46 10t14 33v590q0 23 -14 33t-46 10v37h256q188 0 188 -213v-63q0 -212 -188 -212h-44v40h44q33 0 53 27t20 71v214q0 43 -20.5 69.5t-52.5 26.5h-84v-630q0 -23 14 -33t46 -10v-37h-232v37z" />
    <glyph glyph-name="Q" unicode="Q" horiz-adv-x="480" 
d="M240 760q91 0 142 -56.5t51 -157.5v-282q0 -146 -94 -193q21 -32 58 -32h21v-39h-1q-107 0 -150 51q-13 -1 -27 -1q-94 0 -145.5 55.5t-51.5 158.5v282q0 104 51 159t146 55zM157 624v-280q149 -10 165 -173q1 7 1 15v438q0 42 -23.5 69t-59.5 27q-35 0 -59 -27.5
t-24 -68.5zM157 186q0 -43 23 -69.5t60 -26.5h0.5h3.5q-15 41 -15 105v14q0 44 -20 70.5t-52 26.5v-120z" />
    <glyph glyph-name="Q.alt_1" horiz-adv-x="480" 
d="M249 13q-99 0 -152.5 55.5t-53.5 158.5v319q0 104 51 159t146 55q91 0 142 -56.5t51 -157.5v-319q0 -67 -25.5 -115t-85.5 -80q57 -35 81 -81.5t24 -112.5q0 -42 20.5 -67t52.5 -25h21v-39h-1q-100 0 -144 44.5t-44 150.5v14q0 47 -22.5 72t-60.5 25zM240 53
q36 0 59.5 27t23.5 69v475q0 42 -23.5 69t-59.5 27q-35 0 -59 -27.5t-24 -68.5v-475q0 -43 23 -69.5t60 -26.5z" />
    <glyph glyph-name="R" unicode="R" horiz-adv-x="534" 
d="M26 37q32 0 46 10t14 33v590q0 23 -14 33t-46 10v37h250q188 0 188 -215q0 -73 -21.5 -118t-74.5 -76q48 -31 69 -76.5t21 -115.5v-13q0 -44 20 -71.5t53 -27.5h11v-37h-11q-97 0 -142.5 47.5t-45.5 147.5v28q0 44 -20.5 72t-52.5 28h-24v40h30q34 0 54.5 27t20.5 71v153
q0 44 -20 70t-55 26h-78v-630q0 -23 14 -33t46 -10v-37h-232v37z" />
    <glyph glyph-name="S" unicode="S" horiz-adv-x="417" 
d="M210 720q-34 0 -59.5 -25.5t-25.5 -60.5q0 -28 13.5 -55.5t44.5 -62.5l101 -118q43 -50 66.5 -86.5t33 -70t9.5 -74.5q0 -49 -25 -89t-67 -64t-93 -24q-37 0 -60 7t-36.5 14t-23.5 7t-19 -5.5t-11 -12.5h-35v212h34q14 -80 50 -125.5t84 -45.5q42 0 66.5 28t24.5 76
q0 39 -19 78.5t-61 87.5l-84 97q-52 61 -73 103.5t-21 90.5q0 42 25 78t65.5 58t86.5 22q38 0 54 6t24 22h34l44 -181l-34 -9q-19 50 -35 76t-33.5 36t-44.5 10z" />
    <glyph glyph-name="T" unicode="T" horiz-adv-x="520" 
d="M141 37q32 0 46 10t14 33v633h-13q-40 0 -65.5 -12t-43 -43.5t-34.5 -90.5l-37 9l44 211h34q4 -22 13.5 -29.5t32.5 -7.5h256q23 0 33 8t13 29h34l44 -211l-37 -9q-17 59 -34.5 90.5t-42.5 43.5t-66 12h-19v-633q0 -23 14 -33t46 -10v-37h-232v37z" />
    <glyph glyph-name="U" unicode="U" horiz-adv-x="507" 
d="M10 713v37h232v-37q-32 0 -46 -10t-14 -33v-514q0 -55 28 -87t75 -32t76 41.5t29 110.5v481q0 23 -14 33t-46 10v37h167v-37q-32 0 -46 -10t-14 -33v-466q0 -214 -169 -214q-95 0 -146.5 55.5t-51.5 158.5v466q0 23 -14 33t-46 10z" />
    <glyph glyph-name="V" unicode="V" horiz-adv-x="474" 
d="M369 669q5 21 -11 32.5t-49 11.5v37h167v-37q-28 0 -42.5 -10t-19.5 -34l-150 -683h-48l-158 685q-5 23 -19 32.5t-41 9.5v37h235v-37q-31 0 -47 -10.5t-13 -30.5l85 -510z" />
    <glyph glyph-name="W" unicode="W" horiz-adv-x="800" 
d="M488 655l95 -478l110 493q10 44 -60 44v36h169v-36q-28 0 -42.5 -10.5t-19.5 -33.5l-152 -682h-45l-143 618l-128 -618h-44l-170 682q-6 23 -20 33t-40 10v37h235v-35q-31 0 -47.5 -11t-12.5 -31l92 -485l101 467q13 58 -52 58v37h228v-37q-37 0 -49 -13t-5 -45z" />
    <glyph glyph-name="X" unicode="X" horiz-adv-x="476" 
d="M-4 713v37h232v-37q-68 0 -51 -45l81 -213l91 221q8 20 -3 28.5t-44 8.5v37h167v-37q-32 0 -47 -9.5t-26 -35.5l-108 -262l130 -336q7 -18 21 -25.5t41 -7.5v-37h-232v37q69 0 53 40l-85 221l-89 -220q-17 -41 44 -41v-37h-167v37q34 0 48.5 9.5t25.5 37.5l108 265
l-127 329q-7 20 -21 27.5t-42 7.5z" />
    <glyph glyph-name="Y" unicode="Y" horiz-adv-x="484" 
d="M136 37q53 0 59 31v240l-137 362q-10 25 -22.5 34t-37.5 9v37h235v-37q-34 0 -50.5 -11.5t-9.5 -30.5l105 -296l98 294q7 20 -9 32t-51 12v37h170v-37q-27 0 -40 -9t-22 -35l-117 -345v-244h1q0 -23 14 -33t46 -10v-37h-232v37z" />
    <glyph glyph-name="Z" unicode="Z" horiz-adv-x="435" 
d="M254 40q45 0 69.5 10t36.5 38t18 83h35v-202h-37q-4 17 -19.5 24t-49.5 7h-283v40l247 670h-63q-45 0 -70.5 -8t-42 -32t-33.5 -72l-34 9l44 181h34q3 -21 13.5 -29.5t32.5 -8.5h241v-40l-245 -670h106z" />
    <glyph glyph-name="AE" unicode="&#xc6;" horiz-adv-x="686" 
d="M513 39q45 0 69.5 10t36.5 38.5t18 83.5h33v-202h-35q-7 18 -21 24.5t-48 6.5h-323v34q35 0 47.5 9t12.5 34v102h-161l-34 -101q-6 -19 9.5 -31.5t50.5 -12.5v-34h-168v34q27 0 40.5 9.5t21.5 34.5l222 672h244q23 0 32.5 8t13.5 30h34l44 -181l-34 -9q-18 49 -34.5 73
t-41.5 32t-70 8h-57v-292h26q69 0 69 72h32v-184h-32q0 72 -69 72h-26v-340h98zM157 227h146v439z" />
    <glyph glyph-name="OE" unicode="&#x152;" horiz-adv-x="709" 
d="M240 760q33 0 64 -10h247q23 0 32.5 8t13.5 30h34l44 -181l-34 -9q-18 49 -34.5 73t-41.5 32t-70 8h-57v-292h26q69 0 69 72h32v-184h-32q0 72 -69 72h-26v-340h98q45 0 69.5 10t36.5 38.5t18 83.5h33v-202h-35q-7 18 -21 24.5t-48 6.5h-286q-32 -10 -63 -10
q-96 0 -147 54.5t-51 159.5v342q0 105 52 159.5t146 54.5zM240 30q35 0 59 27.5t24 68.5v498q0 42 -24 69t-59 27t-58 -27t-23 -69v-498q0 -41 23.5 -68.5t57.5 -27.5z" />
    <glyph glyph-name="Aring" unicode="&#xc5;" horiz-adv-x="478" 
d="M107 81q-4 -21 11.5 -32.5t48.5 -11.5v-37h-167v37q29 0 43 10t19 34l150 683h48l155 -685q5 -25 17.5 -33.5t42.5 -8.5v-37h-232v37q36 0 50.5 9.5t9.5 31.5l-21 101h-154zM137 219h136l-66 319zM315 871q0 -73 -79 -73q-80 0 -80 73t80 73q38 0 58.5 -19t20.5 -54z
M194 871q0 -21 12 -34.5t30 -13.5t30 13.5t12 34.5q0 22 -11.5 36t-30.5 14q-18 0 -30 -14.5t-12 -35.5z" />
    <glyph glyph-name="Aogonek" unicode="&#x104;" horiz-adv-x="478" 
d="M107 81q-4 -21 11.5 -32.5t48.5 -11.5v-37h-167v37q29 0 43 10t19 34l150 683h48l155 -685q5 -25 17.5 -33.5t42.5 -8.5v-37h-232v37q36 0 50.5 9.5t9.5 31.5l-21 101h-154zM137 219h136l-66 319zM475 37v-38l-41 -11q-22 -6 -33.5 -23t-11.5 -35q0 -24 18.5 -39.5
t46.5 -15.5h18v-46h-20q-50 0 -81 29t-31 72q0 38 23.5 65.5t75.5 35.5z" />
    <glyph glyph-name="Eogonek" unicode="&#x118;" horiz-adv-x="483" 
d="M30 37q32 0 46 10t14 33v590q0 23 -14 33t-46 10v37h295q23 0 33 8.5t13 29.5h34l44 -181l-34 -9q-17 48 -33.5 72t-42 32t-70.5 8h-67v-295h26q69 0 69 72h37v-184h-37q0 38 -16.5 55t-52.5 17h-26v-335h108q45 0 69.5 10t36.5 38t18 83h35v-202h-37q-4 17 -19.5 24
t-49.5 7h-333v37zM432 7v-38l-41 -11q-22 -6 -33.5 -23t-11.5 -35q0 -24 18.5 -39.5t46.5 -15.5h18v-46h-20q-50 0 -81 29t-31 72q0 38 23.5 65.5t75.5 35.5z" />
    <glyph glyph-name="Iogonek" unicode="&#x12e;" horiz-adv-x="292" 
d="M30 37q32 0 46 10t14 33v590q0 23 -14 33t-46 10v37h232v-37q-32 0 -46 -10t-14 -33v-590q0 -23 14 -33t46 -10v-37h-232v37zM262 37v-38l-41 -11q-22 -6 -33.5 -23t-11.5 -35q0 -24 18.5 -39.5t46.5 -15.5h18v-46h-20q-50 0 -81 29t-31 72q0 38 23.5 65.5t75.5 35.5z
" />
    <glyph glyph-name="Uogonek" unicode="&#x172;" horiz-adv-x="507" 
d="M10 713v37h232v-37q-32 0 -46 -10t-14 -33v-514q0 -55 28 -87t75 -32t76 41.5t29 110.5v481q0 23 -14 33t-46 10v37h167v-37q-32 0 -46 -10t-14 -33v-466q0 -214 -169 -214q-95 0 -146.5 55.5t-51.5 158.5v466q0 23 -14 33t-46 10zM327 36v-38l-41 -11q-22 -6 -33.5 -23
t-11.5 -35q0 -24 18.5 -39.5t46.5 -15.5h18v-46h-20q-50 0 -81 29t-31 72q0 38 23.5 65.5t75.5 35.5z" />
    <glyph glyph-name="Dcroat" unicode="&#x110;" horiz-adv-x="494" 
d="M24 37q32 0 46 10t14 33v280h-57v39h57v271q0 23 -14 33t-46 10v37h238q185 0 185 -214v-322q0 -214 -185 -214h-238v37zM296 399v-39h-100v-320h66q34 0 54.5 26.5t20.5 69.5v478q0 44 -20.5 70t-54.5 26h-66v-311h100z" />
    <glyph glyph-name="Eth" unicode="&#xd0;" horiz-adv-x="494" 
d="M24 37q32 0 46 10t14 33v280h-57v39h57v271q0 23 -14 33t-46 10v37h238q185 0 185 -214v-322q0 -214 -185 -214h-238v37zM296 399v-39h-100v-320h66q34 0 54.5 26.5t20.5 69.5v478q0 44 -20.5 70t-54.5 26h-66v-311h100z" />
    <glyph glyph-name="Hbar" unicode="&#x126;" horiz-adv-x="557" 
d="M86 80v462h-56v39h56v89q0 23 -14 33t-46 10v37h232v-37q-32 0 -46 -10t-14 -33v-89h163v89q0 23 -14 33t-46 10v37h230v-37q-32 0 -46 -10t-14 -33v-89h57v-39h-57v-462q0 -23 14 -33t46 -10v-37h-230v37q32 0 46 10t14 33v292h-163v-292q0 -24 13 -33.5t47 -9.5v-37
h-232v37q34 0 47 9.5t13 33.5zM198 415h163v127h-163v-127z" />
    <glyph glyph-name="Lslash" unicode="&#x141;" horiz-adv-x="479" 
d="M30 37q32 0 46 10t14 33v271l-63 -23v51l63 23v268q0 23 -14 33t-46 10v37h232v-37q-32 0 -46 -10t-14 -33v-226l153 56v-51l-153 -56v-353h76q45 0 69.5 10t36.5 38t18 83h35v-202h-37q-4 17 -19.5 24t-49.5 7h-301v37z" />
    <glyph glyph-name="Oslash" unicode="&#xd8;" horiz-adv-x="480" 
d="M477 554l1 -54l-45 -26v-270q0 -105 -49.5 -159.5t-143.5 -54.5q-95 0 -146 55.5t-51 158.5v41l-41 -24l-1 54l42 25v246q0 104 50.5 159t146.5 55q91 0 142 -56.5t51 -157.5v-18zM157 624v-258l166 98v160q0 42 -23.5 69t-59.5 27q-35 0 -59 -27.5t-24 -68.5zM240 30
q36 0 59.5 27t23.5 69v283l-166 -97v-186q0 -43 23 -69.5t60 -26.5z" />
    <glyph glyph-name="Eng" unicode="&#x14a;" horiz-adv-x="520" 
d="M80 77v593q0 26 -12.5 34.5t-47.5 8.5v37h183l204 -655l-3 65v513q0 26 -12.5 34.5t-47.5 8.5v34h168v-34q-35 0 -47.5 -8.5t-12.5 -34.5v-673q0 -109 -45 -161t-143 -52h-20v37h20q59 0 78 47t-9 129l-209 628l4 -66v-485q0 -25 12.5 -34t47.5 -9v-34h-168v34
q35 0 47.5 9t12.5 34z" />
    <glyph glyph-name="Thorn" unicode="&#xde;" horiz-adv-x="482" 
d="M90 80v590q0 26 -12.5 34.5t-47.5 8.5v37h232v-37q-35 0 -47.5 -8.5t-12.5 -34.5v-51h68q188 0 188 -213v-61q0 -212 -188 -212h-68v-53q0 -25 12.5 -34t47.5 -9v-37h-232v37q35 0 47.5 9t12.5 34zM270 580h-68v-411h68q33 0 53 27t20 71v217q0 44 -20 70t-53 26z" />
    <glyph glyph-name="Tbar" unicode="&#x166;" horiz-adv-x="520" 
d="M141 37q32 0 46 10t14 33v280h-98v39h98v314h-13q-40 0 -65.5 -12t-43 -43.5t-34.5 -90.5l-37 9l44 211h34q4 -22 13.5 -29.5t32.5 -7.5h256q23 0 33 8t13 29h34l44 -211l-37 -9q-17 59 -34.5 90.5t-42.5 43.5t-66 12h-19v-314h99v-39h-99v-280q0 -23 14 -33t46 -10v-37
h-232v37z" />
    <glyph glyph-name="Aringacute" unicode="&#x1fa;" horiz-adv-x="478" 
d="M107 81q-4 -21 11.5 -32.5t48.5 -11.5v-37h-167v37q29 0 43 10t19 34l150 683h48l155 -685q5 -25 17.5 -33.5t42.5 -8.5v-37h-232v37q36 0 50.5 9.5t9.5 31.5l-21 101h-154zM137 219h136l-66 319zM315 861q0 -73 -79 -73q-80 0 -80 73t80 73q38 0 58.5 -19t20.5 -54z
M194 861q0 -21 12 -34.5t30 -13.5t30 13.5t12 34.5q0 22 -11.5 36t-30.5 14q-18 0 -30 -14.5t-12 -35.5zM290 1070h81l-111 -117h-46z" />
    <glyph glyph-name="Aacute" unicode="&#xc1;" horiz-adv-x="478" 
d="M107 81q-4 -21 11.5 -32.5t48.5 -11.5v-37h-167v37q29 0 43 10t19 34l150 683h48l155 -685q5 -25 17.5 -33.5t42.5 -8.5v-37h-232v37q36 0 50.5 9.5t9.5 31.5l-21 101h-154zM137 219h136l-66 319zM290 910h81l-111 -117h-46z" />
    <glyph glyph-name="Agrave" unicode="&#xc0;" horiz-adv-x="478" 
d="M107 81q-4 -21 11.5 -32.5t48.5 -11.5v-37h-167v37q29 0 43 10t19 34l150 683h48l155 -685q5 -25 17.5 -33.5t42.5 -8.5v-37h-232v37q36 0 50.5 9.5t9.5 31.5l-21 101h-154zM137 219h136l-66 319zM179 910l76 -117h-46l-111 117h81z" />
    <glyph glyph-name="Acaron" unicode="&#x1cd;" horiz-adv-x="478" 
d="M107 81q-4 -21 11.5 -32.5t48.5 -11.5v-37h-167v37q29 0 43 10t19 34l150 683h48l155 -685q5 -25 17.5 -33.5t42.5 -8.5v-37h-232v37q36 0 50.5 9.5t9.5 31.5l-21 101h-154zM137 219h136l-66 319zM298 911h44l-95 -119h-20l-107 119h59l63 -69z" />
    <glyph glyph-name="Acircumflex" unicode="&#xc2;" horiz-adv-x="491" 
d="M107 80q-4 -21 11.5 -32.5t48.5 -11.5v-37h-167v37q29 0 43 10t19 34l150 683h48l155 -685q5 -25 17.5 -33.5t42.5 -8.5v-37h-232v37q36 0 50.5 9.5t9.5 31.5l-21 101h-154zM137 218h136l-66 319zM175 782h-44l95 119h20l107 -119h-59l-63 69z" />
    <glyph glyph-name="Atilde" unicode="&#xc3;" horiz-adv-x="491" 
d="M107 80q-4 -21 11.5 -32.5t48.5 -11.5v-37h-167v37q29 0 43 10t19 34l150 683h48l155 -685q5 -25 17.5 -33.5t42.5 -8.5v-37h-232v37q36 0 50.5 9.5t9.5 31.5l-21 101h-154zM137 218h136l-66 319zM125 839q0 18 18.5 31.5t43.5 13.5q23 0 42 -7.5t35 -15.5t30 -8
q24 0 41 21l25 -14q-24 -56 -71 -56q-23 0 -38 6.5t-28 13t-30 6.5q-13 0 -22.5 -8t-12.5 -21q-33 10 -33 38z" />
    <glyph glyph-name="Adieresis" unicode="&#xc4;" horiz-adv-x="491" 
d="M107 80q-4 -21 11.5 -32.5t48.5 -11.5v-37h-167v37q29 0 43 10t19 34l150 683h48l155 -685q5 -25 17.5 -33.5t42.5 -8.5v-37h-232v37q36 0 50.5 9.5t9.5 31.5l-21 101h-154zM137 218h136l-66 319zM202.586 609.996q0 -20.3574 -14.1768 -33.8086
q-14.1777 -13.4502 -33.8076 -12.7227q-20.3574 0.726562 -34.5352 15.6309t-14.1777 37.4434q0 20.3574 14.1777 34.5352t33.8076 13.4502q21.085 -0.727539 34.8984 -15.9951t13.8135 -38.5332zM312.371 609.996q0 -20.3574 -14.1777 -33.8086
q-14.1777 -13.4502 -33.8076 -12.7227q-20.3574 0.726562 -34.5352 15.6309q-14.1768 14.9043 -14.1768 37.4434q0 20.3574 14.1768 34.5352q14.1777 14.1777 33.8076 13.4502q21.085 -0.727539 34.8984 -15.9951q13.8145 -15.2676 13.8145 -38.5332z" />
    <glyph glyph-name="Amacron" unicode="&#x100;" horiz-adv-x="491" 
d="M107 80q-4 -21 11.5 -32.5t48.5 -11.5v-37h-167v37q29 0 43 10t19 34l150 683h48l155 -685q5 -25 17.5 -33.5t42.5 -8.5v-37h-232v37q36 0 50.5 9.5t9.5 31.5l-21 101h-154zM137 218h136l-66 319zM107 793v40h268v-40h-268z" />
    <glyph glyph-name="Abreve" unicode="&#x102;" horiz-adv-x="491" 
d="M107 80q-4 -21 11.5 -32.5t48.5 -11.5v-37h-167v37q29 0 43 10t19 34l150 683h48l155 -685q5 -25 17.5 -33.5t42.5 -8.5v-37h-232v37q36 0 50.5 9.5t9.5 31.5l-21 101h-154zM137 218h136l-66 319zM303 869h42q-11 -97 -111 -97q-97 0 -109 97h42q6 -25 24 -40t44 -15
q57 0 68 55z" />
    <glyph glyph-name="Alphatonos" unicode="&#x386;" horiz-adv-x="478" 
d="M107 81q-4 -21 11.5 -32.5t48.5 -11.5v-37h-167v37q29 0 43 10t19 34l150 683h48l155 -685q5 -25 17.5 -33.5t42.5 -8.5v-37h-232v37q36 0 50.5 9.5t9.5 31.5l-21 101h-154zM137 219h136l-66 319zM151 651h-69l43 190l69 1z" />
    <glyph glyph-name="AEacute" unicode="&#x1fc;" horiz-adv-x="686" 
d="M513 39q45 0 69.5 10t36.5 38.5t18 83.5h33v-202h-35q-7 18 -21 24.5t-48 6.5h-323v34q35 0 47.5 9t12.5 34v102h-161l-34 -101q-6 -19 9.5 -31.5t50.5 -12.5v-34h-168v34q27 0 40.5 9.5t21.5 34.5l222 672h244q23 0 32.5 8t13.5 30h34l44 -181l-34 -9q-18 49 -34.5 73
t-41.5 32t-70 8h-57v-292h26q69 0 69 72h32v-184h-32q0 72 -69 72h-26v-340h98zM157 227h146v439zM379 910h81l-111 -117h-46z" />
    <glyph glyph-name="Cacute" unicode="&#x106;" horiz-adv-x="426" 
d="M241 760q38 0 54 6t24 22h34l44 -181l-34 -9q-19 50 -35 76t-33.5 36t-44.5 10q-40 0 -67.5 -30.5t-27.5 -75.5v-478q0 -43 25.5 -71t64.5 -28q47 0 76 41.5t29 110.5v16h43v-1q0 -109 -40.5 -161.5t-124.5 -52.5q-87 0 -136 57t-49 157v342q0 105 50.5 159.5t147.5 54.5
zM260 910h81l-111 -117h-46z" />
    <glyph glyph-name="Ccaron" unicode="&#x10c;" horiz-adv-x="426" 
d="M241 760q38 0 54 6t24 22h34l44 -181l-34 -9q-19 50 -35 76t-33.5 36t-44.5 10q-40 0 -67.5 -30.5t-27.5 -75.5v-478q0 -43 25.5 -71t64.5 -28q47 0 76 41.5t29 110.5v16h43v-1q0 -109 -40.5 -161.5t-124.5 -52.5q-87 0 -136 57t-49 157v342q0 105 50.5 159.5t147.5 54.5
zM280 911h44l-95 -119h-20l-107 119h59l63 -69z" />
    <glyph glyph-name="Cdotaccent" unicode="&#x10a;" horiz-adv-x="428" 
d="M241 760q38 0 54 6t24 22h34l44 -181l-34 -9q-19 50 -35 76t-33.5 36t-44.5 10q-40 0 -67.5 -30.5t-27.5 -75.5v-478q0 -43 25.5 -71t64.5 -28q47 0 76 41.5t29 110.5v16h43v-1q0 -109 -40.5 -161.5t-124.5 -52.5q-87 0 -136 57t-49 157v342q0 105 50.5 159.5t147.5 54.5
zM281.586 639.078q0 -20.3574 -14.1768 -33.8086q-14.1777 -13.4502 -33.8076 -12.7227q-20.3574 0.726562 -34.5352 15.6309t-14.1777 37.4434q0 20.3574 14.1777 34.5352t33.8076 13.4502q21.085 -0.727539 34.8984 -15.9951t13.8135 -38.5332z" />
    <glyph glyph-name="Ccedilla" unicode="&#xc7;" horiz-adv-x="426" 
d="M241 760q38 0 54 6t24 22h34l44 -181l-34 -9q-19 50 -35 76t-33.5 36t-44.5 10q-40 0 -67.5 -30.5t-27.5 -75.5v-478q0 -43 25.5 -71t64.5 -28q47 0 76 41.5t29 110.5v16h43v-1q0 -109 -40.5 -161.5t-124.5 -52.5q-87 0 -136 57t-49 157v342q0 105 50.5 159.5t147.5 54.5
zM264 -107q0 19 -15 30.5t-40 11.5h-37v35l20 23l45 -1l-19 -21q44 0 69.5 -20t25.5 -58q0 -36 -22 -58.5t-60 -22.5h-39v38h17q55 0 55 43z" />
    <glyph glyph-name="Dcaron" unicode="&#x10e;" horiz-adv-x="494" 
d="M24 37q32 0 46 10t14 33v590q0 23 -14 33t-46 10v37h238q185 0 185 -214v-322q0 -214 -185 -214h-238v37zM262 710h-66v-670h66q34 0 54.5 26.5t20.5 69.5v478q0 44 -20.5 70t-54.5 26zM292 911h44l-95 -119h-20l-107 119h59l63 -69z" />
    <glyph glyph-name="Egrave" unicode="&#xc8;" horiz-adv-x="483" 
d="M30 37q32 0 46 10t14 33v590q0 23 -14 33t-46 10v37h295q23 0 33 8.5t13 29.5h34l44 -181l-34 -9q-17 48 -33.5 72t-42 32t-70.5 8h-67v-295h26q69 0 69 72h37v-184h-37q0 38 -16.5 55t-52.5 17h-26v-335h108q45 0 69.5 10t36.5 38t18 83h35v-202h-37q-4 17 -19.5 24
t-49.5 7h-333v37zM193 910l76 -117h-46l-111 117h81z" />
    <glyph glyph-name="Eacute" unicode="&#xc9;" horiz-adv-x="483" 
d="M30 37q32 0 46 10t14 33v590q0 23 -14 33t-46 10v37h295q23 0 33 8.5t13 29.5h34l44 -181l-34 -9q-17 48 -33.5 72t-42 32t-70.5 8h-67v-295h26q69 0 69 72h37v-184h-37q0 38 -16.5 55t-52.5 17h-26v-335h108q45 0 69.5 10t36.5 38t18 83h35v-202h-37q-4 17 -19.5 24
t-49.5 7h-333v37zM255 910h81l-111 -117h-46z" />
    <glyph glyph-name="Etilde" unicode="&#x1ebc;" horiz-adv-x="483" 
d="M30 37q32 0 46 10t14 33v590q0 23 -14 33t-46 10v37h295q23 0 33 8.5t13 29.5h34l44 -181l-34 -9q-17 48 -33.5 72t-42 32t-70.5 8h-67v-295h26q69 0 69 72h37v-184h-37q0 38 -16.5 55t-52.5 17h-26v-335h108q45 0 69.5 10t36.5 38t18 83h35v-202h-37q-4 17 -19.5 24
t-49.5 7h-333v37zM114 830q0 18 18.5 31.5t43.5 13.5q23 0 42 -7.5t35 -15.5t30 -8q24 0 41 21l25 -14q-24 -56 -71 -56q-23 0 -38 6.5t-28 13t-30 6.5q-13 0 -22.5 -8t-12.5 -21q-33 10 -33 38z" />
    <glyph glyph-name="Ecircumflex" unicode="&#xca;" horiz-adv-x="483" 
d="M30 37q32 0 46 10t14 33v590q0 23 -14 33t-46 10v37h295q23 0 33 8.5t13 29.5h34l44 -181l-34 -9q-17 48 -33.5 72t-42 32t-70.5 8h-67v-295h26q69 0 69 72h37v-184h-37q0 38 -16.5 55t-52.5 17h-26v-335h108q45 0 69.5 10t36.5 38t18 83h35v-202h-37q-4 17 -19.5 24
t-49.5 7h-333v37zM165 782h-44l95 119h20l107 -119h-59l-63 69z" />
    <glyph glyph-name="Ecaron" unicode="&#x11a;" horiz-adv-x="483" 
d="M30 37q32 0 46 10t14 33v590q0 23 -14 33t-46 10v37h295q23 0 33 8.5t13 29.5h34l44 -181l-34 -9q-17 48 -33.5 72t-42 32t-70.5 8h-67v-295h26q69 0 69 72h37v-184h-37q0 38 -16.5 55t-52.5 17h-26v-335h108q45 0 69.5 10t36.5 38t18 83h35v-202h-37q-4 17 -19.5 24
t-49.5 7h-333v37zM301 911h44l-95 -119h-20l-107 119h59l63 -69z" />
    <glyph glyph-name="Edieresis" unicode="&#xcb;" horiz-adv-x="495" 
d="M30 37q32 0 46 10t14 33v590q0 23 -14 33t-46 10v37h295q23 0 33 8.5t13 29.5h34l44 -181l-34 -9q-17 48 -33.5 72t-42 32t-70.5 8h-67v-295h26q69 0 69 72h37v-184h-37q0 38 -16.5 55t-52.5 17h-26v-335h108q45 0 69.5 10t36.5 38t18 83h35v-202h-37q-4 17 -19.5 24
t-49.5 7h-333v37zM193.586 609.996q0 -20.3574 -14.1768 -33.8086q-14.1777 -13.4502 -33.8076 -12.7227q-20.3574 0.726562 -34.5352 15.6309t-14.1777 37.4434q0 20.3574 14.1777 34.5352t33.8076 13.4502q21.085 -0.727539 34.8984 -15.9951t13.8135 -38.5332z
M303.371 609.996q0 -20.3574 -14.1777 -33.8086q-14.1777 -13.4502 -33.8076 -12.7227q-20.3574 0.726562 -34.5352 15.6309q-14.1768 14.9043 -14.1768 37.4434q0 20.3574 14.1768 34.5352q14.1777 14.1777 33.8076 13.4502q21.085 -0.727539 34.8984 -15.9951
q13.8145 -15.2676 13.8145 -38.5332z" />
    <glyph glyph-name="Emacron" unicode="&#x112;" horiz-adv-x="483" 
d="M30 37q32 0 46 10t14 33v590q0 23 -14 33t-46 10v37h295q23 0 33 8.5t13 29.5h34l44 -181l-34 -9q-17 48 -33.5 72t-42 32t-70.5 8h-67v-295h26q69 0 69 72h37v-184h-37q0 38 -16.5 55t-52.5 17h-26v-335h108q45 0 69.5 10t36.5 38t18 83h35v-202h-37q-4 17 -19.5 24
t-49.5 7h-333v37zM79 793v40h268v-40h-268z" />
    <glyph glyph-name="Ebreve" unicode="&#x114;" horiz-adv-x="483" 
d="M30 37q32 0 46 10t14 33v590q0 23 -14 33t-46 10v37h295q23 0 33 8.5t13 29.5h34l44 -181l-34 -9q-17 48 -33.5 72t-42 32t-70.5 8h-67v-295h26q69 0 69 72h37v-184h-37q0 38 -16.5 55t-52.5 17h-26v-335h108q45 0 69.5 10t36.5 38t18 83h35v-202h-37q-4 17 -19.5 24
t-49.5 7h-333v37zM305 869h42q-11 -97 -111 -97q-97 0 -109 97h42q6 -25 24 -40t44 -15q57 0 68 55z" />
    <glyph glyph-name="Edotaccent" unicode="&#x116;" horiz-adv-x="495" 
d="M30 37q32 0 46 10t14 33v590q0 23 -14 33t-46 10v37h295q23 0 33 8.5t13 29.5h34l44 -181l-34 -9q-17 48 -33.5 72t-42 32t-70.5 8h-67v-295h26q69 0 69 72h37v-184h-37q0 38 -16.5 55t-52.5 17h-26v-335h108q45 0 69.5 10t36.5 38t18 83h35v-202h-37q-4 17 -19.5 24
t-49.5 7h-333v37zM286.586 638.078q0 -20.3574 -14.1768 -33.8086q-14.1777 -13.4502 -33.8076 -12.7227q-20.3574 0.726562 -34.5352 15.6309t-14.1777 37.4434q0 20.3574 14.1777 34.5352t33.8076 13.4502q21.085 -0.727539 34.8984 -15.9951t13.8135 -38.5332z" />
    <glyph glyph-name="Gbreve" unicode="&#x11e;" horiz-adv-x="459" 
d="M253 720q-39 0 -67.5 -31t-28.5 -75v-488q0 -44 19.5 -70t53.5 -26q35 0 55.5 26.5t20.5 69.5v197q0 53 -71 53v37h208v-37q-30 0 -30 -35v-341h-23l-28 37q-45 -47 -133 -47q-184 0 -184 214v342q0 104 51 159t148 55q38 0 54 6t24 22h34l44 -181l-34 -9q-19 50 -35 76
t-33.5 36t-44.5 10zM293 869h42q-11 -97 -111 -97q-97 0 -109 97h42q6 -25 24 -40t44 -15q57 0 68 55z" />
    <glyph glyph-name="Gdotaccent" unicode="&#x120;" horiz-adv-x="439" 
d="M253 720q-39 0 -67.5 -31t-28.5 -75v-488q0 -44 19.5 -70t53.5 -26q35 0 55.5 26.5t20.5 69.5v197q0 53 -71 53v37h208v-37q-30 0 -30 -35v-341h-23l-28 37q-45 -47 -133 -47q-184 0 -184 214v342q0 104 51 159t148 55q38 0 54 6t24 22h34l44 -181l-34 -9q-19 50 -35 76
t-33.5 36t-44.5 10zM271.586 639.078q0 -20.3574 -14.1768 -33.8086q-14.1777 -13.4502 -33.8076 -12.7227q-20.3574 0.726562 -34.5352 15.6309t-14.1777 37.4434q0 20.3574 14.1777 34.5352t33.8076 13.4502q21.085 -0.727539 34.8984 -15.9951t13.8135 -38.5332z" />
    <glyph glyph-name="Gcircumflex" unicode="&#x11c;" horiz-adv-x="459" 
d="M253 720q-39 0 -67.5 -31t-28.5 -75v-488q0 -44 19.5 -70t53.5 -26q35 0 55.5 26.5t20.5 69.5v197q0 53 -71 53v37h208v-37q-30 0 -30 -35v-341h-23l-28 37q-45 -47 -133 -47q-184 0 -184 214v342q0 104 51 159t148 55q38 0 54 6t24 22h34l44 -181l-34 -9q-19 50 -35 76
t-33.5 36t-44.5 10zM157 803h-44l95 119h20l107 -119h-59l-63 69z" />
    <glyph glyph-name="Igrave" unicode="&#xcc;" horiz-adv-x="280" 
d="M30 37q32 0 46 10t14 33v590q0 23 -14 33t-46 10v37h232v-37q-32 0 -46 -10t-14 -33v-590q0 -23 14 -33t46 -10v-37h-232v37zM122 910l76 -117h-46l-111 117h81z" />
    <glyph glyph-name="Iacute" unicode="&#xcd;" horiz-adv-x="280" 
d="M30 37q32 0 46 10t14 33v590q0 23 -14 33t-46 10v37h232v-37q-32 0 -46 -10t-14 -33v-590q0 -23 14 -33t46 -10v-37h-232v37zM178 910h81l-111 -117h-46z" />
    <glyph glyph-name="Icircumflex" unicode="&#xce;" horiz-adv-x="280" 
d="M30 37q32 0 46 10t14 33v590q0 23 -14 33t-46 10v37h232v-37q-32 0 -46 -10t-14 -33v-590q0 -23 14 -33t46 -10v-37h-232v37zM79 782h-44l95 119h20l107 -119h-59l-63 69z" />
    <glyph glyph-name="Itilde" unicode="&#x128;" horiz-adv-x="280" 
d="M30 37q32 0 46 10t14 33v590q0 23 -14 33t-46 10v37h232v-37q-32 0 -46 -10t-14 -33v-590q0 -23 14 -33t46 -10v-37h-232v37zM32 839q0 18 18.5 31.5t43.5 13.5q23 0 42 -7.5t35 -15.5t30 -8q24 0 41 21l25 -14q-24 -56 -71 -56q-23 0 -38 6.5t-28 13t-30 6.5
q-13 0 -22.5 -8t-12.5 -21q-33 10 -33 38z" />
    <glyph glyph-name="Idieresis" unicode="&#xcf;" horiz-adv-x="280" 
d="M30 37q32 0 46 10t14 33v590q0 23 -14 33t-46 10v37h232v-37q-32 0 -46 -10t-14 -33v-590q0 -23 14 -33t46 -10v-37h-232v37zM109.586 609.996q0 -20.3574 -14.1768 -33.8086q-14.1777 -13.4502 -33.8076 -12.7227q-20.3574 0.726562 -34.5352 15.6309t-14.1777 37.4434
q0 20.3574 14.1777 34.5352t33.8076 13.4502q21.085 -0.727539 34.8984 -15.9951t13.8135 -38.5332zM219.371 609.996q0 -20.3574 -14.1777 -33.8086q-14.1777 -13.4502 -33.8076 -12.7227q-20.3574 0.726562 -34.5352 15.6309q-14.1768 14.9043 -14.1768 37.4434
q0 20.3574 14.1768 34.5352q14.1777 14.1777 33.8076 13.4502q21.085 -0.727539 34.8984 -15.9951q13.8145 -15.2676 13.8145 -38.5332z" />
    <glyph glyph-name="Imacron" unicode="&#x12a;" horiz-adv-x="280" 
d="M6 790v40h268v-40h-268zM24 37q32 0 46 10t14 33v590q0 23 -14 33t-46 10v37h232v-37q-32 0 -46 -10t-14 -33v-590q0 -23 14 -33t46 -10v-37h-232v37z" />
    <glyph glyph-name="Ibreve" unicode="&#x12c;" horiz-adv-x="280" 
d="M24 37q32 0 46 10t14 33v590q0 23 -14 33t-46 10v37h232v-37q-32 0 -46 -10t-14 -33v-590q0 -23 14 -33t46 -10v-37h-232v37zM209 870h42q-11 -97 -111 -97q-97 0 -109 97h42q6 -25 24 -40t44 -15q57 0 68 55z" />
    <glyph glyph-name="Icaron" unicode="&#x1cf;" horiz-adv-x="292" 
d="M30 37q32 0 46 10t14 33v590q0 23 -14 33t-46 10v37h232v-37q-32 0 -46 -10t-14 -33v-590q0 -23 14 -33t46 -10v-37h-232v37zM209 911h44l-95 -119h-20l-107 119h59l63 -69z" />
    <glyph glyph-name="Idotaccent" unicode="&#x130;" horiz-adv-x="280" 
d="M30 37q32 0 46 10t14 33v590q0 23 -14 33t-46 10v37h232v-37q-32 0 -46 -10t-14 -33v-590q0 -23 14 -33t46 -10v-37h-232v37zM184.586 640.078q0 -20.3574 -14.1768 -33.8086q-14.1777 -13.4502 -33.8076 -12.7227q-20.3574 0.726562 -34.5352 15.6309t-14.1777 37.4434
q0 20.3574 14.1777 34.5352t33.8076 13.4502q21.085 -0.727539 34.8984 -15.9951t13.8135 -38.5332z" />
    <glyph glyph-name="Lacute" unicode="&#x139;" horiz-adv-x="449" 
d="M30 37q32 0 46 10t14 33v590q0 23 -14 33t-46 10v37h232v-37q-32 0 -46 -10t-14 -33v-630h76q45 0 69.5 10t36.5 38t18 83h35v-202h-37q-4 17 -19.5 24t-49.5 7h-301v37zM172 910h81l-111 -117h-46z" />
    <glyph glyph-name="Ldot" unicode="&#x13f;" horiz-adv-x="467" 
d="M30 37q32 0 46 10t14 33v590q0 23 -14 33t-46 10v37h232v-37q-32 0 -46 -10t-14 -33v-630h76q45 0 69.5 10t36.5 38t18 83h35v-202h-37q-4 17 -19.5 24t-49.5 7h-301v37zM341.586 139.078q0 -20.3574 -14.1768 -33.8086q-14.1777 -13.4502 -33.8076 -12.7227
q-20.3574 0.726562 -34.5352 15.6309t-14.1777 37.4434q0 20.3574 14.1777 34.5352t33.8076 13.4502q21.085 -0.727539 34.8984 -15.9951t13.8135 -38.5332z" />
    <glyph glyph-name="Lcaron" unicode="&#x13d;" horiz-adv-x="449" 
d="M30 37q32 0 46 10t14 33v590q0 23 -14 33t-46 10v37h232v-37q-32 0 -46 -10t-14 -33v-630h76q45 0 69.5 10t36.5 38t18 83h35v-202h-37q-4 17 -19.5 24t-49.5 7h-301v37zM322 550h-67v200l67 1v-201z" />
    <glyph glyph-name="Nacute" unicode="&#x143;" horiz-adv-x="512" 
d="M9 37q32 0 46 10t14 33v590q0 23 -14 33t-46 10v37h176l211 -474v394q0 23 -14 33t-46 10v37h167v-37q-32 0 -46 -10t-14 -33v-670h-49l-278 630v-550q0 -23 14 -33t46 -10v-37h-167v37zM269 910h81l-111 -117h-46z" />
    <glyph glyph-name="Ncaron" unicode="&#x147;" horiz-adv-x="512" 
d="M9 37q32 0 46 10t14 33v590q0 23 -14 33t-46 10v37h176l211 -474v394q0 23 -14 33t-46 10v37h167v-37q-32 0 -46 -10t-14 -33v-670h-49l-278 630v-550q0 -23 14 -33t46 -10v-37h-167v37zM319 911h44l-95 -119h-20l-107 119h59l63 -69z" />
    <glyph glyph-name="Ntilde" unicode="&#xd1;" horiz-adv-x="512" 
d="M9 37q32 0 46 10t14 33v590q0 23 -14 33t-46 10v37h176l211 -474v394q0 23 -14 33t-46 10v37h167v-37q-32 0 -46 -10t-14 -33v-670h-49l-278 630v-550q0 -23 14 -33t46 -10v-37h-167v37zM144 830q0 18 18.5 31.5t43.5 13.5q23 0 42 -7.5t35 -15.5t30 -8q24 0 41 21
l25 -14q-24 -56 -71 -56q-23 0 -38 6.5t-28 13t-30 6.5q-13 0 -22.5 -8t-12.5 -21q-33 10 -33 38z" />
    <glyph glyph-name="Ograve" unicode="&#xd2;" horiz-adv-x="480" 
d="M240 760q91 0 142 -56.5t51 -157.5v-342q0 -105 -49.5 -159.5t-143.5 -54.5q-95 0 -146 55.5t-51 158.5v342q0 104 50.5 159t146.5 55zM240 30q36 0 59.5 27t23.5 69v498q0 42 -23.5 69t-59.5 27q-35 0 -59 -27.5t-24 -68.5v-498q0 -43 23 -69.5t60 -26.5zM192 910
l76 -117h-46l-111 117h81z" />
    <glyph glyph-name="Oacute" unicode="&#xd3;" horiz-adv-x="480" 
d="M240 760q91 0 142 -56.5t51 -157.5v-342q0 -105 -49.5 -159.5t-143.5 -54.5q-95 0 -146 55.5t-51 158.5v342q0 104 50.5 159t146.5 55zM240 30q36 0 59.5 27t23.5 69v498q0 42 -23.5 69t-59.5 27q-35 0 -59 -27.5t-24 -68.5v-498q0 -43 23 -69.5t60 -26.5zM296 910h81
l-111 -117h-46z" />
    <glyph glyph-name="Ocircumflex" unicode="&#xd4;" horiz-adv-x="480" 
d="M240 760q91 0 142 -56.5t51 -157.5v-342q0 -105 -49.5 -159.5t-143.5 -54.5q-95 0 -146 55.5t-51 158.5v342q0 104 50.5 159t146.5 55zM240 30q36 0 59.5 27t23.5 69v498q0 42 -23.5 69t-59.5 27q-35 0 -59 -27.5t-24 -68.5v-498q0 -43 23 -69.5t60 -26.5zM174 782h-44
l95 119h20l107 -119h-59l-63 69z" />
    <glyph glyph-name="Otilde" unicode="&#xd5;" horiz-adv-x="480" 
d="M240 760q91 0 142 -56.5t51 -157.5v-342q0 -105 -49.5 -159.5t-143.5 -54.5q-95 0 -146 55.5t-51 158.5v342q0 104 50.5 159t146.5 55zM240 30q36 0 59.5 27t23.5 69v498q0 42 -23.5 69t-59.5 27q-35 0 -59 -27.5t-24 -68.5v-498q0 -43 23 -69.5t60 -26.5zM125 838
q0 18 18.5 31.5t43.5 13.5q23 0 42 -7.5t35 -15.5t30 -8q24 0 41 21l25 -14q-24 -56 -71 -56q-23 0 -38 6.5t-28 13t-30 6.5q-13 0 -22.5 -8t-12.5 -21q-33 10 -33 38z" />
    <glyph glyph-name="Odieresis" unicode="&#xd6;" horiz-adv-x="480" 
d="M240 760q91 0 142 -56.5t51 -157.5v-342q0 -105 -49.5 -159.5t-143.5 -54.5q-95 0 -146 55.5t-51 158.5v342q0 104 50.5 159t146.5 55zM240 30q36 0 59.5 27t23.5 69v498q0 42 -23.5 69t-59.5 27q-35 0 -59 -27.5t-24 -68.5v-498q0 -43 23 -69.5t60 -26.5z
M203.586 608.996q0 -20.3574 -14.1768 -33.8086q-14.1777 -13.4502 -33.8076 -12.7227q-20.3574 0.726562 -34.5352 15.6309t-14.1777 37.4434q0 20.3574 14.1777 34.5352t33.8076 13.4502q21.085 -0.727539 34.8984 -15.9951t13.8135 -38.5332zM313.371 608.996
q0 -20.3574 -14.1777 -33.8086q-14.1777 -13.4502 -33.8076 -12.7227q-20.3574 0.726562 -34.5352 15.6309q-14.1768 14.9043 -14.1768 37.4434q0 20.3574 14.1768 34.5352q14.1777 14.1777 33.8076 13.4502q21.085 -0.727539 34.8984 -15.9951
q13.8145 -15.2676 13.8145 -38.5332z" />
    <glyph glyph-name="Omacron" unicode="&#x14c;" horiz-adv-x="480" 
d="M240 760q91 0 142 -56.5t51 -157.5v-342q0 -105 -49.5 -159.5t-143.5 -54.5q-95 0 -146 55.5t-51 158.5v342q0 104 50.5 159t146.5 55zM240 30q36 0 59.5 27t23.5 69v498q0 42 -23.5 69t-59.5 27q-35 0 -59 -27.5t-24 -68.5v-498q0 -43 23 -69.5t60 -26.5zM106 793v40
h268v-40h-268z" />
    <glyph glyph-name="Obreve" unicode="&#x14e;" horiz-adv-x="480" 
d="M240 760q91 0 142 -56.5t51 -157.5v-342q0 -105 -49.5 -159.5t-143.5 -54.5q-95 0 -146 55.5t-51 158.5v342q0 104 50.5 159t146.5 55zM240 30q36 0 59.5 27t23.5 69v498q0 42 -23.5 69t-59.5 27q-35 0 -59 -27.5t-24 -68.5v-498q0 -43 23 -69.5t60 -26.5zM303 869h42
q-11 -97 -111 -97q-97 0 -109 97h42q6 -25 24 -40t44 -15q57 0 68 55z" />
    <glyph glyph-name="Ohungarumlaut" unicode="&#x150;" horiz-adv-x="480" 
d="M240 760q91 0 142 -56.5t51 -157.5v-342q0 -105 -49.5 -159.5t-143.5 -54.5q-95 0 -146 55.5t-51 158.5v342q0 104 50.5 159t146.5 55zM240 30q36 0 59.5 27t23.5 69v498q0 42 -23.5 69t-59.5 27q-35 0 -59 -27.5t-24 -68.5v-498q0 -43 23 -69.5t60 -26.5zM209 910h81
l-111 -117h-46zM326 910h81l-111 -117h-46z" />
    <glyph glyph-name="Oslashacute" unicode="&#x1fe;" horiz-adv-x="480" 
d="M477 554l1 -54l-45 -26v-270q0 -105 -49.5 -159.5t-143.5 -54.5q-95 0 -146 55.5t-51 158.5v41l-41 -24l-1 54l42 25v246q0 104 50.5 159t146.5 55q91 0 142 -56.5t51 -157.5v-18zM157 624v-258l166 98v160q0 42 -23.5 69t-59.5 27q-35 0 -59 -27.5t-24 -68.5zM240 30
q36 0 59.5 27t23.5 69v283l-166 -97v-186q0 -43 23 -69.5t60 -26.5zM296 910h81l-111 -117h-46z" />
    <glyph glyph-name="Ocaron" unicode="&#x1d1;" horiz-adv-x="480" 
d="M240 760q91 0 142 -56.5t51 -157.5v-342q0 -105 -49.5 -159.5t-143.5 -54.5q-95 0 -146 55.5t-51 158.5v342q0 104 50.5 159t146.5 55zM240 30q36 0 59.5 27t23.5 69v498q0 42 -23.5 69t-59.5 27q-35 0 -59 -27.5t-24 -68.5v-498q0 -43 23 -69.5t60 -26.5zM302 911h44
l-95 -119h-20l-107 119h59l63 -69z" />
    <glyph glyph-name="Racute" unicode="&#x154;" horiz-adv-x="534" 
d="M26 37q32 0 46 10t14 33v590q0 23 -14 33t-46 10v37h250q188 0 188 -215q0 -73 -21.5 -118t-74.5 -76q48 -31 69 -76.5t21 -115.5v-13q0 -44 20 -71.5t53 -27.5h11v-37h-11q-97 0 -142.5 47.5t-45.5 147.5v28q0 44 -20.5 72t-52.5 28h-24v40h30q34 0 54.5 27t20.5 71v153
q0 44 -20 70t-55 26h-78v-630q0 -23 14 -33t46 -10v-37h-232v37zM250 910h81l-111 -117h-46z" />
    <glyph glyph-name="Rcaron" unicode="&#x158;" horiz-adv-x="534" 
d="M26 37q32 0 46 10t14 33v590q0 23 -14 33t-46 10v37h250q188 0 188 -215q0 -73 -21.5 -118t-74.5 -76q48 -31 69 -76.5t21 -115.5v-13q0 -44 20 -71.5t53 -27.5h11v-37h-11q-97 0 -142.5 47.5t-45.5 147.5v28q0 44 -20.5 72t-52.5 28h-24v40h30q34 0 54.5 27t20.5 71v153
q0 44 -20 70t-55 26h-78v-630q0 -23 14 -33t46 -10v-37h-232v37zM310 911h44l-95 -119h-20l-107 119h59l63 -69z" />
    <glyph glyph-name="germandbls" unicode="&#xdf;" horiz-adv-x="538" 
d="M30 37q32 0 46 10t14 33v493q0 90 46.5 138.5t133.5 48.5q72 0 116.5 -34.5t44.5 -91.5q0 -42 -14.5 -68t-34 -43.5t-34 -35t-14.5 -41.5q0 -19 14.5 -38.5t57.5 -57.5l37 -32q43 -37 61 -72.5t18 -82.5q0 -75 -38 -121.5t-98 -46.5q-41 0 -60 9.5t-31 9.5q-17 0 -25 -14
h-27v164l27 1q12 -78 41 -107q15 -15 26 -20t28 -5q26 0 43.5 22t17.5 53q0 37 -13.5 62.5t-50.5 59.5l-31 28q-32 29 -49.5 51.5t-24.5 46t-7 55.5q0 31 8.5 51t21 35t25.5 31.5t21.5 39.5t8.5 60q0 42 -17 65t-48 23q-30 0 -49 -25t-19 -64v-627h-172v37z" />
    <glyph glyph-name="Sacute" unicode="&#x15a;" horiz-adv-x="417" 
d="M210 720q-34 0 -59.5 -25.5t-25.5 -60.5q0 -28 13.5 -55.5t44.5 -62.5l101 -118q43 -50 66.5 -86.5t33 -70t9.5 -74.5q0 -49 -25 -89t-67 -64t-93 -24q-37 0 -60 7t-36.5 14t-23.5 7t-19 -5.5t-11 -12.5h-35v212h34q14 -80 50 -125.5t84 -45.5q42 0 66.5 28t24.5 76
q0 39 -19 78.5t-61 87.5l-84 97q-52 61 -73 103.5t-21 90.5q0 42 25 78t65.5 58t86.5 22q38 0 54 6t24 22h34l44 -181l-34 -9q-19 50 -35 76t-33.5 36t-44.5 10zM227 910h81l-111 -117h-46z" />
    <glyph glyph-name="Scaron" unicode="&#x160;" horiz-adv-x="417" 
d="M210 720q-34 0 -59.5 -25.5t-25.5 -60.5q0 -28 13.5 -55.5t44.5 -62.5l101 -118q43 -50 66.5 -86.5t33 -70t9.5 -74.5q0 -49 -25 -89t-67 -64t-93 -24q-37 0 -60 7t-36.5 14t-23.5 7t-19 -5.5t-11 -12.5h-35v212h34q14 -80 50 -125.5t84 -45.5q42 0 66.5 28t24.5 76
q0 39 -19 78.5t-61 87.5l-84 97q-52 61 -73 103.5t-21 90.5q0 42 25 78t65.5 58t86.5 22q38 0 54 6t24 22h34l44 -181l-34 -9q-19 50 -35 76t-33.5 36t-44.5 10zM259 911h44l-95 -119h-20l-107 119h59l63 -69z" />
    <glyph glyph-name="Scedilla" unicode="&#x15e;" horiz-adv-x="417" 
d="M210 720q-34 0 -59.5 -25.5t-25.5 -60.5q0 -28 13.5 -55.5t44.5 -62.5l101 -118q43 -50 66.5 -86.5t33 -70t9.5 -74.5q0 -49 -25 -89t-67 -64t-93 -24q-37 0 -60 7t-36.5 14t-23.5 7t-19 -5.5t-11 -12.5h-35v212h34q14 -80 50 -125.5t84 -45.5q42 0 66.5 28t24.5 76
q0 39 -19 78.5t-61 87.5l-84 97q-52 61 -73 103.5t-21 90.5q0 42 25 78t65.5 58t86.5 22q38 0 54 6t24 22h34l44 -181l-34 -9q-19 50 -35 76t-33.5 36t-44.5 10zM234 -107q0 19 -15 30.5t-40 11.5h-37v35l20 23l45 -1l-19 -21q44 0 69.5 -20t25.5 -58q0 -36 -22 -58.5
t-60 -22.5h-39v38h17q55 0 55 43z" />
    <glyph glyph-name="Scommaaccent" unicode="&#x218;" horiz-adv-x="417" 
d="M210 720q-34 0 -59.5 -25.5t-25.5 -60.5q0 -28 13.5 -55.5t44.5 -62.5l101 -118q43 -50 66.5 -86.5t33 -70t9.5 -74.5q0 -49 -25 -89t-67 -64t-93 -24q-37 0 -60 7t-36.5 14t-23.5 7t-19 -5.5t-11 -12.5h-35v212h34q14 -80 50 -125.5t84 -45.5q42 0 66.5 28t24.5 76
q0 39 -19 78.5t-61 87.5l-84 97q-52 61 -73 103.5t-21 90.5q0 42 25 78t65.5 58t86.5 22q38 0 54 6t24 22h34l44 -181l-34 -9q-19 50 -35 76t-33.5 36t-44.5 10zM187 -199l-13 25q16 6 22 15.5l6 9.5l-13.5 3t-27 14t-13.5 34t16.5 39.5t38.5 15.5q23 -1 39 -18.5t16 -43.5
q0 -32 -19.5 -57t-51.5 -37z" />
    <glyph glyph-name="Scircumflex" unicode="&#x15c;" horiz-adv-x="417" 
d="M137 803h-44l95 119h20l107 -119h-59l-63 69zM210 720q-34 0 -59.5 -25.5t-25.5 -60.5q0 -28 13.5 -55.5t44.5 -62.5l101 -118q43 -50 66.5 -86.5t33 -70t9.5 -74.5q0 -49 -25 -89t-67 -64t-93 -24q-37 0 -60 7t-36.5 14t-23.5 7t-19 -5.5t-11 -12.5h-35v212h34
q14 -80 50 -125.5t84 -45.5q42 0 66.5 28t24.5 76q0 39 -19 78.5t-61 87.5l-84 97q-52 61 -73 103.5t-21 90.5q0 42 25 78t65.5 58t86.5 22q38 0 54 6t24 22h34l44 -181l-34 -9q-19 50 -35 76t-33.5 36t-44.5 10z" />
    <glyph glyph-name="Tcaron" unicode="&#x164;" horiz-adv-x="520" 
d="M141 37q32 0 46 10t14 33v633h-13q-40 0 -65.5 -12t-43 -43.5t-34.5 -90.5l-37 9l44 211h34q4 -22 13.5 -29.5t32.5 -7.5h256q23 0 33 8t13 29h34l44 -211l-37 -9q-17 59 -34.5 90.5t-42.5 43.5t-66 12h-19v-633q0 -23 14 -33t46 -10v-37h-232v37zM320 911h44l-95 -119
h-20l-107 119h59l63 -69z" />
    <glyph glyph-name="Tcommaaccent" unicode="&#x21a;" horiz-adv-x="520" 
d="M141 37q32 0 46 10t14 33v633h-13q-40 0 -65.5 -12t-43 -43.5t-34.5 -90.5l-37 9l44 211h34q4 -22 13.5 -29.5t32.5 -7.5h256q23 0 33 8t13 29h34l44 -211l-37 -9q-17 59 -34.5 90.5t-42.5 43.5t-66 12h-19v-633q0 -23 14 -33t46 -10v-37h-232v37zM249 -199l-13 25
q16 6 22 15.5l6 9.5l-13.5 3t-27 14t-13.5 34t16.5 39.5t38.5 15.5q23 -1 39 -18.5t16 -43.5q0 -32 -19.5 -57t-51.5 -37z" />
    <glyph glyph-name="Ugrave" unicode="&#xd9;" horiz-adv-x="507" 
d="M10 713v37h232v-37q-32 0 -46 -10t-14 -33v-514q0 -55 28 -87t75 -32t76 41.5t29 110.5v481q0 23 -14 33t-46 10v37h167v-37q-32 0 -46 -10t-14 -33v-466q0 -214 -169 -214q-95 0 -146.5 55.5t-51.5 158.5v466q0 23 -14 33t-46 10zM216 910l76 -117h-46l-111 117h81z" />
    <glyph glyph-name="Uacute" unicode="&#xda;" horiz-adv-x="507" 
d="M10 713v37h232v-37q-32 0 -46 -10t-14 -33v-514q0 -55 28 -87t75 -32t76 41.5t29 110.5v481q0 23 -14 33t-46 10v37h167v-37q-32 0 -46 -10t-14 -33v-466q0 -214 -169 -214q-95 0 -146.5 55.5t-51.5 158.5v466q0 23 -14 33t-46 10zM277 910h81l-111 -117h-46z" />
    <glyph glyph-name="Ucircumflex" unicode="&#xdb;" horiz-adv-x="507" 
d="M10 713v37h232v-37q-32 0 -46 -10t-14 -33v-514q0 -55 28 -87t75 -32t76 41.5t29 110.5v481q0 23 -14 33t-46 10v37h167v-37q-32 0 -46 -10t-14 -33v-466q0 -214 -169 -214q-95 0 -146.5 55.5t-51.5 158.5v466q0 23 -14 33t-46 10zM197 782h-44l95 119h20l107 -119h-59
l-63 69z" />
    <glyph glyph-name="Utilde" unicode="&#x168;" horiz-adv-x="507" 
d="M10 713v37h232v-37q-32 0 -46 -10t-14 -33v-514q0 -55 28 -87t75 -32t76 41.5t29 110.5v481q0 23 -14 33t-46 10v37h167v-37q-32 0 -46 -10t-14 -33v-466q0 -214 -169 -214q-95 0 -146.5 55.5t-51.5 158.5v466q0 23 -14 33t-46 10zM156 828q0 18 18.5 31.5t43.5 13.5
q23 0 42 -7.5t35 -15.5t30 -8q24 0 41 21l25 -14q-24 -56 -71 -56q-23 0 -38 6.5t-28 13t-30 6.5q-13 0 -22.5 -8t-12.5 -21q-33 10 -33 38z" />
    <glyph glyph-name="Udieresis" unicode="&#xdc;" horiz-adv-x="507" 
d="M10 713v37h232v-37q-32 0 -46 -10t-14 -33v-514q0 -55 28 -87t75 -32t76 41.5t29 110.5v481q0 23 -14 33t-46 10v37h167v-37q-32 0 -46 -10t-14 -33v-466q0 -214 -169 -214q-95 0 -146.5 55.5t-51.5 158.5v466q0 23 -14 33t-46 10zM234.586 609.996
q0 -20.3574 -14.1768 -33.8086q-14.1777 -13.4502 -33.8076 -12.7227q-20.3574 0.726562 -34.5352 15.6309t-14.1777 37.4434q0 20.3574 14.1777 34.5352t33.8076 13.4502q21.085 -0.727539 34.8984 -15.9951t13.8135 -38.5332zM344.371 609.996
q0 -20.3574 -14.1777 -33.8086q-14.1777 -13.4502 -33.8076 -12.7227q-20.3574 0.726562 -34.5352 15.6309q-14.1768 14.9043 -14.1768 37.4434q0 20.3574 14.1768 34.5352q14.1777 14.1777 33.8076 13.4502q21.085 -0.727539 34.8984 -15.9951
q13.8145 -15.2676 13.8145 -38.5332z" />
    <glyph glyph-name="Umacron" unicode="&#x16a;" horiz-adv-x="507" 
d="M10 713v37h232v-37q-32 0 -46 -10t-14 -33v-514q0 -55 28 -87t75 -32t76 41.5t29 110.5v481q0 23 -14 33t-46 10v37h167v-37q-32 0 -46 -10t-14 -33v-466q0 -214 -169 -214q-95 0 -146.5 55.5t-51.5 158.5v466q0 23 -14 33t-46 10zM139 793v40h268v-40h-268z" />
    <glyph glyph-name="Ubreve" unicode="&#x16c;" horiz-adv-x="507" 
d="M10 713v37h232v-37q-32 0 -46 -10t-14 -33v-514q0 -55 28 -87t75 -32t76 41.5t29 110.5v481q0 23 -14 33t-46 10v37h167v-37q-32 0 -46 -10t-14 -33v-466q0 -214 -169 -214q-95 0 -146.5 55.5t-51.5 158.5v466q0 23 -14 33t-46 10zM343 869h42q-11 -97 -111 -97
q-97 0 -109 97h42q6 -25 24 -40t44 -15q57 0 68 55z" />
    <glyph glyph-name="Uring" unicode="&#x16e;" horiz-adv-x="507" 
d="M10 713v37h232v-37q-32 0 -46 -10t-14 -33v-514q0 -55 28 -87t75 -32t76 41.5t29 110.5v481q0 23 -14 33t-46 10v37h167v-37q-32 0 -46 -10t-14 -33v-466q0 -214 -169 -214q-95 0 -146.5 55.5t-51.5 158.5v466q0 23 -14 33t-46 10zM356 871q0 -73 -79 -73q-80 0 -80 73
t80 73q38 0 58.5 -19t20.5 -54zM235 871q0 -21 12 -34.5t30 -13.5t30 13.5t12 34.5q0 22 -11.5 36t-30.5 14q-18 0 -30 -14.5t-12 -35.5z" />
    <glyph glyph-name="Uhungarumlaut" unicode="&#x170;" horiz-adv-x="507" 
d="M10 713v37h232v-37q-32 0 -46 -10t-14 -33v-514q0 -55 28 -87t75 -32t76 41.5t29 110.5v481q0 23 -14 33t-46 10v37h167v-37q-32 0 -46 -10t-14 -33v-466q0 -214 -169 -214q-95 0 -146.5 55.5t-51.5 158.5v466q0 23 -14 33t-46 10zM237 910h81l-111 -117h-46zM354 910h81
l-111 -117h-46z" />
    <glyph glyph-name="Ucaron" unicode="&#x1d3;" horiz-adv-x="507" 
d="M10 713v37h232v-37q-32 0 -46 -10t-14 -33v-514q0 -55 28 -87t75 -32t76 41.5t29 110.5v481q0 23 -14 33t-46 10v37h167v-37q-32 0 -46 -10t-14 -33v-466q0 -214 -169 -214q-95 0 -146.5 55.5t-51.5 158.5v466q0 23 -14 33t-46 10zM331 911h44l-95 -119h-20l-107 119h59
l63 -69z" />
    <glyph glyph-name="Wgrave" unicode="&#x1e80;" horiz-adv-x="800" 
d="M488 655l95 -478l110 493q10 44 -60 44v36h169v-36q-28 0 -42.5 -10.5t-19.5 -33.5l-152 -682h-45l-143 618l-128 -618h-44l-170 682q-6 23 -20 33t-40 10v37h235v-35q-31 0 -47.5 -11t-12.5 -31l92 -485l101 467q13 58 -52 58v37h228v-37q-37 0 -49 -13t-5 -45zM380 910
l76 -117h-46l-111 117h81z" />
    <glyph glyph-name="Wacute" unicode="&#x1e82;" horiz-adv-x="800" 
d="M488 655l95 -478l110 493q10 44 -60 44v36h169v-36q-28 0 -42.5 -10.5t-19.5 -33.5l-152 -682h-45l-143 618l-128 -618h-44l-170 682q-6 23 -20 33t-40 10v37h235v-35q-31 0 -47.5 -11t-12.5 -31l92 -485l101 467q13 58 -52 58v37h228v-37q-37 0 -49 -13t-5 -45zM458 910
h81l-111 -117h-46z" />
    <glyph glyph-name="Wcircumflex" unicode="&#x174;" horiz-adv-x="800" 
d="M488 655l95 -478l110 493q10 44 -60 44v36h169v-36q-28 0 -42.5 -10.5t-19.5 -33.5l-152 -682h-45l-143 618l-128 -618h-44l-170 682q-6 23 -20 33t-40 10v37h235v-35q-31 0 -47.5 -11t-12.5 -31l92 -485l101 467q13 58 -52 58v37h228v-37q-37 0 -49 -13t-5 -45zM362 782
h-44l95 119h20l107 -119h-59l-63 69z" />
    <glyph glyph-name="Wdieresis" unicode="&#x1e84;" horiz-adv-x="800" 
d="M488 655l95 -478l110 493q10 44 -60 44v36h169v-36q-28 0 -42.5 -10.5t-19.5 -33.5l-152 -682h-45l-143 618l-128 -618h-44l-170 682q-6 23 -20 33t-40 10v37h235v-35q-31 0 -47.5 -11t-12.5 -31l92 -485l101 467q13 58 -52 58v37h228v-37q-37 0 -49 -13t-5 -45z
M391.586 619.996q0 -20.3574 -14.1768 -33.8086q-14.1777 -13.4502 -33.8076 -12.7227q-20.3574 0.726562 -34.5352 15.6309t-14.1777 37.4434q0 20.3574 14.1777 34.5352t33.8076 13.4502q21.085 -0.727539 34.8984 -15.9951t13.8135 -38.5332zM501.371 619.996
q0 -20.3574 -14.1777 -33.8086q-14.1777 -13.4502 -33.8076 -12.7227q-20.3574 0.726562 -34.5352 15.6309q-14.1768 14.9043 -14.1768 37.4434q0 20.3574 14.1768 34.5352q14.1777 14.1777 33.8076 13.4502q21.085 -0.727539 34.8984 -15.9951
q13.8145 -15.2676 13.8145 -38.5332z" />
    <glyph glyph-name="Ygrave" unicode="&#x1ef2;" horiz-adv-x="484" 
d="M136 37q53 0 59 31v240l-137 362q-10 25 -22.5 34t-37.5 9v37h235v-37q-34 0 -50.5 -11.5t-9.5 -30.5l105 -296l98 294q7 20 -9 32t-51 12v37h170v-37q-27 0 -40 -9t-22 -35l-117 -345v-244h1q0 -23 14 -33t46 -10v-37h-232v37zM203 910l76 -117h-46l-111 117h81z" />
    <glyph glyph-name="Yacute" unicode="&#xdd;" horiz-adv-x="484" 
d="M136 37q53 0 59 31v240l-137 362q-10 25 -22.5 34t-37.5 9v37h235v-37q-34 0 -50.5 -11.5t-9.5 -30.5l105 -296l98 294q7 20 -9 32t-51 12v37h170v-37q-27 0 -40 -9t-22 -35l-117 -345v-244h1q0 -23 14 -33t46 -10v-37h-232v37zM296 910h81l-111 -117h-46z" />
    <glyph glyph-name="Ycircumflex" unicode="&#x176;" horiz-adv-x="484" 
d="M136 37q53 0 59 31v240l-137 362q-10 25 -22.5 34t-37.5 9v37h235v-37q-34 0 -50.5 -11.5t-9.5 -30.5l105 -296l98 294q7 20 -9 32t-51 12v37h170v-37q-27 0 -40 -9t-22 -35l-117 -345v-244h1q0 -23 14 -33t46 -10v-37h-232v37zM186 782h-44l95 119h20l107 -119h-59
l-63 69z" />
    <glyph glyph-name="Ydieresis" unicode="&#x178;" horiz-adv-x="484" 
d="M136 37q53 0 59 31v240l-137 362q-10 25 -22.5 34t-37.5 9v37h235v-37q-34 0 -50.5 -11.5t-9.5 -30.5l105 -296l98 294q7 20 -9 32t-51 12v37h170v-37q-27 0 -40 -9t-22 -35l-117 -345v-244h1q0 -23 14 -33t46 -10v-37h-232v37zM224.586 609.996
q0 -20.3574 -14.1768 -33.8086q-14.1777 -13.4502 -33.8076 -12.7227q-20.3574 0.726562 -34.5352 15.6309t-14.1777 37.4434q0 20.3574 14.1777 34.5352t33.8076 13.4502q21.085 -0.727539 34.8984 -15.9951t13.8135 -38.5332zM334.371 609.996
q0 -20.3574 -14.1777 -33.8086q-14.1777 -13.4502 -33.8076 -12.7227q-20.3574 0.726562 -34.5352 15.6309q-14.1768 14.9043 -14.1768 37.4434q0 20.3574 14.1768 34.5352q14.1777 14.1777 33.8076 13.4502q21.085 -0.727539 34.8984 -15.9951
q13.8145 -15.2676 13.8145 -38.5332z" />
    <glyph glyph-name="Zacute" unicode="&#x179;" horiz-adv-x="435" 
d="M254 40q45 0 69.5 10t36.5 38t18 83h35v-202h-37q-4 17 -19.5 24t-49.5 7h-283v40l247 670h-63q-45 0 -70.5 -8t-42 -32t-33.5 -72l-34 9l44 181h34q3 -21 13.5 -29.5t32.5 -8.5h241v-40l-245 -670h106zM258 910h81l-111 -117h-46z" />
    <glyph glyph-name="Zcaron" unicode="&#x17d;" horiz-adv-x="435" 
d="M254 40q45 0 69.5 10t36.5 38t18 83h35v-202h-37q-4 17 -19.5 24t-49.5 7h-283v40l247 670h-63q-45 0 -70.5 -8t-42 -32t-33.5 -72l-34 9l44 181h34q3 -21 13.5 -29.5t32.5 -8.5h241v-40l-245 -670h106zM290 911h44l-95 -119h-20l-107 119h59l63 -69z" />
    <glyph glyph-name="Zdotaccent" unicode="&#x17b;" horiz-adv-x="431" 
d="M254 40q45 0 69.5 10t36.5 38t18 83h35v-202h-37q-4 17 -19.5 24t-49.5 7h-283v40l247 670h-63q-45 0 -70.5 -8t-42 -32t-33.5 -72l-34 9l44 181h34q3 -21 13.5 -29.5t32.5 -8.5h241v-40l-245 -670h106zM261.586 639.078q0 -20.3574 -14.1768 -33.8086
q-14.1777 -13.4502 -33.8076 -12.7227q-20.3574 0.726562 -34.5352 15.6309t-14.1777 37.4434q0 20.3574 14.1777 34.5352t33.8076 13.4502q21.085 -0.727539 34.8984 -15.9951t13.8135 -38.5332z" />
    <glyph glyph-name="Zcircumflex" unicode="&#x1e90;" horiz-adv-x="435" 
d="M254 40q45 0 69.5 10t36.5 38t18 83h35v-202h-37q-4 17 -19.5 24t-49.5 7h-283v40l247 670h-63q-45 0 -70.5 -8t-42 -32t-33.5 -72l-34 9l44 181h34q3 -21 13.5 -29.5t32.5 -8.5h241v-40l-245 -670h106zM177 782h-44l95 119h20l107 -119h-59l-63 69z" />
    <glyph glyph-name="D_E" horiz-adv-x="534" 
d="M24 37q32 0 46 10t14 33v590q0 23 -14 33t-46 10v37h278q185 0 185 -214v-322q0 -214 -185 -214h-278v37zM215 355h-19v-315h106q34 0 54.5 26.5t20.5 69.5v478q0 44 -20.5 70t-54.5 26h-106v-315h19q69 0 69 72h37v-184h-37q0 38 -16.5 55t-52.5 17z" />
    <glyph glyph-name="E_A" horiz-adv-x="853" 
d="M30 37q32 0 46 10t14 33v590q0 23 -14 33t-46 10v37h295q23 0 33 8.5t13 29.5h34l44 -181l-34 -9q-17 48 -33.5 72t-42 32t-70.5 8h-67v-295h26q69 0 69 72h37v-184h-37q0 38 -16.5 55t-52.5 17h-26v-335h172q29 0 43.5 10t19.5 34l150 680h48l155 -685q5 -25 17.5 -33.5
t42.5 -8.5v-37h-232v37q36 0 50.5 9.5t9.5 31.5l-21 101h-154l-46 -210h-37q-4 17 -19.5 24t-49.5 7h-321v37zM512 219h136l-66 319z" />
    <glyph glyph-name="E_a" horiz-adv-x="853" 
d="M33 37q48 0 57 24v609q0 23 -14 33t-46 10v37h295q23 0 33 8.5t13 29.5h34l44 -181l-34 -9q-17 48 -33.5 72t-42 32t-70.5 8h-67v-295h26q69 0 69 72h37v-184h-37q0 38 -16.5 55t-52.5 17h-26v-336h119q36 0 59 3.5t38.5 16t28 40t27.5 74.5l121 371h48l156 -465
q9 -26 20 -34t42 -8v-37h-230v37q74 0 61 41l-21 67h-160l-54 -166h-34q-4 12 -19 16.5t-50 4.5h-321v37zM524 183h135l-66 210z" />
    <glyph glyph-name="L_A" horiz-adv-x="833" 
d="M30 37q32 0 46 10t14 33v590q0 23 -14 33t-46 10v37h232v-37q-32 0 -46 -10t-14 -33v-630h152q29 0 43.5 10t19.5 34l150 680h48l155 -685q5 -25 17.5 -33.5t42.5 -8.5v-37h-232v37q36 0 50.5 9.5t9.5 31.5l-21 101h-154l-18 -82l-28 -128h-37q-4 17 -19.5 24t-49.5 7
h-301v37zM492 219h136l-66 319z" />
    <glyph glyph-name="L_a" horiz-adv-x="835" 
d="M30 37q32 0 46 10t14 33v590q0 23 -14 33t-46 10v37h232v-37q-32 0 -46 -10t-14 -33v-630h152q29 0 43.5 10t19.5 34l149 460h48l156 -465q9 -26 20 -34t42 -8v-37h-230v37q74 0 61 41l-21 67h-157l-53 -176h-32q-4 17 -19.5 24t-49.5 7h-301v37zM496 183h134l-68 216z
" />
    <glyph glyph-name="T_E" horiz-adv-x="948" 
d="M141 37q32 0 46 10t14 33v633h-13q-40 0 -65.5 -12t-43 -43.5t-34.5 -90.5l-37 9l44 211h34q4 -22 13.5 -29.5t32.5 -7.5h237q23 0 32.5 7.5t13.5 29.5h36q5 -22 14.5 -29.5t31.5 -7.5h293q23 0 33 8.5t13 29.5l34 1l44 -181l-34 -10q-17 48 -33.5 72.5t-42 33.5t-70.5 9
h-67v-298h26q69 0 69 72h37v-184h-37q0 38 -16.5 55t-52.5 17h-26v-335h108q45 0 69.5 10t36.5 38t18 83h35v-202h-37q-4 17 -19.5 24t-49.5 7h-333v37q32 0 46 10t14 33v593q0 23 -11.5 31.5t-34.5 8.5h-196v-633q0 -23 14 -33t46 -10v-37h-232v37z" />
    <glyph glyph-name="a" unicode="a" horiz-adv-x="462" 
d="M99 81q-7 -20 9.5 -32t50.5 -12v-37h-167v37q27 0 41 10t21 34l150 463h48l156 -465q9 -26 20 -34t42 -8v-37h-230v37q74 0 61 41l-21 67h-160zM133 183h135l-66 210z" />
    <glyph glyph-name="b" unicode="b" horiz-adv-x="472" 
d="M24 37q32 0 46 10t14 33v380q0 23 -14 33t-46 10v37h221q83 0 130.5 -35.5t47.5 -98.5q0 -47 -14 -73.5t-53 -49.5q50 -18 73 -51t23 -85q0 -75 -44.5 -111t-137.5 -36h-246v37zM246 501h-54v-462h78q33 0 53 21t20 56v61q0 37 -19.5 58.5t-53.5 21.5h-38v37h14
q38 0 55.5 21.5t17.5 67.5v41q0 36 -19.5 56.5t-53.5 20.5z" />
    <glyph glyph-name="c" unicode="c" horiz-adv-x="414" 
d="M238 550q36 0 52 -3t23 13h34l41 -161l-34 -9q-18 47 -34 73t-35.5 36.5t-47.5 10.5q-37 0 -62 -30.5t-25 -75.5v-273q0 -46 26.5 -75t69.5 -29q46 0 74.5 44t28.5 113v16h41v-1q0 -109 -40.5 -161.5t-124.5 -52.5q-86 0 -135.5 57t-49.5 157v137q0 214 198 214z" />
    <glyph glyph-name="d" unicode="d" horiz-adv-x="479" 
d="M24 37q32 0 46 10t14 33v380q0 23 -14 33t-46 10v37h238q95 0 140 -52t45 -162v-112q0 -214 -185 -214h-238v37zM262 501h-66v-462h66q34 0 54.5 26.5t20.5 70.5v268q0 44 -20.5 70.5t-54.5 26.5z" />
    <glyph glyph-name="e" unicode="e" horiz-adv-x="469" 
d="M24 37q32 0 46 10t14 33v380q0 23 -14 33t-46 10v37h296q26 0 37 4.5t12 14.5h33l41 -162l-33 -9q-18 48 -34.5 72.5t-42 32.5t-69.5 8h-71v-215h72q39 0 39 52h32v-152h-32q0 61 -39 61h-72v-208h104q45 0 69.5 10t36 38.5t17.5 83.5h33v-192h-34q-4 12 -19 16.5
t-50 4.5h-326v37z" />
    <glyph glyph-name="f" unicode="f" horiz-adv-x="457" 
d="M24 37q32 0 46 10t14 33v380q0 23 -14 33t-46 10v37h296q26 0 37 4.5t12 14.5h33l41 -162l-33 -9q-18 48 -34.5 72.5t-42 32.5t-69.5 8h-70v-234h71q39 0 39 52h32v-152h-32q0 61 -39 61h-71v-148q0 -23 14 -33t46 -10v-37h-230v37z" />
    <glyph glyph-name="g" unicode="g" horiz-adv-x="448" 
d="M249 550q36 0 52 -3t23 13h34l41 -161l-34 -9q-18 47 -34 73t-35.5 36.5t-47.5 10.5q-40 0 -69 -31t-29 -75v-278q0 -43 20.5 -70t54.5 -27q35 0 55.5 26.5t20.5 70.5v77q0 53 -71 53v33h198v-33q-30 0 -30 -35v-221h-23l-28 37q-46 -47 -123 -47q-184 0 -184 214v132
q0 100 56 157t153 57z" />
    <glyph glyph-name="h" unicode="h" horiz-adv-x="539" 
d="M24 37q32 0 46 10t14 33v380q0 23 -14 33t-46 10v37h230v-37q-32 0 -46 -10t-14 -33v-165h159v165q0 24 -13 33.5t-47 9.5v37h222v-37q-34 0 -47 -9.5t-13 -33.5v-380q0 -24 13 -33.5t47 -9.5v-37h-222v37q34 0 47 9.5t13 33.5v176h-159v-176q0 -23 14 -33t46 -10v-37
h-230v37z" />
    <glyph glyph-name="i" unicode="i" horiz-adv-x="278" 
d="M24 37q32 0 46 10t14 33v380q0 23 -14 33t-46 10v37h230v-37q-32 0 -46 -10t-14 -33v-380q0 -23 14 -33t46 -10v-37h-230v37z" />
    <glyph glyph-name="dotlessi" unicode="&#x131;" horiz-adv-x="277" 
d="M84 77v386q0 26 -12.5 34.5t-47.5 8.5v34h229v-34q-30 0 -43 -6t-16 -23v-414q3 -17 16 -23t43 -6v-34h-229v34q35 0 47.5 9t12.5 34z" />
    <glyph glyph-name="j" unicode="j" horiz-adv-x="437" 
d="M183 503v37h230v-37q-32 0 -46 -10t-14 -33v-236q0 -115 -45.5 -174.5t-133.5 -59.5q-45 0 -80.5 18t-56.5 49t-21 70q0 33 20.5 56t51.5 24q30 1 50 -19t20 -51q0 -23 -10.5 -36t-24.5 -19.5t-24.5 -8.5l-10.5 -2l6 -10.5t22 -21t47 -10.5q38 0 59 38.5t21 108.5v284
q0 23 -14 33t-46 10z" />
    <glyph glyph-name="j.alt_1" horiz-adv-x="285" 
d="M5 -118h-37v39h25q98 0 98 145v394q0 23 -14 33t-46 10v37h230v-37q-32 0 -46 -10t-14 -33v-346q0 -114 -49.5 -173t-146.5 -59z" />
    <glyph glyph-name="k" unicode="k" horiz-adv-x="482" 
d="M494 34v-34h-19q-76 0 -110.5 34.5t-34.5 108.5q0 47 -21.5 81t-50.5 34h-24v37l109 175q10 16 -3.5 26t-43.5 10v34h167v-34q-28 0 -43.5 -9t-31.5 -35l-105 -168q67 -5 108 -46t41 -104q0 -46 12.5 -78t30.5 -32h19zM24 37q32 0 46 10t14 33v380q0 23 -14 33t-46 10v37
h230v-37q-32 0 -46 -10t-14 -33v-380q0 -23 14 -33t46 -10v-37h-230v37z" />
    <glyph glyph-name="k.alt_1" horiz-adv-x="495" 
d="M443 80q11 -24 25 -33.5t39 -9.5v-37h-210v37q26 0 35 11.5t0 31.5l-97 216l109 171q9 14 -5 25t-42 11v37h167v-37q-28 0 -43 -9t-32 -35l-103 -164h62zM24 37q32 0 46 10t14 33v380q0 23 -14 33t-46 10v37h230v-37q-32 0 -46 -10t-14 -33v-380q0 -23 14 -33t46 -10v-37
h-230v37z" />
    <glyph glyph-name="l" unicode="l" horiz-adv-x="429" 
d="M24 37q32 0 46 10t14 33v380q0 23 -14 33t-46 10v37h230v-37q-32 0 -46 -10t-14 -33v-421h63q45 0 69 10.5t36 39.5t18 84h33v-194h-34q-4 12 -19 16.5t-50 4.5h-286v37z" />
    <glyph glyph-name="m" unicode="m" horiz-adv-x="631" 
d="M84 80v380q0 23 -14 33t-46 10v37h177l121 -366l103 366h182v-34q-34 0 -47 -9.5t-13 -33.5v-383q0 -24 13 -33.5t47 -9.5v-37h-222v37q34 0 47 9.5t13 33.5v377l-126 -457h-41l-150 458v-378q0 -24 13 -33.5t47 -9.5v-37h-164v37q34 0 47 9.5t13 33.5z" />
    <glyph glyph-name="n" unicode="n" horiz-adv-x="531" 
d="M84 80v380q0 23 -14 33t-46 10v37h168l215 -346v266q0 24 -13 33.5t-47 9.5v37h164v-37q-34 0 -47 -9.5t-13 -33.5v-460h-45l-278 450v-370q0 -24 13 -33.5t47 -9.5v-37h-164v37q34 0 47 9.5t13 33.5z" />
    <glyph glyph-name="o" unicode="o" horiz-adv-x="466" 
d="M234 555q92 0 142 -56t50 -158v-142q0 -214 -192 -214q-94 0 -144 55t-50 159v142q0 106 49.5 160t144.5 54zM234 24q36 0 59 26.5t23 68.5v301q0 42 -23 69t-59 27q-35 0 -58.5 -27.5t-23.5 -68.5v-301q0 -43 22.5 -69t59.5 -26z" />
    <glyph glyph-name="p" unicode="p" horiz-adv-x="456" 
d="M24 37q32 0 46 10t14 33v380q0 23 -14 33t-46 10v37h236q91 0 134.5 -42.5t43.5 -130.5q0 -86 -43.5 -127.5t-134.5 -41.5h-26v37h26q33 0 53 27t20 71v71q0 44 -20 70.5t-53 26.5h-66v-421q0 -23 14 -33t46 -10v-37h-230v37z" />
    <glyph glyph-name="q" unicode="q" horiz-adv-x="468" 
d="M234 550q96 0 149 -56t53 -158v-132q0 -106 -51 -160q17 -7 37 -7h26v-37h-6q-62 0 -101 12q-44 -22 -107 -22q-94 0 -144 55t-50 159v132q0 106 49.5 160t144.5 54zM162 284q166 0 166 -143v274q0 43 -26 69.5t-68 26.5q-37 0 -60.5 -27t-23.5 -69v-131h12zM234 29
q29 0 52 14q-32 33 -32 102q0 46 -20 73t-53 27h-31v-121q0 -43 23 -69t61 -26z" />
    <glyph glyph-name="q.alt_1" horiz-adv-x="468" 
d="M40 204v132q0 106 49.5 160t144.5 54q96 0 149 -56t53 -158v-132q0 -69 -25.5 -117.5t-87.5 -81.5q59 -35 83.5 -82t23.5 -115q2 -43 22.5 -68.5t51.5 -25.5h22v-40h-1q-101 0 -145.5 45.5t-46.5 153.5v14q2 47 -21 73t-64 26q-100 0 -154 56.5t-54 161.5zM328 124v291
q0 43 -26 69.5t-68 26.5q-37 0 -60.5 -27t-23.5 -69v-291q0 -43 26 -70.5t62 -27.5q38 0 64 27.5t26 70.5z" />
    <glyph glyph-name="r" unicode="r" horiz-adv-x="484" 
d="M24 37q32 0 46 10t14 33v380q0 23 -14 33t-46 10v37h236q92 0 135 -42t43 -131q0 -43 -22 -74.5t-70 -55.5q84 -35 84 -125q0 -31 12.5 -53t30.5 -22h6v-37h-9q-73 0 -107.5 27t-34.5 85q0 43 -22 74.5t-51 31.5h-21v37h26q33 0 53 27t20 71v51q0 44 -20 70.5t-53 26.5
h-66v-421q0 -23 14 -33t46 -10v-37h-230v37z" />
    <glyph glyph-name="s" unicode="s" horiz-adv-x="432" 
d="M205 550q30 0 46.5 -3.5t25 -2.5t13.5 14h34l41 -161l-34 -9q-25 69 -50.5 95t-66.5 26q-31 0 -53.5 -21.5t-22.5 -52.5q0 -28 14 -46.5t50 -38.5l108 -59q43 -23 66.5 -62.5t23.5 -89.5q0 -41 -23.5 -75t-63 -54t-88.5 -20q-37 0 -60 7t-36.5 14t-23.5 7q-23 0 -30 -18
h-35v198h34q14 -79 49.5 -122t86.5 -43q23 0 43.5 13t33.5 33t13 42q0 53 -70 92l-88 49q-99 54 -99 140q0 39 23 73t60 54.5t79 20.5z" />
    <glyph glyph-name="t" unicode="t" horiz-adv-x="440" 
d="M104 37q32 0 46 10t14 33v421h-17q-32 0 -51 -10t-32.5 -39t-29.5 -87l-34 9l34 192h31q3 -26 46 -26h218q43 0 46 26h31l34 -192l-34 -9q-16 58 -29.5 87t-32.5 39t-51 10h-19v-421q0 -23 14 -33t46 -10v-37h-230v37z" />
    <glyph glyph-name="u" unicode="u" horiz-adv-x="488" 
d="M420 204q0 -214 -167 -214q-86 0 -135.5 57t-49.5 157v256q0 23 -14 33t-46 10v37h230v-37q-32 0 -46 -10t-14 -33v-324q0 -46 26.5 -75t69.5 -29q46 0 74.5 44t28.5 113v271q0 24 -13 33.5t-47 9.5v37h163v-37q-34 0 -47 -9.5t-13 -33.5v-256z" />
    <glyph glyph-name="v" unicode="v" horiz-adv-x="474" 
d="M369 462q7 20 -9 32t-51 12v34h167v-34q-26 0 -40 -10t-22 -34l-150 -476h-48l-156 478q-7 24 -20.5 33t-41.5 9v34h229v-34q-73 0 -61 -41l100 -328z" />
    <glyph glyph-name="w" unicode="w" horiz-adv-x="712" 
d="M610 465q6 20 -10 32t-50 12v31h164v-31q-26 0 -40 -10t-22 -34l-150 -479h-26l-119 391l-114 -391h-27l-156 481q-8 26 -20.5 34t-41.5 8v31h225v-31q-73 0 -61 -41l92 -304l82 289q7 25 -10 40.5t-47 15.5v31h209l1 -31q-74 0 -62 -41l89 -302z" />
    <glyph glyph-name="x" unicode="x" horiz-adv-x="458" 
d="M-8 506v34h232v-34q-77 0 -51 -45l69 -117l83 125q11 17 -2 27t-45 10v34h166v-34q-27 0 -41 -8.5t-32 -36.5l-104 -161l137 -234q19 -33 62 -33v-33h-232v33q27 0 44 13t9 27l-82 141l-82 -140q-11 -19 1 -30t43 -11v-33h-167v33q27 0 42.5 10t31.5 37l106 177l-125 214
q-11 20 -25 27.5t-38 7.5z" />
    <glyph glyph-name="y" unicode="y" horiz-adv-x="454" 
d="M121 37q32 0 46 10t14 33v108l-125 275q-12 26 -23.5 34.5t-36.5 8.5v34h230v-34q-31 0 -49 -12.5t-11 -29.5l95 -214l87 212q8 21 -7.5 32.5t-52.5 11.5v34h170v-34q-25 0 -38 -9t-24 -35l-105 -258v-124q0 -23 14 -33t46 -10v-37h-230v37z" />
    <glyph glyph-name="z" unicode="z" horiz-adv-x="396" 
d="M232 39q45 0 69 10.5t36 39.5t18 84h33v-194h-34q-4 12 -19 16.5t-50 4.5h-269v39l243 462h-58q-43 0 -68.5 -8t-42 -32.5t-35.5 -72.5l-33 9l41 162h33q2 -11 12 -15t37 -4h226v-39h-1l-240 -462h102z" />
    <glyph glyph-name="ae" unicode="&#xe6;" horiz-adv-x="668" 
d="M496 37q44 0 68.5 10.5t36.5 39.5t18 84h33v-192h-34q-4 12 -19 16.5t-50 4.5h-326v34q35 0 47.5 9t12.5 34v72h-153l-31 -71q-9 -20 8.5 -32t51.5 -12v-34h-167v34q27 0 39.5 10t22.5 34l201 462h264q26 0 36.5 4t12.5 15h33l41 -162l-33 -9q-19 50 -35.5 74t-41 32
t-69.5 8h-74v-217h73q39 0 39 52h34v-153h-34q0 61 -39 61h-73v-208h107zM146 185h137v310z" />
    <glyph glyph-name="oe" unicode="&#x153;" horiz-adv-x="721" 
d="M234 555q47 0 83 -15h235q26 0 37 4.5t12 14.5h33l41 -162l-33 -9q-18 48 -34.5 72.5t-42 32.5t-69.5 8h-71v-133q1 -13 1 -27v-55h71q39 0 39 52h32v-152h-32q0 61 -39 61h-71v-48q0 -15 -1 -29v-131h104q45 0 69.5 10t36 38.5t17.5 83.5h33v-192h-34q-4 12 -19 16.5
t-50 4.5h-261q-37 -15 -87 -15q-94 0 -144 55t-50 159v142q0 106 49.5 160t144.5 54zM234 24q36 0 59 26.5t23 68.5v301q0 42 -23 69t-59 27q-35 0 -58.5 -27.5t-23.5 -68.5v-301q0 -43 22.5 -69t59.5 -26z" />
    <glyph glyph-name="aogonek" unicode="&#x105;" horiz-adv-x="462" 
d="M99 81q-7 -20 9.5 -32t50.5 -12v-37h-167v37q27 0 41 10t21 34l150 463h48l156 -465q9 -26 20 -34t42 -8v-37h-230v37q74 0 61 41l-21 67h-160zM133 183h135l-66 210zM470 37v-38l-41 -11q-22 -6 -33.5 -23t-11.5 -35q0 -24 18.5 -39.5t46.5 -15.5h18v-46h-20
q-50 0 -81 29t-31 72q0 38 23.5 65.5t75.5 35.5z" />
    <glyph glyph-name="eogonek" unicode="&#x119;" horiz-adv-x="469" 
d="M24 37q32 0 46 10t14 33v380q0 23 -14 33t-46 10v37h296q26 0 37 4.5t12 14.5h33l41 -162l-33 -9q-18 48 -34.5 72.5t-42 32.5t-69.5 8h-71v-215h72q39 0 39 52h32v-152h-32q0 61 -39 61h-72v-208h104q45 0 69.5 10t36 38.5t17.5 83.5h33v-192h-34q-4 12 -19 16.5
t-50 4.5h-326v37zM419 17v-38l-41 -11q-22 -6 -33.5 -23t-11.5 -35q0 -24 18.5 -39.5t46.5 -15.5h18v-46h-20q-50 0 -81 29t-31 72q0 38 23.5 65.5t75.5 35.5z" />
    <glyph glyph-name="schwa" unicode="&#x259;" horiz-adv-x="430" 
d="M40 188v40h240v176q0 42 -26.5 70.5t-67.5 28.5q-47 0 -76 -41.5t-29 -110.5v-16h-41v1q0 110 40 162t125 52q87 0 136 -57t49 -157v-132q0 -100 -49 -157t-136 -57q-85 0 -125 48.5t-40 149.5zM280 136v52h-199q1 -69 29.5 -110t75.5 -41q41 0 67.5 28.5t26.5 70.5z" />
    <glyph glyph-name="iogonek" unicode="&#x12f;" horiz-adv-x="278" 
d="M24 37q32 0 46 10t14 33v380q0 23 -14 33t-46 10v37h230v-37q-32 0 -46 -10t-14 -33v-380q0 -23 14 -33t46 -10v-37h-230v37zM254 37v-38l-41 -11q-22 -6 -33.5 -23t-11.5 -35q0 -24 18.5 -39.5t46.5 -15.5h18v-46h-20q-50 0 -81 29t-31 72q0 38 23.5 65.5t75.5 35.5z
" />
    <glyph glyph-name="uogonek" unicode="&#x173;" horiz-adv-x="488" 
d="M420 204q0 -214 -167 -214q-86 0 -135.5 57t-49.5 157v256q0 23 -14 33t-46 10v37h230v-37q-32 0 -46 -10t-14 -33v-324q0 -46 26.5 -75t69.5 -29q46 0 74.5 44t28.5 113v271q0 24 -13 33.5t-47 9.5v37h163v-37q-34 0 -47 -9.5t-13 -33.5v-256zM315 37v-38l-41 -11
q-22 -6 -33.5 -23t-11.5 -35q0 -24 18.5 -39.5t46.5 -15.5h18v-46h-20q-50 0 -81 29t-31 72q0 38 23.5 65.5t75.5 35.5z" />
    <glyph glyph-name="dcroat" unicode="&#x111;" horiz-adv-x="489" 
d="M26 250v40h60v173q0 26 -12.5 34.5t-47.5 8.5v34h238q185 0 185 -214v-112q0 -214 -185 -214h-238v34q35 0 47.5 9t12.5 34v173h-60zM275 250h-77v-213h66q34 0 54.5 27t20.5 72v268q0 45 -20.5 72t-54.5 27h-66v-213h77v-40z" />
    <glyph glyph-name="eth" unicode="&#xf0;" horiz-adv-x="489" 
d="M26 250v40h60v173q0 26 -12.5 34.5t-47.5 8.5v34h238q185 0 185 -214v-112q0 -214 -185 -214h-238v34q35 0 47.5 9t12.5 34v173h-60zM275 250h-77v-213h66q34 0 54.5 27t20.5 72v268q0 45 -20.5 72t-54.5 27h-66v-213h77v-40z" />
    <glyph glyph-name="hbar" unicode="&#x127;" horiz-adv-x="562" 
d="M24 37q32 0 46 10t14 33v300h-48v40h48v40q0 23 -14 33t-46 10v37h230v-37q-32 0 -46 -10t-14 -33v-40h159v40q0 24 -13 33.5t-47 9.5v37h222v-37q-34 0 -47 -9.5t-13 -33.5v-40h72v-40h-72v-300q0 -24 13 -33.5t47 -9.5v-37h-222v37q34 0 47 9.5t13 33.5v176h-159v-176
q0 -23 14 -33t46 -10v-37h-230v37zM194 295h159v85h-159v-85z" />
    <glyph glyph-name="lslash" unicode="&#x142;" horiz-adv-x="461" 
d="M24 37q32 0 46 10t14 33v119l-57 -21v51l57 21v210q0 23 -14 33t-46 10v37h230v-37q-32 0 -46 -10t-14 -33v-169l161 59v-51l-161 -59v-201h63q45 0 69 10.5t36 39.5t18 84h33v-194h-34q-4 12 -19 16.5t-50 4.5h-286v37z" />
    <glyph glyph-name="eng" unicode="&#x14b;" horiz-adv-x="520" 
d="M81 74v389q0 26 -12.5 34.5t-47.5 8.5v34h156l228 -350v276q0 26 -12.5 34.5t-47.5 8.5v31h165v-31q-35 0 -47.5 -8.5t-12.5 -34.5v-466q0 -83 -37.5 -123t-117.5 -40h-1v37h1q32 0 51.5 21t26.5 55t-1.5 74.5t-32.5 79.5l-219 347l6 -99v-278q0 -25 12.5 -34t47.5 -9
v-31h-165v31q35 0 47.5 9t12.5 34z" />
    <glyph glyph-name="mu" unicode="&#x3bc;" horiz-adv-x="552" 
d="M32 -213q32 0 46 10t14 33v630q0 23 -14 33t-46 10v37h230v-37q-32 0 -46 -10t-14 -33v-304q0 -55 27 -87t74 -32q50 0 80 41.5t30 110.5v275q0 24 -12.5 33.5t-47.5 9.5v33h161v-34q-34 0 -46.5 -9.5t-12.5 -33.5v-386q0 -25 13 -34t48 -9v-34h-103v44q-42 -54 -127 -54
q-48 0 -84 15v-175q0 -23 14 -33t46 -10v-37h-230v37z" />
    <glyph glyph-name="oslash" unicode="&#xf8;" horiz-adv-x="469" 
d="M235 555q75 0 122 -37.5t63 -107.5l52 31l1 -54l-46 -27v-19v-142q0 -214 -192 -214q-161 0 -189 152l-49 -29l-1 54l45 26v11v142q0 106 49.5 160t144.5 54zM153 420v-166l164 96v70q0 42 -23 69t-59 27q-35 0 -58.5 -27.5t-23.5 -68.5zM235 24q36 0 59 26.5t23 68.5
v177l-164 -97v-80q0 -43 22.5 -69t59.5 -26z" />
    <glyph glyph-name="thorn" unicode="&#xfe;" horiz-adv-x="466" 
d="M96 80v380q0 26 -12.5 34.5t-47.5 8.5v37h230v-37q-35 0 -47.5 -8.5t-12.5 -31.5h40q188 0 188 -194q0 -192 -188 -192v36q34 0 54.5 27t20.5 71v117q0 44 -20.5 70t-54.5 26h-40v-344q0 -25 12.5 -34t47.5 -9v-37h-230v37q35 0 47.5 9t12.5 34z" />
    <glyph glyph-name="tbar" unicode="&#x167;" horiz-adv-x="444" 
d="M104 37q32 0 46 10t14 33v157h-96v39h96v225h-17q-32 0 -51 -10t-32.5 -39t-29.5 -87l-34 9l34 192h31q3 -26 46 -26h218q43 0 46 26h31l34 -192l-34 -9q-16 58 -29.5 87t-32.5 39t-51 10h-19v-225h103v-39h-103v-157q0 -23 14 -33t46 -10v-37h-230v37z" />
    <glyph glyph-name="agrave" unicode="&#xe0;" horiz-adv-x="462" 
d="M178 711l76 -117h-46l-111 117h81zM99 81q-7 -20 9.5 -32t50.5 -12v-37h-167v37q27 0 41 10t21 34l150 463h48l156 -465q9 -26 20 -34t42 -8v-37h-230v37q74 0 61 41l-21 67h-160zM133 183h135l-66 210z" />
    <glyph glyph-name="aacute" unicode="&#xe1;" horiz-adv-x="462" 
d="M99 81q-7 -20 9.5 -32t50.5 -12v-37h-167v37q27 0 41 10t21 34l150 463h48l156 -465q9 -26 20 -34t42 -8v-37h-230v37q74 0 61 41l-21 67h-160zM133 183h135l-66 210zM290 711h81l-111 -117h-46z" />
    <glyph glyph-name="acircumflex" unicode="&#xe2;" horiz-adv-x="462" 
d="M99 81q-7 -20 9.5 -32t50.5 -12v-37h-167v37q27 0 41 10t21 34l150 463h48l156 -465q9 -26 20 -34t42 -8v-37h-230v37q74 0 61 41l-21 67h-160zM133 183h135l-66 210zM167 595h-44l95 119h20l107 -119h-59l-63 69z" />
    <glyph glyph-name="atilde" unicode="&#xe3;" horiz-adv-x="462" 
d="M99 81q-7 -20 9.5 -32t50.5 -12v-37h-167v37q27 0 41 10t21 34l150 463h48l156 -465q9 -26 20 -34t42 -8v-37h-230v37q74 0 61 41l-21 67h-160zM133 183h135l-66 210zM123 629q0 18 18.5 31.5t43.5 13.5q23 0 42 -7.5t35 -15.5t30 -8q24 0 41 21l25 -14q-24 -56 -71 -56
q-23 0 -38 6.5t-28 13t-30 6.5q-13 0 -22.5 -8t-12.5 -21q-33 10 -33 38z" />
    <glyph glyph-name="adieresis" unicode="&#xe4;" horiz-adv-x="462" 
d="M99 81q-7 -20 9.5 -32t50.5 -12v-37h-167v37q27 0 41 10t21 34l150 463h48l156 -465q9 -26 20 -34t42 -8v-37h-230v37q74 0 61 41l-21 67h-160zM133 183h135l-66 210zM195.586 386.996q0 -20.3574 -14.1768 -33.8086q-14.1777 -13.4502 -33.8076 -12.7227
q-20.3574 0.726562 -34.5352 15.6309t-14.1777 37.4434q0 20.3574 14.1777 34.5352t33.8076 13.4502q21.085 -0.727539 34.8984 -15.9951t13.8135 -38.5332zM305.371 386.996q0 -20.3574 -14.1777 -33.8086q-14.1777 -13.4502 -33.8076 -12.7227
q-20.3574 0.726562 -34.5352 15.6309q-14.1768 14.9043 -14.1768 37.4434q0 20.3574 14.1768 34.5352q14.1777 14.1777 33.8076 13.4502q21.085 -0.727539 34.8984 -15.9951q13.8145 -15.2676 13.8145 -38.5332z" />
    <glyph glyph-name="amacron" unicode="&#x101;" horiz-adv-x="462" 
d="M99 81q-7 -20 9.5 -32t50.5 -12v-37h-167v37q27 0 41 10t21 34l150 463h48l156 -465q9 -26 20 -34t42 -8v-37h-230v37q74 0 61 41l-21 67h-160zM133 183h135l-66 210zM96 594v40h268v-40h-268z" />
    <glyph glyph-name="abreve" unicode="&#x103;" horiz-adv-x="462" 
d="M99 81q-7 -20 9.5 -32t50.5 -12v-37h-167v37q27 0 41 10t21 34l150 463h48l156 -465q9 -26 20 -34t42 -8v-37h-230v37q74 0 61 41l-21 67h-160zM133 183h135l-66 210zM304 691h42q-11 -97 -111 -97q-97 0 -109 97h42q6 -25 24 -40t44 -15q57 0 68 55z" />
    <glyph glyph-name="aring" unicode="&#xe5;" horiz-adv-x="462" 
d="M99 81q-7 -20 9.5 -32t50.5 -12v-37h-167v37q27 0 41 10t21 34l150 463h48l156 -465q9 -26 20 -34t42 -8v-37h-230v37q74 0 61 41l-21 67h-160zM133 183h135l-66 210zM305 667q0 -73 -79 -73q-80 0 -80 73t80 73q38 0 58.5 -19t20.5 -54zM184 667q0 -21 12 -34.5
t30 -13.5t30 13.5t12 34.5q0 22 -11.5 36t-30.5 14q-18 0 -30 -14.5t-12 -35.5z" />
    <glyph glyph-name="aringacute" unicode="&#x1fb;" horiz-adv-x="462" 
d="M99 81q-7 -20 9.5 -32t50.5 -12v-37h-167v37q27 0 41 10t21 34l150 463h48l156 -465q9 -26 20 -34t42 -8v-37h-230v37q74 0 61 41l-21 67h-160zM133 183h135l-66 210zM305 647q0 -73 -79 -73q-80 0 -80 73t80 73q38 0 58.5 -19t20.5 -54zM184 647q0 -21 12 -34.5
t30 -13.5t30 13.5t12 34.5q0 22 -11.5 36t-30.5 14q-18 0 -30 -14.5t-12 -35.5zM280 856h81l-111 -117h-46z" />
    <glyph glyph-name="acaron" unicode="&#x1ce;" horiz-adv-x="462" 
d="M99 81q-7 -20 9.5 -32t50.5 -12v-37h-167v37q27 0 41 10t21 34l150 463h48l156 -465q9 -26 20 -34t42 -8v-37h-230v37q74 0 61 41l-21 67h-160zM133 183h135l-66 210zM299 704h44l-95 -119h-20l-107 119h59l63 -69z" />
    <glyph glyph-name="alphatonos" unicode="&#x3ac;" horiz-adv-x="462" 
d="M99 81q-7 -20 9.5 -32t50.5 -12v-37h-167v37q27 0 41 10t21 34l150 463h48l156 -465q9 -26 20 -34t42 -8v-37h-230v37q74 0 61 41l-21 67h-160zM108 353h-59l63 190h59zM133 183h135l-66 210z" />
    <glyph glyph-name="aeacute" unicode="&#x1fd;" horiz-adv-x="668" 
d="M496 37q44 0 68.5 10.5t36.5 39.5t18 84h33v-192h-34q-4 12 -19 16.5t-50 4.5h-326v34q35 0 47.5 9t12.5 34v72h-153l-31 -71q-9 -20 8.5 -32t51.5 -12v-34h-167v34q27 0 39.5 10t22.5 34l201 462h264q26 0 36.5 4t12.5 15h33l41 -162l-33 -9q-19 50 -35.5 74t-41 32
t-69.5 8h-74v-217h73q39 0 39 52h34v-153h-34q0 61 -39 61h-73v-208h107zM146 185h137v310zM451 712h81l-111 -117h-46z" />
    <glyph glyph-name="cacute" unicode="&#x107;" horiz-adv-x="410" 
d="M238 550q36 0 52 -3t23 13h34l41 -161l-34 -9q-18 47 -34 73t-35.5 36.5t-47.5 10.5q-37 0 -62 -30.5t-25 -75.5v-273q0 -46 26.5 -75t69.5 -29q46 0 74.5 44t28.5 113v16h41v-1q0 -109 -40.5 -161.5t-124.5 -52.5q-86 0 -135.5 57t-49.5 157v137q0 214 198 214zM248 712
h81l-111 -117h-46z" />
    <glyph glyph-name="ccaron" unicode="&#x10d;" horiz-adv-x="410" 
d="M238 550q36 0 52 -3t23 13h34l41 -161l-34 -9q-18 47 -34 73t-35.5 36.5t-47.5 10.5q-37 0 -62 -30.5t-25 -75.5v-273q0 -46 26.5 -75t69.5 -29q46 0 74.5 44t28.5 113v16h41v-1q0 -109 -40.5 -161.5t-124.5 -52.5q-86 0 -135.5 57t-49.5 157v137q0 214 198 214zM280 704
h44l-95 -119h-20l-107 119h59l63 -69z" />
    <glyph glyph-name="cdotaccent" unicode="&#x10b;" horiz-adv-x="410" 
d="M238 550q36 0 52 -3t23 13h34l41 -161l-34 -9q-18 47 -34 73t-35.5 36.5t-47.5 10.5q-37 0 -62 -30.5t-25 -75.5v-273q0 -46 26.5 -75t69.5 -29q46 0 74.5 44t28.5 113v16h41v-1q0 -109 -40.5 -161.5t-124.5 -52.5q-86 0 -135.5 57t-49.5 157v137q0 214 198 214z
M257.586 416.078q0 -20.3574 -14.1768 -33.8086q-14.1777 -13.4502 -33.8076 -12.7227q-20.3574 0.726562 -34.5352 15.6309t-14.1777 37.4434q0 20.3574 14.1777 34.5352t33.8076 13.4502q21.085 -0.727539 34.8984 -15.9951t13.8135 -38.5332z" />
    <glyph glyph-name="ccedilla" unicode="&#xe7;" horiz-adv-x="414" 
d="M238 550q36 0 52 -3t23 13h34l41 -161l-34 -9q-18 47 -34 73t-35.5 36.5t-47.5 10.5q-37 0 -62 -30.5t-25 -75.5v-273q0 -46 26.5 -75t69.5 -29q46 0 74.5 44t28.5 113v16h41v-1q0 -109 -40.5 -161.5t-124.5 -52.5q-86 0 -135.5 57t-49.5 157v137q0 214 198 214z
M274 -110q0 19 -15 30.5t-40 11.5h-37v35l20 23l45 -1l-19 -21q44 0 69.5 -20t25.5 -58q0 -36 -22 -58.5t-60 -22.5h-39v38h17q55 0 55 43z" />
    <glyph glyph-name="dcaron" unicode="&#x10f;" horiz-adv-x="583" 
d="M508 339h-67v200l67 1v-201zM24 37q32 0 46 10t14 33v380q0 23 -14 33t-46 10v37h238q95 0 140 -52t45 -162v-112q0 -214 -185 -214h-238v37zM262 501h-66v-462h66q34 0 54.5 26.5t20.5 70.5v268q0 44 -20.5 70.5t-54.5 26.5z" />
    <glyph glyph-name="egrave" unicode="&#xe8;" horiz-adv-x="469" 
d="M205 712l76 -117h-46l-111 117h81zM24 37q32 0 46 10t14 33v380q0 23 -14 33t-46 10v37h296q26 0 37 4.5t12 14.5h33l41 -162l-33 -9q-18 48 -34.5 72.5t-42 32.5t-69.5 8h-71v-215h72q39 0 39 52h32v-152h-32q0 61 -39 61h-72v-208h104q45 0 69.5 10t36 38.5t17.5 83.5
h33v-192h-34q-4 12 -19 16.5t-50 4.5h-326v37z" />
    <glyph glyph-name="eacute" unicode="&#xe9;" horiz-adv-x="469" 
d="M24 37q32 0 46 10t14 33v380q0 23 -14 33t-46 10v37h296q26 0 37 4.5t12 14.5h33l41 -162l-33 -9q-18 48 -34.5 72.5t-42 32.5t-69.5 8h-71v-215h72q39 0 39 52h32v-152h-32q0 61 -39 61h-72v-208h104q45 0 69.5 10t36 38.5t17.5 83.5h33v-192h-34q-4 12 -19 16.5
t-50 4.5h-326v37zM263 712h81l-111 -117h-46z" />
    <glyph glyph-name="ecircumflex" unicode="&#xea;" horiz-adv-x="469" 
d="M24 37q32 0 46 10t14 33v380q0 23 -14 33t-46 10v37h296q26 0 37 4.5t12 14.5h33l41 -162l-33 -9q-18 48 -34.5 72.5t-42 32.5t-69.5 8h-71v-215h72q39 0 39 52h32v-152h-32q0 61 -39 61h-72v-208h104q45 0 69.5 10t36 38.5t17.5 83.5h33v-192h-34q-4 12 -19 16.5
t-50 4.5h-326v37zM186 595h-44l95 119h20l107 -119h-59l-63 69z" />
    <glyph glyph-name="ecaron" unicode="&#x11b;" horiz-adv-x="469" 
d="M24 37q32 0 46 10t14 33v380q0 23 -14 33t-46 10v37h296q26 0 37 4.5t12 14.5h33l41 -162l-33 -9q-18 48 -34.5 72.5t-42 32.5t-69.5 8h-71v-215h72q39 0 39 52h32v-152h-32q0 61 -39 61h-72v-208h104q45 0 69.5 10t36 38.5t17.5 83.5h33v-192h-34q-4 12 -19 16.5
t-50 4.5h-326v37zM328 704h44l-95 -119h-20l-107 119h59l63 -69z" />
    <glyph glyph-name="edieresis" unicode="&#xeb;" horiz-adv-x="469" 
d="M24 37q32 0 46 10t14 33v380q0 23 -14 33t-46 10v37h296q26 0 37 4.5t12 14.5h33l41 -162l-33 -9q-18 48 -34.5 72.5t-42 32.5t-69.5 8h-71v-215h72q39 0 39 52h32v-152h-32q0 61 -39 61h-72v-208h104q45 0 69.5 10t36 38.5t17.5 83.5h33v-192h-34q-4 12 -19 16.5
t-50 4.5h-326v37zM204.586 396.996q0 -20.3574 -14.1768 -33.8086q-14.1777 -13.4502 -33.8076 -12.7227q-20.3574 0.726562 -34.5352 15.6309t-14.1777 37.4434q0 20.3574 14.1777 34.5352t33.8076 13.4502q21.085 -0.727539 34.8984 -15.9951t13.8135 -38.5332z
M314.371 396.996q0 -20.3574 -14.1777 -33.8086q-14.1777 -13.4502 -33.8076 -12.7227q-20.3574 0.726562 -34.5352 15.6309q-14.1768 14.9043 -14.1768 37.4434q0 20.3574 14.1768 34.5352q14.1777 14.1777 33.8076 13.4502q21.085 -0.727539 34.8984 -15.9951
q13.8145 -15.2676 13.8145 -38.5332z" />
    <glyph glyph-name="emacron" unicode="&#x113;" horiz-adv-x="469" 
d="M24 37q32 0 46 10t14 33v380q0 23 -14 33t-46 10v37h296q26 0 37 4.5t12 14.5h33l41 -162l-33 -9q-18 48 -34.5 72.5t-42 32.5t-69.5 8h-71v-215h72q39 0 39 52h32v-152h-32q0 61 -39 61h-72v-208h104q45 0 69.5 10t36 38.5t17.5 83.5h33v-192h-34q-4 12 -19 16.5
t-50 4.5h-326v37zM112 594v40h268v-40h-268z" />
    <glyph glyph-name="ebreve" unicode="&#x115;" horiz-adv-x="469" 
d="M24 37q32 0 46 10t14 33v380q0 23 -14 33t-46 10v37h296q26 0 37 4.5t12 14.5h33l41 -162l-33 -9q-18 48 -34.5 72.5t-42 32.5t-69.5 8h-71v-215h72q39 0 39 52h32v-152h-32q0 61 -39 61h-72v-208h104q45 0 69.5 10t36 38.5t17.5 83.5h33v-192h-34q-4 12 -19 16.5
t-50 4.5h-326v37zM312 692h42q-11 -97 -111 -97q-97 0 -109 97h42q6 -25 24 -40t44 -15q57 0 68 55z" />
    <glyph glyph-name="edotaccent" unicode="&#x117;" horiz-adv-x="469" 
d="M24 37q32 0 46 10t14 33v380q0 23 -14 33t-46 10v37h296q26 0 37 4.5t12 14.5h33l41 -162l-33 -9q-18 48 -34.5 72.5t-42 32.5t-69.5 8h-71v-215h72q39 0 39 52h32v-152h-32q0 61 -39 61h-72v-208h104q45 0 69.5 10t36 38.5t17.5 83.5h33v-192h-34q-4 12 -19 16.5
t-50 4.5h-326v37zM273.586 417.078q0 -20.3574 -14.1768 -33.8086q-14.1777 -13.4502 -33.8076 -12.7227q-20.3574 0.726562 -34.5352 15.6309t-14.1777 37.4434q0 20.3574 14.1777 34.5352t33.8076 13.4502q21.085 -0.727539 34.8984 -15.9951t13.8135 -38.5332z" />
    <glyph glyph-name="etilde" unicode="&#x1ebd;" horiz-adv-x="469" 
d="M24 37q32 0 46 10t14 33v380q0 23 -14 33t-46 10v37h296q26 0 37 4.5t12 14.5h33l41 -162l-33 -9q-18 48 -34.5 72.5t-42 32.5t-69.5 8h-71v-215h72q39 0 39 52h32v-152h-32q0 61 -39 61h-72v-208h104q45 0 69.5 10t36 38.5t17.5 83.5h33v-192h-34q-4 12 -19 16.5
t-50 4.5h-326v37zM133 629q0 18 18.5 31.5t43.5 13.5q23 0 42 -7.5t35 -15.5t30 -8q24 0 41 21l25 -14q-24 -56 -71 -56q-23 0 -38 6.5t-28 13t-30 6.5q-13 0 -22.5 -8t-12.5 -21q-33 10 -33 38z" />
    <glyph glyph-name="gbreve" unicode="&#x11f;" horiz-adv-x="448" 
d="M249 550q36 0 52 -3t23 13h34l41 -161l-34 -9q-18 47 -34 73t-35.5 36.5t-47.5 10.5q-40 0 -69 -31t-29 -75v-278q0 -43 20.5 -70t54.5 -27q35 0 55.5 26.5t20.5 70.5v77q0 53 -71 53v33h198v-33q-30 0 -30 -35v-221h-23l-28 37q-46 -47 -123 -47q-184 0 -184 214v132
q0 100 56 157t153 57zM292 692h42q-11 -97 -111 -97q-97 0 -109 97h42q6 -25 24 -40t44 -15q57 0 68 55z" />
    <glyph glyph-name="gdotaccent" unicode="&#x121;" horiz-adv-x="448" 
d="M249 550q36 0 52 -3t23 13h34l41 -161l-34 -9q-18 47 -34 73t-35.5 36.5t-47.5 10.5q-40 0 -69 -31t-29 -75v-278q0 -43 20.5 -70t54.5 -27q35 0 55.5 26.5t20.5 70.5v77q0 53 -71 53v33h198v-33q-30 0 -30 -35v-221h-23l-28 37q-46 -47 -123 -47q-184 0 -184 214v132
q0 100 56 157t153 57zM269.586 417.078q0 -20.3574 -14.1768 -33.8086q-14.1777 -13.4502 -33.8076 -12.7227q-20.3574 0.726562 -34.5352 15.6309t-14.1777 37.4434q0 20.3574 14.1777 34.5352t33.8076 13.4502q21.085 -0.727539 34.8984 -15.9951t13.8135 -38.5332z" />
    <glyph glyph-name="gcircumflex" unicode="&#x11d;" horiz-adv-x="448" 
d="M249 550q36 0 52 -3t23 13h34l41 -161l-34 -9q-18 47 -34 73t-35.5 36.5t-47.5 10.5q-40 0 -69 -31t-29 -75v-278q0 -43 20.5 -70t54.5 -27q35 0 55.5 26.5t20.5 70.5v77q0 53 -71 53v33h198v-33q-30 0 -30 -35v-221h-23l-28 37q-46 -47 -123 -47q-184 0 -184 214v132
q0 100 56 157t153 57zM165 595h-44l95 119h20l107 -119h-59l-63 69z" />
    <glyph glyph-name="igrave" unicode="&#xec;" horiz-adv-x="278" 
d="M24 37q32 0 46 10t14 33v380q0 23 -14 33t-46 10v37h230v-37q-32 0 -46 -10t-14 -33v-380q0 -23 14 -33t46 -10v-37h-230v37zM113 712l76 -117h-46l-111 117h81z" />
    <glyph glyph-name="iacute" unicode="&#xed;" horiz-adv-x="278" 
d="M24 37q32 0 46 10t14 33v380q0 23 -14 33t-46 10v37h230v-37q-32 0 -46 -10t-14 -33v-380q0 -23 14 -33t46 -10v-37h-230v37zM168 712h81l-111 -117h-46z" />
    <glyph glyph-name="icircumflex" unicode="&#xee;" horiz-adv-x="278" 
d="M24 37q32 0 46 10t14 33v380q0 23 -14 33t-46 10v37h230v-37q-32 0 -46 -10t-14 -33v-380q0 -23 14 -33t46 -10v-37h-230v37zM74 595h-44l95 119h20l107 -119h-59l-63 69z" />
    <glyph glyph-name="idieresis" unicode="&#xef;" horiz-adv-x="279" 
d="M24 37q32 0 46 10t14 33v380q0 23 -14 33t-46 10v37h230v-37q-32 0 -46 -10t-14 -33v-380q0 -23 14 -33t46 -10v-37h-230v37zM106.586 386.996q0 -20.3574 -14.1768 -33.8086q-14.1777 -13.4502 -33.8076 -12.7227q-20.3574 0.726562 -34.5352 15.6309t-14.1777 37.4434
q0 20.3574 14.1777 34.5352t33.8076 13.4502q21.085 -0.727539 34.8984 -15.9951t13.8135 -38.5332zM216.371 386.996q0 -20.3574 -14.1777 -33.8086q-14.1777 -13.4502 -33.8076 -12.7227q-20.3574 0.726562 -34.5352 15.6309q-14.1768 14.9043 -14.1768 37.4434
q0 20.3574 14.1768 34.5352q14.1777 14.1777 33.8076 13.4502q21.085 -0.727539 34.8984 -15.9951q13.8145 -15.2676 13.8145 -38.5332z" />
    <glyph glyph-name="imacron" unicode="&#x12b;" horiz-adv-x="296" 
d="M31 37q32 0 46 10t14 33v380q0 23 -14 33t-46 10v37h230v-37q-32 0 -46 -10t-14 -33v-380q0 -23 14 -33t46 -10v-37h-230v37zM14 594v40h268v-40h-268z" />
    <glyph glyph-name="ibreve" unicode="&#x12d;" horiz-adv-x="278" 
d="M24 37q32 0 46 10t14 33v380q0 23 -14 33t-46 10v37h230v-37q-32 0 -46 -10t-14 -33v-380q0 -23 14 -33t46 -10v-37h-230v37zM208 691h42q-11 -97 -111 -97q-97 0 -109 97h42q6 -25 24 -40t44 -15q57 0 68 55z" />
    <glyph glyph-name="icaron" unicode="&#x1d0;" horiz-adv-x="278" 
d="M24 37q32 0 46 10t14 33v380q0 23 -14 33t-46 10v37h230v-37q-32 0 -46 -10t-14 -33v-380q0 -23 14 -33t46 -10v-37h-230v37zM203 702h44l-95 -119h-20l-107 119h59l63 -69z" />
    <glyph glyph-name="lacute" unicode="&#x13a;" horiz-adv-x="429" 
d="M24 37q32 0 46 10t14 33v380q0 23 -14 33t-46 10v37h230v-37q-32 0 -46 -10t-14 -33v-421h63q45 0 69 10.5t36 39.5t18 84h33v-194h-34q-4 12 -19 16.5t-50 4.5h-286v37zM180 712h81l-111 -117h-46z" />
    <glyph glyph-name="lcaron" unicode="&#x13e;" horiz-adv-x="429" 
d="M24 37q32 0 46 10t14 33v380q0 23 -14 33t-46 10v37h230v-37q-32 0 -46 -10t-14 -33v-421h63q45 0 69 10.5t36 39.5t18 84h33v-194h-34q-4 12 -19 16.5t-50 4.5h-286v37zM318 340h-67v200l67 1v-201z" />
    <glyph glyph-name="ldot" unicode="&#x140;" horiz-adv-x="429" 
d="M24 37q32 0 46 10t14 33v380q0 23 -14 33t-46 10v37h230v-37q-32 0 -46 -10t-14 -33v-421h63q45 0 69 10.5t36 39.5t18 84h33v-194h-34q-4 12 -19 16.5t-50 4.5h-286v37zM341.586 43.0781q0 -20.3574 -14.1768 -33.8086q-14.1777 -13.4502 -33.8076 -12.7227
q-20.3574 0.726562 -34.5352 15.6309t-14.1777 37.4434q0 20.3574 14.1777 34.5352t33.8076 13.4502q21.085 -0.727539 34.8984 -15.9951t13.8135 -38.5332z" />
    <glyph glyph-name="nacute" unicode="&#x144;" horiz-adv-x="531" 
d="M84 80v380q0 23 -14 33t-46 10v37h168l215 -346v266q0 24 -13 33.5t-47 9.5v37h164v-37q-34 0 -47 -9.5t-13 -33.5v-460h-45l-278 450v-370q0 -24 13 -33.5t47 -9.5v-37h-164v37q34 0 47 9.5t13 33.5zM269 711h81l-111 -117h-46z" />
    <glyph glyph-name="ncaron" unicode="&#x148;" horiz-adv-x="531" 
d="M84 80v380q0 23 -14 33t-46 10v37h168l215 -346v266q0 24 -13 33.5t-47 9.5v37h164v-37q-34 0 -47 -9.5t-13 -33.5v-460h-45l-278 450v-370q0 -24 13 -33.5t47 -9.5v-37h-164v37q34 0 47 9.5t13 33.5zM330 702h44l-95 -119h-20l-107 119h59l63 -69z" />
    <glyph glyph-name="ntilde" unicode="&#xf1;" horiz-adv-x="531" 
d="M84 80v380q0 23 -14 33t-46 10v37h168l215 -346v266q0 24 -13 33.5t-47 9.5v37h164v-37q-34 0 -47 -9.5t-13 -33.5v-460h-45l-278 450v-370q0 -24 13 -33.5t47 -9.5v-37h-164v37q34 0 47 9.5t13 33.5zM142 629q0 18 18.5 31.5t43.5 13.5q23 0 42 -7.5t35 -15.5t30 -8
q24 0 41 21l25 -14q-24 -56 -71 -56q-23 0 -38 6.5t-28 13t-30 6.5q-13 0 -22.5 -8t-12.5 -21q-33 10 -33 38z" />
    <glyph glyph-name="ograve" unicode="&#xf2;" horiz-adv-x="466" 
d="M234 555q92 0 142 -56t50 -158v-142q0 -214 -192 -214q-94 0 -144 55t-50 159v142q0 106 49.5 160t144.5 54zM234 24q36 0 59 26.5t23 68.5v301q0 42 -23 69t-59 27q-35 0 -58.5 -27.5t-23.5 -68.5v-301q0 -43 22.5 -69t59.5 -26zM184 711l76 -117h-46l-111 117h81z" />
    <glyph glyph-name="oacute" unicode="&#xf3;" horiz-adv-x="466" 
d="M234 555q92 0 142 -56t50 -158v-142q0 -214 -192 -214q-94 0 -144 55t-50 159v142q0 106 49.5 160t144.5 54zM234 24q36 0 59 26.5t23 68.5v301q0 42 -23 69t-59 27q-35 0 -58.5 -27.5t-23.5 -68.5v-301q0 -43 22.5 -69t59.5 -26zM273 711h81l-111 -117h-46z" />
    <glyph glyph-name="ocircumflex" unicode="&#xf4;" horiz-adv-x="466" 
d="M234 555q92 0 142 -56t50 -158v-142q0 -214 -192 -214q-94 0 -144 55t-50 159v142q0 106 49.5 160t144.5 54zM234 24q36 0 59 26.5t23 68.5v301q0 42 -23 69t-59 27q-35 0 -58.5 -27.5t-23.5 -68.5v-301q0 -43 22.5 -69t59.5 -26zM166 595h-44l95 119h20l107 -119h-59
l-63 69z" />
    <glyph glyph-name="otilde" unicode="&#xf5;" horiz-adv-x="466" 
d="M234 555q92 0 142 -56t50 -158v-142q0 -214 -192 -214q-94 0 -144 55t-50 159v142q0 106 49.5 160t144.5 54zM234 24q36 0 59 26.5t23 68.5v301q0 42 -23 69t-59 27q-35 0 -58.5 -27.5t-23.5 -68.5v-301q0 -43 22.5 -69t59.5 -26zM121 629q0 18 18.5 31.5t43.5 13.5
q23 0 42 -7.5t35 -15.5t30 -8q24 0 41 21l25 -14q-24 -56 -71 -56q-23 0 -38 6.5t-28 13t-30 6.5q-13 0 -22.5 -8t-12.5 -21q-33 10 -33 38z" />
    <glyph glyph-name="ocaron" unicode="&#x1d2;" horiz-adv-x="466" 
d="M234 555q92 0 142 -56t50 -158v-142q0 -214 -192 -214q-94 0 -144 55t-50 159v142q0 106 49.5 160t144.5 54zM234 24q36 0 59 26.5t23 68.5v301q0 42 -23 69t-59 27q-35 0 -58.5 -27.5t-23.5 -68.5v-301q0 -43 22.5 -69t59.5 -26zM293 702h44l-95 -119h-20l-107 119h59
l63 -69z" />
    <glyph glyph-name="odieresis" unicode="&#xf6;" horiz-adv-x="466" 
d="M234 555q92 0 142 -56t50 -158v-142q0 -214 -192 -214q-94 0 -144 55t-50 159v142q0 106 49.5 160t144.5 54zM234 24q36 0 59 26.5t23 68.5v301q0 42 -23 69t-59 27q-35 0 -58.5 -27.5t-23.5 -68.5v-301q0 -43 22.5 -69t59.5 -26zM200.586 407.996
q0 -20.3574 -14.1768 -33.8086q-14.1777 -13.4502 -33.8076 -12.7227q-20.3574 0.726562 -34.5352 15.6309t-14.1777 37.4434q0 20.3574 14.1777 34.5352t33.8076 13.4502q21.085 -0.727539 34.8984 -15.9951t13.8135 -38.5332zM310.371 407.996
q0 -20.3574 -14.1777 -33.8086q-14.1777 -13.4502 -33.8076 -12.7227q-20.3574 0.726562 -34.5352 15.6309q-14.1768 14.9043 -14.1768 37.4434q0 20.3574 14.1768 34.5352q14.1777 14.1777 33.8076 13.4502q21.085 -0.727539 34.8984 -15.9951
q13.8145 -15.2676 13.8145 -38.5332z" />
    <glyph glyph-name="omacron" unicode="&#x14d;" horiz-adv-x="466" 
d="M234 555q92 0 142 -56t50 -158v-142q0 -214 -192 -214q-94 0 -144 55t-50 159v142q0 106 49.5 160t144.5 54zM234 24q36 0 59 26.5t23 68.5v301q0 42 -23 69t-59 27q-35 0 -58.5 -27.5t-23.5 -68.5v-301q0 -43 22.5 -69t59.5 -26zM102 594v40h268v-40h-268z" />
    <glyph glyph-name="obreve" unicode="&#x14f;" horiz-adv-x="466" 
d="M234 555q92 0 142 -56t50 -158v-142q0 -214 -192 -214q-94 0 -144 55t-50 159v142q0 106 49.5 160t144.5 54zM234 24q36 0 59 26.5t23 68.5v301q0 42 -23 69t-59 27q-35 0 -58.5 -27.5t-23.5 -68.5v-301q0 -43 22.5 -69t59.5 -26zM300 692h42q-11 -97 -111 -97
q-97 0 -109 97h42q6 -25 24 -40t44 -15q57 0 68 55z" />
    <glyph glyph-name="ohungarumlaut" unicode="&#x151;" horiz-adv-x="466" 
d="M234 555q92 0 142 -56t50 -158v-142q0 -214 -192 -214q-94 0 -144 55t-50 159v142q0 106 49.5 160t144.5 54zM234 24q36 0 59 26.5t23 68.5v301q0 42 -23 69t-59 27q-35 0 -58.5 -27.5t-23.5 -68.5v-301q0 -43 22.5 -69t59.5 -26zM210 711h81l-111 -117h-46zM327 711h81
l-111 -117h-46z" />
    <glyph glyph-name="oslashacute" unicode="&#x1ff;" horiz-adv-x="469" 
d="M235 555q75 0 122 -37.5t63 -107.5l52 31l1 -54l-46 -27v-19v-142q0 -214 -192 -214q-161 0 -189 152l-49 -29l-1 54l45 26v11v142q0 106 49.5 160t144.5 54zM153 420v-166l164 96v70q0 42 -23 69t-59 27q-35 0 -58.5 -27.5t-23.5 -68.5zM235 24q36 0 59 26.5t23 68.5
v177l-164 -97v-80q0 -43 22.5 -69t59.5 -26zM273 711h81l-111 -117h-46z" />
    <glyph glyph-name="racute" unicode="&#x155;" horiz-adv-x="484" 
d="M24 37q32 0 46 10t14 33v380q0 23 -14 33t-46 10v37h236q92 0 135 -42t43 -131q0 -43 -22 -74.5t-70 -55.5q84 -35 84 -125q0 -31 12.5 -53t30.5 -22h6v-37h-9q-73 0 -107.5 27t-34.5 85q0 43 -22 74.5t-51 31.5h-21v37h26q33 0 53 27t20 71v51q0 44 -20 70.5t-53 26.5
h-66v-421q0 -23 14 -33t46 -10v-37h-230v37zM272 711h81l-111 -117h-46z" />
    <glyph glyph-name="rcaron" unicode="&#x159;" horiz-adv-x="484" 
d="M24 37q32 0 46 10t14 33v380q0 23 -14 33t-46 10v37h236q92 0 135 -42t43 -131q0 -43 -22 -74.5t-70 -55.5q84 -35 84 -125q0 -31 12.5 -53t30.5 -22h6v-37h-9q-73 0 -107.5 27t-34.5 85q0 43 -22 74.5t-51 31.5h-21v37h26q33 0 53 27t20 71v51q0 44 -20 70.5t-53 26.5
h-66v-421q0 -23 14 -33t46 -10v-37h-230v37zM304 702h44l-95 -119h-20l-107 119h59l63 -69z" />
    <glyph glyph-name="sacute" unicode="&#x15b;" horiz-adv-x="432" 
d="M205 550q30 0 46.5 -3.5t25 -2.5t13.5 14h34l41 -161l-34 -9q-25 69 -50.5 95t-66.5 26q-31 0 -53.5 -21.5t-22.5 -52.5q0 -28 14 -46.5t50 -38.5l108 -59q43 -23 66.5 -62.5t23.5 -89.5q0 -41 -23.5 -75t-63 -54t-88.5 -20q-37 0 -60 7t-36.5 14t-23.5 7q-23 0 -30 -18
h-35v198h34q14 -79 49.5 -122t86.5 -43q23 0 43.5 13t33.5 33t13 42q0 53 -70 92l-88 49q-99 54 -99 140q0 39 23 73t60 54.5t79 20.5zM238 711h81l-111 -117h-46z" />
    <glyph glyph-name="scaron" unicode="&#x161;" horiz-adv-x="432" 
d="M205 550q30 0 46.5 -3.5t25 -2.5t13.5 14h34l41 -161l-34 -9q-25 69 -50.5 95t-66.5 26q-31 0 -53.5 -21.5t-22.5 -52.5q0 -28 14 -46.5t50 -38.5l108 -59q43 -23 66.5 -62.5t23.5 -89.5q0 -41 -23.5 -75t-63 -54t-88.5 -20q-37 0 -60 7t-36.5 14t-23.5 7q-23 0 -30 -18
h-35v198h34q14 -79 49.5 -122t86.5 -43q23 0 43.5 13t33.5 33t13 42q0 53 -70 92l-88 49q-99 54 -99 140q0 39 23 73t60 54.5t79 20.5zM263 702h44l-95 -119h-20l-107 119h59l63 -69z" />
    <glyph glyph-name="scedilla" unicode="&#x15f;" horiz-adv-x="432" 
d="M205 550q30 0 46.5 -3.5t25 -2.5t13.5 14h34l41 -161l-34 -9q-25 69 -50.5 95t-66.5 26q-31 0 -53.5 -21.5t-22.5 -52.5q0 -28 14 -46.5t50 -38.5l108 -59q43 -23 66.5 -62.5t23.5 -89.5q0 -41 -23.5 -75t-63 -54t-88.5 -20q-37 0 -60 7t-36.5 14t-23.5 7q-23 0 -30 -18
h-35v198h34q14 -79 49.5 -122t86.5 -43q23 0 43.5 13t33.5 33t13 42q0 53 -70 92l-88 49q-99 54 -99 140q0 39 23 73t60 54.5t79 20.5zM259 -107q0 19 -15 30.5t-40 11.5h-37v35l20 23l45 -1l-19 -21q44 0 69.5 -20t25.5 -58q0 -36 -22 -58.5t-60 -22.5h-39v38h17
q55 0 55 43z" />
    <glyph glyph-name="scircumflex" unicode="&#x15d;" horiz-adv-x="432" 
d="M205 550q30 0 46.5 -3.5t25 -2.5t13.5 14h34l41 -161l-34 -9q-25 69 -50.5 95t-66.5 26q-31 0 -53.5 -21.5t-22.5 -52.5q0 -28 14 -46.5t50 -38.5l108 -59q43 -23 66.5 -62.5t23.5 -89.5q0 -41 -23.5 -75t-63 -54t-88.5 -20q-37 0 -60 7t-36.5 14t-23.5 7q-23 0 -30 -18
h-35v198h34q14 -79 49.5 -122t86.5 -43q23 0 43.5 13t33.5 33t13 42q0 53 -70 92l-88 49q-99 54 -99 140q0 39 23 73t60 54.5t79 20.5zM136 595h-44l95 119h20l107 -119h-59l-63 69z" />
    <glyph glyph-name="scommaaccent" unicode="&#x219;" horiz-adv-x="432" 
d="M205 550q30 0 46.5 -3.5t25 -2.5t13.5 14h34l41 -161l-34 -9q-25 69 -50.5 95t-66.5 26q-31 0 -53.5 -21.5t-22.5 -52.5q0 -28 14 -46.5t50 -38.5l108 -59q43 -23 66.5 -62.5t23.5 -89.5q0 -41 -23.5 -75t-63 -54t-88.5 -20q-37 0 -60 7t-36.5 14t-23.5 7q-23 0 -30 -18
h-35v198h34q14 -79 49.5 -122t86.5 -43q23 0 43.5 13t33.5 33t13 42q0 53 -70 92l-88 49q-99 54 -99 140q0 39 23 73t60 54.5t79 20.5zM193 -199l-13 25q16 6 22 15.5l6 9.5l-13.5 3t-27 14t-13.5 34t16.5 39.5t38.5 15.5q23 -1 39 -18.5t16 -43.5q0 -32 -19.5 -57
t-51.5 -37z" />
    <glyph glyph-name="tcaron" unicode="&#x165;" horiz-adv-x="440" 
d="M104 37q32 0 46 10t14 33v421h-17q-32 0 -51 -10t-32.5 -39t-29.5 -87l-34 9l34 192h31q3 -26 46 -26h218q43 0 46 26h31l34 -192l-34 -9q-16 58 -29.5 87t-32.5 39t-51 10h-19v-421q0 -23 14 -33t46 -10v-37h-230v37zM284 711h44l-95 -119h-20l-107 119h59l63 -69z" />
    <glyph glyph-name="tcommaaccent" unicode="&#x21b;" horiz-adv-x="440" 
d="M104 37q32 0 46 10t14 33v421h-17q-32 0 -51 -10t-32.5 -39t-29.5 -87l-34 9l34 192h31q3 -26 46 -26h218q43 0 46 26h31l34 -192l-34 -9q-16 58 -29.5 87t-32.5 39t-51 10h-19v-421q0 -23 14 -33t46 -10v-37h-230v37zM200 -198l-13 25q16 6 22 15.5l6 9.5l-13.5 3
t-27 14t-13.5 34t16.5 39.5t38.5 15.5q23 -1 39 -18.5t16 -43.5q0 -32 -19.5 -57t-51.5 -37z" />
    <glyph glyph-name="ugrave" unicode="&#xf9;" horiz-adv-x="488" 
d="M420 204q0 -214 -167 -214q-86 0 -135.5 57t-49.5 157v256q0 23 -14 33t-46 10v37h230v-37q-32 0 -46 -10t-14 -33v-324q0 -46 26.5 -75t69.5 -29q46 0 74.5 44t28.5 113v271q0 24 -13 33.5t-47 9.5v37h163v-37q-34 0 -47 -9.5t-13 -33.5v-256zM211 711l76 -117h-46
l-111 117h81z" />
    <glyph glyph-name="uacute" unicode="&#xfa;" horiz-adv-x="488" 
d="M420 204q0 -214 -167 -214q-86 0 -135.5 57t-49.5 157v256q0 23 -14 33t-46 10v37h230v-37q-32 0 -46 -10t-14 -33v-324q0 -46 26.5 -75t69.5 -29q46 0 74.5 44t28.5 113v271q0 24 -13 33.5t-47 9.5v37h163v-37q-34 0 -47 -9.5t-13 -33.5v-256zM271 711h81l-111 -117h-46
z" />
    <glyph glyph-name="ucaron" unicode="&#x1d4;" horiz-adv-x="488" 
d="M420 204q0 -214 -167 -214q-86 0 -135.5 57t-49.5 157v256q0 23 -14 33t-46 10v37h230v-37q-32 0 -46 -10t-14 -33v-324q0 -46 26.5 -75t69.5 -29q46 0 74.5 44t28.5 113v271q0 24 -13 33.5t-47 9.5v37h163v-37q-34 0 -47 -9.5t-13 -33.5v-256zM330 702h44l-95 -119h-20
l-107 119h59l63 -69z" />
    <glyph glyph-name="ucircumflex" unicode="&#xfb;" horiz-adv-x="488" 
d="M420 204q0 -214 -167 -214q-86 0 -135.5 57t-49.5 157v256q0 23 -14 33t-46 10v37h230v-37q-32 0 -46 -10t-14 -33v-324q0 -46 26.5 -75t69.5 -29q46 0 74.5 44t28.5 113v271q0 24 -13 33.5t-47 9.5v37h163v-37q-34 0 -47 -9.5t-13 -33.5v-256zM199 596h-44l95 119h20
l107 -119h-59l-63 69z" />
    <glyph glyph-name="udieresis" unicode="&#xfc;" horiz-adv-x="488" 
d="M420 204q0 -214 -167 -214q-86 0 -135.5 57t-49.5 157v256q0 23 -14 33t-46 10v37h230v-37q-32 0 -46 -10t-14 -33v-324q0 -46 26.5 -75t69.5 -29q46 0 74.5 44t28.5 113v271q0 24 -13 33.5t-47 9.5v37h163v-37q-34 0 -47 -9.5t-13 -33.5v-256zM233.586 386.996
q0 -20.3574 -14.1768 -33.8086q-14.1777 -13.4502 -33.8076 -12.7227q-20.3574 0.726562 -34.5352 15.6309t-14.1777 37.4434q0 20.3574 14.1777 34.5352t33.8076 13.4502q21.085 -0.727539 34.8984 -15.9951t13.8135 -38.5332zM343.371 386.996
q0 -20.3574 -14.1777 -33.8086q-14.1777 -13.4502 -33.8076 -12.7227q-20.3574 0.726562 -34.5352 15.6309q-14.1768 14.9043 -14.1768 37.4434q0 20.3574 14.1768 34.5352q14.1777 14.1777 33.8076 13.4502q21.085 -0.727539 34.8984 -15.9951
q13.8145 -15.2676 13.8145 -38.5332z" />
    <glyph glyph-name="umacron" unicode="&#x16b;" horiz-adv-x="488" 
d="M420 204q0 -214 -167 -214q-86 0 -135.5 57t-49.5 157v256q0 23 -14 33t-46 10v37h230v-37q-32 0 -46 -10t-14 -33v-324q0 -46 26.5 -75t69.5 -29q46 0 74.5 44t28.5 113v271q0 24 -13 33.5t-47 9.5v37h163v-37q-34 0 -47 -9.5t-13 -33.5v-256zM124 594v40h268v-40h-268z
" />
    <glyph glyph-name="ubreve" unicode="&#x16d;" horiz-adv-x="488" 
d="M420 204q0 -214 -167 -214q-86 0 -135.5 57t-49.5 157v256q0 23 -14 33t-46 10v37h230v-37q-32 0 -46 -10t-14 -33v-324q0 -46 26.5 -75t69.5 -29q46 0 74.5 44t28.5 113v271q0 24 -13 33.5t-47 9.5v37h163v-37q-34 0 -47 -9.5t-13 -33.5v-256zM337 691h42
q-11 -97 -111 -97q-97 0 -109 97h42q6 -25 24 -40t44 -15q57 0 68 55z" />
    <glyph glyph-name="uring" unicode="&#x16f;" horiz-adv-x="488" 
d="M420 204q0 -214 -167 -214q-86 0 -135.5 57t-49.5 157v256q0 23 -14 33t-46 10v37h230v-37q-32 0 -46 -10t-14 -33v-324q0 -46 26.5 -75t69.5 -29q46 0 74.5 44t28.5 113v271q0 24 -13 33.5t-47 9.5v37h163v-37q-34 0 -47 -9.5t-13 -33.5v-256zM346 667q0 -73 -79 -73
q-80 0 -80 73t80 73q38 0 58.5 -19t20.5 -54zM225 667q0 -21 12 -34.5t30 -13.5t30 13.5t12 34.5q0 22 -11.5 36t-30.5 14q-18 0 -30 -14.5t-12 -35.5z" />
    <glyph glyph-name="uhungarumlaut" unicode="&#x171;" horiz-adv-x="488" 
d="M420 204q0 -214 -167 -214q-86 0 -135.5 57t-49.5 157v256q0 23 -14 33t-46 10v37h230v-37q-32 0 -46 -10t-14 -33v-324q0 -46 26.5 -75t69.5 -29q46 0 74.5 44t28.5 113v271q0 24 -13 33.5t-47 9.5v37h163v-37q-34 0 -47 -9.5t-13 -33.5v-256zM238 711h81l-111 -117h-46
zM355 711h81l-111 -117h-46z" />
    <glyph glyph-name="wgrave" unicode="&#x1e81;" horiz-adv-x="712" 
d="M610 465q6 20 -10 32t-50 12v31h164v-31q-26 0 -40 -10t-22 -34l-150 -479h-26l-119 391l-114 -391h-27l-156 481q-8 26 -20.5 34t-41.5 8v31h225v-31q-73 0 -61 -41l92 -304l82 289q7 25 -10 40.5t-47 15.5v31h209l1 -31q-74 0 -62 -41l89 -302zM343 712l76 -117h-46
l-111 117h81z" />
    <glyph glyph-name="wacute" unicode="&#x1e83;" horiz-adv-x="712" 
d="M610 465q6 20 -10 32t-50 12v31h164v-31q-26 0 -40 -10t-22 -34l-150 -479h-26l-119 391l-114 -391h-27l-156 481q-8 26 -20.5 34t-41.5 8v31h225v-31q-73 0 -61 -41l92 -304l82 289q7 25 -10 40.5t-47 15.5v31h209l1 -31q-74 0 -62 -41l89 -302zM448 711h81l-111 -117
h-46z" />
    <glyph glyph-name="wcircumflex" unicode="&#x175;" horiz-adv-x="712" 
d="M610 465q6 20 -10 32t-50 12v31h164v-31q-26 0 -40 -10t-22 -34l-150 -479h-26l-119 391l-114 -391h-27l-156 481q-8 26 -20.5 34t-41.5 8v31h225v-31q-73 0 -61 -41l92 -304l82 289q7 25 -10 40.5t-47 15.5v31h209l1 -31q-74 0 -62 -41l89 -302zM325 596h-44l95 119h20
l107 -119h-59l-63 69z" />
    <glyph glyph-name="wdieresis" unicode="&#x1e85;" horiz-adv-x="712" 
d="M610 465q6 20 -10 32t-50 12v31h164v-31q-26 0 -40 -10t-22 -34l-150 -479h-26l-119 391l-114 -391h-27l-156 481q-8 26 -20.5 34t-41.5 8v31h225v-31q-73 0 -61 -41l92 -304l82 289q7 25 -10 40.5t-47 15.5v31h209l1 -31q-74 0 -62 -41l89 -302zM350.586 386.996
q0 -20.3574 -14.1768 -33.8086q-14.1777 -13.4502 -33.8076 -12.7227q-20.3574 0.726562 -34.5352 15.6309t-14.1777 37.4434q0 20.3574 14.1777 34.5352t33.8076 13.4502q21.085 -0.727539 34.8984 -15.9951t13.8135 -38.5332zM460.371 386.996
q0 -20.3574 -14.1777 -33.8086q-14.1777 -13.4502 -33.8076 -12.7227q-20.3574 0.726562 -34.5352 15.6309q-14.1768 14.9043 -14.1768 37.4434q0 20.3574 14.1768 34.5352q14.1777 14.1777 33.8076 13.4502q21.085 -0.727539 34.8984 -15.9951
q13.8145 -15.2676 13.8145 -38.5332z" />
    <glyph glyph-name="ygrave" unicode="&#x1ef3;" horiz-adv-x="454" 
d="M121 37q32 0 46 10t14 33v108l-125 275q-12 26 -23.5 34.5t-36.5 8.5v34h230v-34q-31 0 -49 -12.5t-11 -29.5l95 -214l87 212q8 21 -7.5 32.5t-52.5 11.5v34h170v-34q-25 0 -38 -9t-24 -35l-105 -258v-124q0 -23 14 -33t46 -10v-37h-230v37zM203 711l76 -117h-46
l-111 117h81z" />
    <glyph glyph-name="yacute" unicode="&#xfd;" horiz-adv-x="454" 
d="M121 37q32 0 46 10t14 33v108l-125 275q-12 26 -23.5 34.5t-36.5 8.5v34h230v-34q-31 0 -49 -12.5t-11 -29.5l95 -214l87 212q8 21 -7.5 32.5t-52.5 11.5v34h170v-34q-25 0 -38 -9t-24 -35l-105 -258v-124q0 -23 14 -33t46 -10v-37h-230v37zM296 711h81l-111 -117h-46z
" />
    <glyph glyph-name="ycircumflex" unicode="&#x177;" horiz-adv-x="454" 
d="M121 37q32 0 46 10t14 33v108l-125 275q-12 26 -23.5 34.5t-36.5 8.5v34h230v-34q-31 0 -49 -12.5t-11 -29.5l95 -214l87 212q8 21 -7.5 32.5t-52.5 11.5v34h170v-34q-25 0 -38 -9t-24 -35l-105 -258v-124q0 -23 14 -33t46 -10v-37h-230v37zM186 595h-44l95 119h20
l107 -119h-59l-63 69z" />
    <glyph glyph-name="ydieresis" unicode="&#xff;" horiz-adv-x="454" 
d="M121 37q32 0 46 10t14 33v108l-125 275q-12 26 -23.5 34.5t-36.5 8.5v34h230v-34q-31 0 -49 -12.5t-11 -29.5l95 -214l87 212q8 21 -7.5 32.5t-52.5 11.5v34h170v-34q-25 0 -38 -9t-24 -35l-105 -258v-124q0 -23 14 -33t46 -10v-37h-230v37zM215.586 386.996
q0 -20.3574 -14.1768 -33.8086q-14.1777 -13.4502 -33.8076 -12.7227q-20.3574 0.726562 -34.5352 15.6309t-14.1777 37.4434q0 20.3574 14.1777 34.5352t33.8076 13.4502q21.085 -0.727539 34.8984 -15.9951t13.8135 -38.5332zM325.371 386.996
q0 -20.3574 -14.1777 -33.8086q-14.1777 -13.4502 -33.8076 -12.7227q-20.3574 0.726562 -34.5352 15.6309q-14.1768 14.9043 -14.1768 37.4434q0 20.3574 14.1768 34.5352q14.1777 14.1777 33.8076 13.4502q21.085 -0.727539 34.8984 -15.9951
q13.8145 -15.2676 13.8145 -38.5332z" />
    <glyph glyph-name="zacute" unicode="&#x17a;" horiz-adv-x="396" 
d="M232 39q45 0 69 10.5t36 39.5t18 84h33v-194h-34q-4 12 -19 16.5t-50 4.5h-269v39l243 462h-58q-43 0 -68.5 -8t-42 -32.5t-35.5 -72.5l-33 9l41 162h33q2 -11 12 -15t37 -4h226v-39h-1l-240 -462h102zM241 711h81l-111 -117h-46z" />
    <glyph glyph-name="zcaron" unicode="&#x17e;" horiz-adv-x="396" 
d="M232 39q45 0 69 10.5t36 39.5t18 84h33v-194h-34q-4 12 -19 16.5t-50 4.5h-269v39l243 462h-58q-43 0 -68.5 -8t-42 -32.5t-35.5 -72.5l-33 9l41 162h33q2 -11 12 -15t37 -4h226v-39h-1l-240 -462h102zM270 702h44l-95 -119h-20l-107 119h59l63 -69z" />
    <glyph glyph-name="zcircumflex" unicode="&#x1e91;" horiz-adv-x="396" 
d="M232 39q45 0 69 10.5t36 39.5t18 84h33v-194h-34q-4 12 -19 16.5t-50 4.5h-269v39l243 462h-58q-43 0 -68.5 -8t-42 -32.5t-35.5 -72.5l-33 9l41 162h33q2 -11 12 -15t37 -4h226v-39h-1l-240 -462h102zM166 595h-44l95 119h20l107 -119h-59l-63 69z" />
    <glyph glyph-name="zdotaccent" unicode="&#x17c;" horiz-adv-x="396" 
d="M232 39q45 0 69 10.5t36 39.5t18 84h33v-194h-34q-4 12 -19 16.5t-50 4.5h-269v39l243 462h-58q-43 0 -68.5 -8t-42 -32.5t-35.5 -72.5l-33 9l41 162h33q2 -11 12 -15t37 -4h226v-39h-1l-240 -462h102zM255.586 417.078q0 -20.3574 -14.1768 -33.8086
q-14.1777 -13.4502 -33.8076 -12.7227q-20.3574 0.726562 -34.5352 15.6309t-14.1777 37.4434q0 20.3574 14.1777 34.5352t33.8076 13.4502q21.085 -0.727539 34.8984 -15.9951t13.8135 -38.5332z" />
    <glyph glyph-name="d_e" horiz-adv-x="499" 
d="M24 37q32 0 46 10t14 33v380q0 23 -14 33t-46 10v37h258q95 0 140 -52t45 -162v-112q0 -214 -185 -214h-258v37zM282 501h-86v-215h37q39 0 39 52h32v-152h-32q0 61 -39 61h-37v-208h86q34 0 54.5 26.5t20.5 70.5v268q0 44 -20.5 70.5t-54.5 26.5z" />
    <glyph glyph-name="e_a" horiz-adv-x="844" 
d="M24 37q32 0 46 10t14 33v380q0 23 -14 33t-46 10v37h296q26 0 37 4.5t12 14.5h33l41 -162l-33 -9q-18 48 -34.5 72.5t-42 32.5t-69.5 8h-71v-215h72q39 0 39 52h32v-152h-32q0 61 -39 61h-72v-208h119q36 0 59 3.5t38.5 16t28 40t27.5 74.5l121 371h48l156 -465
q9 -26 20 -34t42 -8v-37h-230v37q74 0 61 41l-21 67h-160l-54 -166h-34q-4 12 -19 16.5t-50 4.5h-321v37zM515 183h135l-66 210z" />
    <glyph glyph-name="l_a" horiz-adv-x="769" 
d="M24 37q32 0 46 10t14 33v380q0 23 -14 33t-46 10v37h230v-37q-32 0 -46 -10t-14 -33v-421h43q36 0 59 3.5t38.5 16t28 40t27.5 74.5l121 371h48l156 -465q9 -26 20 -34t42 -8v-37h-230v37q74 0 61 41l-21 67h-160l-54 -166h-34q-4 12 -19 16.5t-50 4.5h-246v37zM440 183
h135l-66 210z" />
    <glyph glyph-name="t_e" horiz-adv-x="880" 
d="M104 37q32 0 46 10t14 33v421h-17q-32 0 -51 -10t-32.5 -39t-29.5 -87l-34 9l34 192h31q3 -26 46 -26h213q23 0 30 6.5t8 19.5h31q3 -26 46 -26h292q26 0 37 4.5t12 14.5h33l41 -162l-33 -9q-18 48 -34.5 72.5t-42 32.5t-69.5 8h-71v-215h72q39 0 39 52h32v-152h-32
q0 61 -39 61h-72v-208h104q45 0 69.5 10t36 38.5t17.5 83.5h33v-192h-34q-4 12 -19 16.5t-50 4.5h-327v37q32 0 46 10t14 33v378q0 23 -14 33t-46 10h-160v-421q0 -23 14 -33t46 -10v-37h-230v37z" />
    <glyph glyph-name="grave" unicode="`" horiz-adv-x="301" 
d="M153 910l76 -117h-46l-111 117h81z" />
    <glyph glyph-name="acute" unicode="&#xb4;" horiz-adv-x="301" 
d="M148 910h81l-111 -117h-46z" />
    <glyph glyph-name="circumflex" unicode="&#x2c6;" horiz-adv-x="366" 
d="M116 782h-44l95 119h20l107 -119h-59l-63 69z" />
    <glyph glyph-name="caron" unicode="&#x2c7;" horiz-adv-x="366" 
d="M250 881h44l-95 -119h-20l-107 119h59l63 -69z" />
    <glyph glyph-name="tilde" unicode="&#x2dc;" horiz-adv-x="498" 
d="M142 839q0 18 18.5 31.5t43.5 13.5q23 0 42 -7.5t35 -15.5t30 -8q24 0 41 21l25 -14q-24 -56 -71 -56q-23 0 -38 6.5t-28 13t-30 6.5q-13 0 -22.5 -8t-12.5 -21q-33 10 -33 38z" />
    <glyph glyph-name="dieresis" unicode="&#xa8;" horiz-adv-x="392" 
d="M163.586 609.996q0 -20.3574 -14.1768 -33.8086q-14.1777 -13.4502 -33.8076 -12.7227q-20.3574 0.726562 -34.5352 15.6309t-14.1777 37.4434q0 20.3574 14.1777 34.5352t33.8076 13.4502q21.085 -0.727539 34.8984 -15.9951t13.8135 -38.5332zM273.371 609.996
q0 -20.3574 -14.1777 -33.8086q-14.1777 -13.4502 -33.8076 -12.7227q-20.3574 0.726562 -34.5352 15.6309q-14.1768 14.9043 -14.1768 37.4434q0 20.3574 14.1768 34.5352q14.1777 14.1777 33.8076 13.4502q21.085 -0.727539 34.8984 -15.9951
q13.8145 -15.2676 13.8145 -38.5332z" />
    <glyph glyph-name="macron" unicode="&#xaf;" horiz-adv-x="280" 
d="M6 790v40h268v-40h-268z" />
    <glyph glyph-name="breve" unicode="&#x2d8;" horiz-adv-x="366" 
d="M242 847h42q-11 -97 -111 -97q-97 0 -109 97h42q6 -25 24 -40t44 -15q57 0 68 55z" />
    <glyph glyph-name="ring" unicode="&#x2da;" horiz-adv-x="478" 
d="M315 823q0 -73 -79 -73q-80 0 -80 73t80 73q38 0 58.5 -19t20.5 -54zM194 823q0 -21 12 -34.5t30 -13.5t30 13.5t12 34.5q0 22 -11.5 36t-30.5 14q-18 0 -30 -14.5t-12 -35.5z" />
    <glyph glyph-name="hungarumlaut" unicode="&#x2dd;" horiz-adv-x="418" 
d="M148 910h81l-111 -117h-46zM265 910h81l-111 -117h-46z" />
    <glyph glyph-name="dotaccent" unicode="&#x2d9;" horiz-adv-x="241" 
d="M163.586 639.078q0 -20.3574 -14.1768 -33.8086q-14.1777 -13.4502 -33.8076 -12.7227q-20.3574 0.726562 -34.5352 15.6309t-14.1777 37.4434q0 20.3574 14.1777 34.5352t33.8076 13.4502q21.085 -0.727539 34.8984 -15.9951t13.8135 -38.5332z" />
    <glyph glyph-name="cedilla" unicode="&#xb8;" horiz-adv-x="414" 
d="M264 -107q0 19 -15 30.5t-40 11.5h-37v35l20 23l45 -1l-19 -21q44 0 69.5 -20t25.5 -58q0 -36 -22 -58.5t-60 -22.5h-39v38h17q55 0 55 43z" />
    <glyph glyph-name="ogonek" unicode="&#x2db;" horiz-adv-x="414" 
d="M297 10v-38l-41 -11q-22 -6 -33.5 -23t-11.5 -35q0 -24 18.5 -39.5t46.5 -15.5h18v-46h-20q-50 0 -81 29t-31 72q0 38 23.5 65.5t75.5 35.5z" />
    <glyph glyph-name="commaaccent" horiz-adv-x="174" 
d="M71 -48l-13 25q16 6 22 15.5l6 9.5l-13.5 3t-27 14t-13.5 34t16.5 39.5t38.5 15.5q23 -1 39 -18.5t16 -43.5q0 -32 -19.5 -57t-51.5 -37z" />
    <glyph glyph-name="commaturnedabovecmb" unicode="&#x312;" horiz-adv-x="181" 
d="M110 780l16 -30q-19 -7 -26.5 -19l-7.5 -12l10 -1.5t22.5 -7.5t22.5 -18.5t10 -34.5q0 -28 -19.5 -47.5t-46.5 -18.5q-28 1 -47.5 22.5t-19.5 52.5q0 39 24 69.5t62 44.5z" />
    <glyph glyph-name="tonos" unicode="&#x384;" horiz-adv-x="184" 
d="M105 651h-69l43 190l69 1z" />
    <glyph glyph-name="dieresistonos" unicode="&#x385;" horiz-adv-x="394" 
d="M214 793h-69l43 190l69 1zM57 866q0 51 46 51q43 0 43 -51q0 -49 -43 -49q-46 0 -46 49zM247 866q0 51 46 51q43 0 43 -51q0 -49 -43 -49q-46 0 -46 49z" />
    <glyph glyph-name="comma" unicode="," horiz-adv-x="181" 
d="M71 -68l-16 30q20 8 27 19.5l7 11.5l-10 1.5t-22.5 7.5t-22.5 18.5t-10 34.5q0 28 19.5 47.5t46.5 18.5q29 -1 48 -22t19 -53q0 -39 -24 -69.5t-62 -44.5z" />
    <glyph glyph-name="semicolon" unicode=";" horiz-adv-x="181" 
d="M205 419q0 -28 -19.5 -46.5t-46.5 -17.5q-28 1 -47.5 21.5t-19.5 51.5q0 28 19.5 47.5t46.5 18.5q29 -1 48 -22t19 -53zM71 2l-16 30q20 8 27 19.5l7 11.5l-10 1.5t-22.5 7.5t-22.5 18.5t-10 34.5q0 28 19.5 47.5t46.5 18.5q29 -1 48 -22t19 -53q0 -39 -24 -69.5
t-62 -44.5z" />
    <glyph glyph-name="colon" unicode=":" horiz-adv-x="181" 
d="M205 115q0 -28 -19.5 -46.5t-46.5 -17.5q-28 1 -47.5 21.5t-19.5 51.5q0 28 19.5 47.5t46.5 18.5q29 -1 48 -22t19 -53zM205 419q0 -28 -19.5 -46.5t-46.5 -17.5q-28 1 -47.5 21.5t-19.5 51.5q0 28 19.5 47.5t46.5 18.5q29 -1 48 -22t19 -53z" />
    <glyph glyph-name="period" unicode="." horiz-adv-x="277" 
d="M205 57q0 -28 -19.5 -46.5t-46.5 -17.5q-28 1 -47.5 21.5t-19.5 51.5q0 28 19.5 47.5t46.5 18.5q29 -1 48 -22t19 -53z" />
    <glyph glyph-name="ellipsis" unicode="&#x2026;" horiz-adv-x="511" 
d="M205 57q0 -28 -19.5 -46.5t-46.5 -17.5q-28 1 -47.5 21.5t-19.5 51.5q0 28 19.5 47.5t46.5 18.5q29 -1 48 -22t19 -53zM370 57q0 -28 -19.5 -46.5t-46.5 -17.5q-28 1 -47.5 21.5t-19.5 51.5q0 28 19.5 47.5t46.5 18.5q29 -1 48 -22t19 -53zM535 57q0 -28 -19.5 -46.5
t-46.5 -17.5q-28 1 -47.5 21.5t-19.5 51.5q0 28 19.5 47.5t46.5 18.5q29 -1 48 -22t19 -53z" />
    <glyph glyph-name="exclam" unicode="!" horiz-adv-x="317" 
d="M122 689q0 71 57 71q26 0 40 -18.5t14 -52.5q0 -41 -1.5 -94t-4.5 -110.5t-6.5 -113t-9 -102t-11.5 -77.5h-44q-7 31 -12 77.5t-9.5 102t-7 113t-4 110.5t-1.5 94zM245 57q0 -28 -19.5 -46.5t-46.5 -17.5q-28 1 -47.5 21.5t-19.5 51.5q0 28 19.5 47.5t46.5 18.5
q29 -1 48 -22t19 -53z" />
    <glyph glyph-name="exclamdown" unicode="&#xa1;" horiz-adv-x="357" 
d="M245 475q0 -28 -19.5 -46.5t-46.5 -17.5q-28 1 -47.5 21.5t-19.5 51.5q0 28 19.5 47.5t46.5 18.5q29 -1 48 -22t19 -53zM237 -144q0 -71 -57 -71q-25 0 -39.5 18.5t-14.5 52.5q0 41 1.5 94t4.5 110.5t7 113t9 102t11 77.5h44q7 -31 12 -77.5t9.5 -102t7 -113t4 -110.5
t1.5 -94z" />
    <glyph glyph-name="question" unicode="?" horiz-adv-x="579" 
d="M266 195q0 69 10.5 112t27 70t35.5 45.5t35.5 37t27.5 45t11 69.5q0 60 -32.5 98t-84.5 38q-61 0 -92 -48q31 -9 48.5 -29t17.5 -45q0 -30 -23 -52t-55 -21q-34 1 -57 26.5t-23 62.5q0 45 25 80.5t68.5 55.5t99.5 20q64 0 113.5 -24t78 -66.5t28.5 -97.5q0 -48 -14.5 -80
t-38 -56t-49 -45t-49 -46.5t-38 -61t-14.5 -88.5h-56zM360 57q0 -28 -19.5 -46.5t-46.5 -17.5q-28 1 -47.5 21.5t-19.5 51.5q0 28 19.5 47.5t46.5 18.5q29 -1 48 -22t19 -53z" />
    <glyph glyph-name="questiondown" unicode="&#xbf;" horiz-adv-x="579" 
d="M409 475q0 -28 -19.5 -46.5t-46.5 -17.5q-28 1 -47.5 21.5t-19.5 51.5q0 28 19.5 47.5t46.5 18.5q29 -1 48 -22t19 -53zM371 351q0 -68 -10.5 -111.5t-27 -70.5t-35.5 -45.5t-35.5 -37t-27.5 -45t-11 -69.5q0 -60 32.5 -98t84.5 -38q61 0 92 48q-31 9 -48.5 29t-17.5 45
q0 30 23.5 52t54.5 21q34 -1 57 -26.5t23 -62.5q0 -45 -25 -80t-68.5 -55.5t-99.5 -20.5q-64 0 -113.5 24t-78 66.5t-28.5 97.5q0 48 14.5 80t38 56t49 45t49 46.5t38 61t14.5 88.5h56z" />
    <glyph glyph-name="apostrophe" horiz-adv-x="277" 
d="M119 596l-16 30q20 8 27 19.5l7 11.5l-10 1.5t-22.5 7.5t-22.5 18.5t-10 34.5q0 28 19.5 47.5t46.5 18.5q29 -1 48 -22t19 -53q0 -39 -24 -69.5t-62 -44.5z" />
    <glyph glyph-name="quoteleft" unicode="&#x2018;" horiz-adv-x="277" 
d="M158 780l16 -30q-19 -7 -26.5 -19l-7.5 -12l10 -1.5t22.5 -7.5t22.5 -18.5t10 -34.5q0 -28 -19.5 -47.5t-46.5 -18.5q-28 1 -47.5 22.5t-19.5 52.5q0 39 24 69.5t62 44.5z" />
    <glyph glyph-name="quoteright" unicode="&#x2019;" horiz-adv-x="277" 
d="M119 596l-16 30q20 8 27 19.5l7 11.5l-10 1.5t-22.5 7.5t-22.5 18.5t-10 34.5q0 28 19.5 47.5t46.5 18.5q29 -1 48 -22t19 -53q0 -39 -24 -69.5t-62 -44.5z" />
    <glyph glyph-name="quotedblleft" unicode="&#x201c;" horiz-adv-x="442" 
d="M158 780l16 -30q-19 -7 -26.5 -19l-7.5 -12l10 -1.5t22.5 -7.5t22.5 -18.5t10 -34.5q0 -28 -19.5 -47.5t-46.5 -18.5q-28 1 -47.5 22.5t-19.5 52.5q0 39 24 69.5t62 44.5zM323 780l16 -30q-19 -7 -26.5 -19l-7.5 -12l10 -1.5t22.5 -7.5t22.5 -18.5t10 -34.5
q0 -28 -19.5 -47.5t-46.5 -18.5q-28 1 -47.5 22.5t-19.5 52.5q0 39 24 69.5t62 44.5z" />
    <glyph glyph-name="quotedblright" unicode="&#x201d;" horiz-adv-x="442" 
d="M119 597l-16 30q20 8 27 19.5l7 11.5l-10 1.5t-22.5 7.5t-22.5 18.5t-10 34.5q0 28 19.5 47.5t46.5 18.5q29 -1 48 -22t19 -53q0 -39 -24 -69.5t-62 -44.5zM284 597l-16 30q20 8 27 19.5l7 11.5l-10 1.5t-22.5 7.5t-22.5 18.5t-10 34.5q0 28 19.5 47.5t46.5 18.5
q29 -1 48 -22t19 -53q0 -39 -24 -69.5t-62 -44.5z" />
    <glyph glyph-name="quotesinglbase" unicode="&#x201a;" horiz-adv-x="277" 
d="M119 -61l-16 30q20 8 27 19.5l7 11.5l-10 1.5t-22.5 7.5t-22.5 18.5t-10 34.5q0 28 19.5 47.5t46.5 18.5q29 -1 48 -22t19 -53q0 -39 -24 -69.5t-62 -44.5z" />
    <glyph glyph-name="quotedblbase" unicode="&#x201e;" horiz-adv-x="442" 
d="M119 -61l-16 30q20 8 27 19.5l7 11.5l-10 1.5t-22.5 7.5t-22.5 18.5t-10 34.5q0 28 19.5 47.5t46.5 18.5q29 -1 48 -22t19 -53q0 -39 -24 -69.5t-62 -44.5zM284 -61l-16 30q20 8 27 19.5l7 11.5l-10 1.5t-22.5 7.5t-22.5 18.5t-10 34.5q0 28 19.5 47.5t46.5 18.5
q29 -1 48 -22t19 -53q0 -39 -24 -69.5t-62 -44.5z" />
    <glyph glyph-name="guilsinglleft" unicode="&#x2039;" horiz-adv-x="383" 
d="M399 540l-220 -265l220 -275h-102l-225 272l225 268h102z" />
    <glyph glyph-name="guilsinglright" unicode="&#x203a;" horiz-adv-x="383" 
d="M311 272l-225 -272h-102l220 275l-220 265h102z" />
    <glyph glyph-name="backslash" unicode="\" horiz-adv-x="539" 
d="M359 -40l-219 830h77l219 -830h-77z" />
    <glyph glyph-name="slash" unicode="/" horiz-adv-x="539" 
d="M207 -40h-77l219 830h77z" />
    <glyph glyph-name="bar" unicode="|" horiz-adv-x="828" 
d="M451 -117h-75v867h75v-867z" />
    <glyph glyph-name="asciicircum" unicode="^" horiz-adv-x="366" 
d="M116 634h-44l95 119h20l107 -119h-59l-63 69z" />
    <glyph glyph-name="asciitilde" unicode="~" horiz-adv-x="498" 
d="M142 380q0 18 18.5 31.5t43.5 13.5q23 0 42 -7.5t35 -15.5t30 -8q24 0 41 21l25 -14q-24 -56 -71 -56q-23 0 -38 6.5t-28 13t-30 6.5q-13 0 -22.5 -8t-12.5 -21q-33 10 -33 38z" />
    <glyph glyph-name="underscore" unicode="_" horiz-adv-x="578" 
d="M0 0v67h578v-67h-578z" />
    <glyph glyph-name="hyphen" unicode="-" 
d="M70 302v76h398v-76h-398z" />
    <glyph glyph-name="endash" unicode="&#x2013;" horiz-adv-x="578" 
d="M0 322v76h578v-76h-578z" />
    <glyph glyph-name="emdash" unicode="&#x2014;" horiz-adv-x="828" 
d="M0 352v76h828v-76h-828z" />
    <glyph glyph-name="bullet" unicode="&#x2022;" horiz-adv-x="277" 
d="M205 388q0 -28 -19.5 -46.5t-46.5 -17.5q-28 1 -47.5 21.5t-19.5 51.5q0 28 19.5 47.5t46.5 18.5q29 -1 48 -22t19 -53z" />
    <glyph glyph-name="periodcentered" unicode="&#xb7;" horiz-adv-x="277" 
d="M205 277q0 -28 -19.5 -46.5t-46.5 -17.5q-28 1 -47.5 21.5t-19.5 51.5q0 28 19.5 47.5t46.5 18.5q29 -1 48 -22t19 -53z" />
    <glyph glyph-name="parenleft" unicode="(" horiz-adv-x="276" 
d="M98 45q0 -71 12.5 -115t46 -73t95.5 -57v-50q-74 18 -123 44.5t-77 67.5t-40 102.5t-12 149.5v322q0 88 12 149.5t40 102t77 67t123 45.5v-50q-62 -24 -95.5 -51t-46 -69.5t-12.5 -113.5v-471z" />
    <glyph glyph-name="parenright" unicode=")" horiz-adv-x="276" 
d="M178 45v471q0 71 -12.5 113.5t-45.5 69.5t-96 51v50q74 -19 123 -45.5t77 -67t40 -102t12 -149.5v-322q0 -88 -12 -149.5t-40 -102.5t-77 -67.5t-123 -44.5v50q63 28 96 57t45.5 73t12.5 115z" />
    <glyph glyph-name="bracketleft" unicode="[" horiz-adv-x="279" 
d="M0 -220v990h255v-50h-165v-890h165v-50h-255z" />
    <glyph glyph-name="bracketright" unicode="]" horiz-adv-x="279" 
d="M279 -220h-255v50h165v890h-165v50h255v-990z" />
    <glyph glyph-name="braceleft" unicode="{" horiz-adv-x="305" 
d="M187 -119q0 -42 20.5 -67t52.5 -25h21v-39h-1q-100 0 -144 44.5t-44 150.5v223q0 44 -20 70.5t-53 26.5h-19v39h19q33 0 53 26.5t20 70.5v193q0 106 44 150.5t144 44.5h1v-39h-21q-32 0 -52.5 -25t-20.5 -67v-181q0 -66 -21.5 -113t-74.5 -80q53 -32 74.5 -79t21.5 -113
v-211z" />
    <glyph glyph-name="braceright" unicode="}" horiz-adv-x="305" 
d="M118 -119v211q0 66 21.5 113t74.5 79q-53 33 -74.5 80t-21.5 113v181q0 42 -20.5 67t-52.5 25h-21v39h1q101 0 144.5 -44.5t43.5 -150.5v-193q0 -44 20 -70.5t53 -26.5h19v-39h-19q-33 0 -53 -26.5t-20 -70.5v-223q0 -106 -43.5 -150.5t-144.5 -44.5h-1v39h21
q32 0 52.5 25t20.5 67z" />
    <glyph glyph-name="dagger" unicode="&#x2020;" horiz-adv-x="370" 
d="M185 783q11 0 21 -7t10 -25q0 -11 -4.5 -20.5t-9.5 -22.5t-7 -37q31 2 43.5 11.5t26.5 9.5q18 0 25.5 -10t7.5 -21q0 -12 -7 -22t-25 -10q-14 0 -26.5 9t-44.5 11q2 -26 8 -36.5t11.5 -15.5t5.5 -15q0 -7 -4 -23t-9.5 -47.5t-10 -85.5t-6.5 -138h-11q-2 84 -6.5 138
t-10 85.5t-9.5 47.5t-4 23q0 10 5.5 15t11.5 15.5t8 36.5q-31 -2 -43.5 -11t-26.5 -9q-18 0 -25 10t-7 22q0 11 7.5 21t25.5 10q14 0 26 -9.5t43 -11.5q-2 24 -7 37t-9.5 22.5t-4.5 20.5q0 18 10 25t22 7z" />
    <glyph glyph-name="dagger.alt_1" horiz-adv-x="516" 
d="M258 761q18 0 35 -11.5t17 -41.5q0 -18 -7.5 -33.5t-16 -37.5t-11.5 -61q34 3 53.5 11t33 15.5t29.5 7.5q29 0 41 -17t12 -34q0 -19 -11 -36t-40 -17q-16 0 -30 7.5t-33.5 15.5t-54.5 10q2 -32 10 -49t17.5 -26t16.5 -16.5t7 -19.5q0 -11 -5.5 -33t-13.5 -65.5
t-15.5 -116.5t-12.5 -185l-12 -85h-18l-12 85q-5 112 -13 185t-16 116.5t-13.5 65.5t-5.5 33q0 12 7 19.5t16 16.5t17 26t11 49q-33 -2 -53 -10t-33 -15.5t-29 -7.5q-30 0 -41.5 17t-11.5 36q0 17 12 34t43 17q15 0 28 -7.5t32.5 -15.5t52.5 -11q-3 39 -11.5 61t-16 37.5
t-7.5 33.5q0 30 17 41.5t36 11.5z" />
    <glyph glyph-name="daggerdbl" unicode="&#x2021;" horiz-adv-x="370" 
d="M198 441h-27q-4 50 -9.5 78t-9 42t-3.5 21q0 10 5.5 15t11.5 15.5t8 36.5q-31 -2 -43.5 -11t-26.5 -9q-18 0 -25 10t-7 22q0 11 7.5 21t25.5 10q14 0 26 -9.5t43 -11.5q-2 24 -7 37t-9.5 22.5t-4.5 20.5q0 18 10 25t22 7q11 0 21 -7t10 -25q0 -11 -4.5 -20.5t-9.5 -22.5
t-7 -37q31 2 43.5 11.5t26.5 9.5q18 0 25.5 -10t7.5 -21q0 -12 -7 -22t-25 -10q-14 0 -26.5 9t-44.5 11q2 -26 8 -36.5t11.5 -15.5t5.5 -15q0 -7 -3.5 -21t-8.5 -42t-10 -78zM142 431h85v10h-19l8 68l1 0.5t6 0.5q20 0 35.5 -15.5t16.5 -38.5q0 -18 -14 -37.5t-31.5 -36.5
t-31 -27.5l-13.5 -10.5l-13.5 10.5t-32 27.5t-32 36.5t-13.5 37.5q0 23 15.5 38.5t36.5 15.5q5 0 6 -1l1 -1l8 -67h-19v-10zM175 338l10 -7l10 7l-5 -50h-11z" />
    <glyph glyph-name="daggerdbl.alt_1" horiz-adv-x="516" 
d="M240 539q-33 -2 -53 -10t-33 -15.5t-29 -7.5q-30 0 -41.5 17t-11.5 36q0 17 12 34t43 17q15 0 28 -7.5t32.5 -15.5t52.5 -11q-3 39 -11.5 61t-16 37.5t-7.5 33.5q0 30 17 41.5t36 11.5q18 0 35 -11.5t17 -41.5q0 -18 -7.5 -33.5t-16 -37.5t-11.5 -61q34 3 53.5 11
t33 15.5t29.5 7.5q29 0 41 -17t12 -34q0 -19 -11 -36t-40 -17q-16 0 -30 7.5t-34 15.5t-55 10q2 -32 10 -49t18 -26t17 -16t7 -19q0 -11 -6 -34.5t-14.5 -70t-16.5 -128.5h-63q-8 82 -16.5 128.5t-14.5 70t-6 34.5q0 12 7 19l16 16t17 26t11 49zM316 309q37 0 64 -26t27 -63
q-1 -24 -16 -49.5t-37 -49.5t-44 -43.5t-37 -31l-15 -11.5l-15.5 11.5t-37.5 31t-44.5 43.5t-38 49.5t-15.5 49.5q0 37 28 63t65 26l13 -113h-26v-13h140v13h-25zM237 28l21 -14l21 14l-13 -85h-17z" />
    <glyph glyph-name="asterisk" unicode="*" horiz-adv-x="388" 
d="M228 574q0 -20 -11.5 -27.5t-22.5 -7.5q-13 0 -23.5 7.5t-10.5 27.5q0 17 8 30.5t14 44.5q-31 -4 -44.5 -13t-30.5 -9q-19 0 -27 11t-8 24q0 11 7.5 22t26.5 11q16 0 30.5 -8.5t45.5 -13.5q-6 32 -14 45.5t-8 29.5q0 20 10.5 27.5t23.5 7.5q11 0 22.5 -7.5t11.5 -27.5
q0 -16 -9 -29.5t-13 -45.5q31 5 45 13.5t30 8.5q20 0 27.5 -11t7.5 -22q0 -13 -7.5 -24t-27.5 -11q-16 0 -30 9t-45 13q4 -31 13 -44.5t9 -30.5z" />
    <glyph glyph-name="quotesingle" unicode="'" horiz-adv-x="211" 
d="M139 641h-67v200l67 1v-201z" />
    <glyph glyph-name="quotedbl" unicode="&#x22;" horiz-adv-x="321" 
d="M139 641h-67v200l67 1v-201zM249 641h-67v200l67 1v-201z" />
    <glyph glyph-name="minute" unicode="&#x2032;" horiz-adv-x="283" 
d="M141 651h-69l70 190l69 1z" />
    <glyph glyph-name="second" unicode="&#x2033;" horiz-adv-x="395" 
d="M141 651h-69l70 190l69 1zM253 651h-69l70 190l69 1z" />
    <glyph glyph-name="ampersand" unicode="&#x26;" horiz-adv-x="624" 
d="M189 614v-89q0 -48 18 -72t50 -24h25v-44h-25q-37 0 -52.5 -22t-15.5 -78v-154q0 -44 17.5 -70t50.5 -26q32 0 50.5 24.5t18.5 71.5v114q0 26 12.5 41t47.5 15q33 0 50.5 9t24.5 18l7 9q-31 0 -53 19.5t-22 50.5q0 33 23.5 57.5t55.5 24.5q29 0 54.5 -23t25.5 -58
q0 -49 -33.5 -91t-85.5 -57v-51q0 -108 -42 -161t-134 -53q-95 0 -140 54t-45 160v25q0 62 16.5 103t64.5 69q-47 28 -64 66t-17 94q0 89 51.5 141t150.5 52q20 0 42.5 2t35.5 27h34l44 -181l-34 -9q-19 50 -35 76t-33.5 35.5t-44.5 9.5q-38 0 -66 -30.5t-28 -74.5z" />
    <glyph glyph-name="ampersand.alt_1" horiz-adv-x="544" 
d="M244 514q-27 0 -46.5 -22.5t-19.5 -54.5v-55q0 -69 52 -69h23v-38h-23q-28 0 -40 -19.5t-12 -63.5v-88q0 -36 13.5 -57t38.5 -21q63 0 63 88v74q0 38 44 38q27 0 41 8t19 16l5 8q-28 0 -48 18t-20 43q0 29 20 50.5t48 21.5q29 0 49.5 -21t20.5 -50q0 -43 -23.5 -80.5
t-58.5 -49.5v-1q0 -101 -39 -150t-121 -49q-158 0 -158 164q0 54 16 85t56 54q-40 24 -56 50t-16 66q0 68 43 104.5t121 36.5q26 0 40.5 -3.5t22 -2.5t12.5 14h31l30 -114l-32 -9q-21 44 -41 61.5t-55 17.5z" />
    <glyph glyph-name="at" unicode="@" horiz-adv-x="838" 
d="M766 365q0 -118 -35.5 -181.5t-100.5 -63.5q-44 0 -72.5 17.5t-44.5 35.5q-42 -47 -110 -47q-83 0 -127.5 42t-44.5 122q0 65 46.5 104.5t125.5 39.5q52 0 90 -23v49q0 45 -27.5 75.5t-68.5 30.5q-38 0 -61 -20t-46 -77l-36 9l33 138h34q7 -16 23 -13t52 3
q198 0 198 -214v-171q0 -18 10.5 -31.5t25.5 -13.5q38 0 56.5 45t18.5 145q0 155 -72.5 241t-204.5 86q-142 0 -217 -84t-75 -243q0 -151 75 -234t217 -83l1 -55q-169 0 -263 96.5t-94 275.5q0 189 93.5 286.5t262.5 97.5q104 0 180 -45t117 -131t41 -209zM330 260
q0 -43 19.5 -69t52.5 -26q37 0 61.5 22t29.5 58v109q-32 41 -91 41q-31 0 -51.5 -27.5t-20.5 -68.5v-39z" />
    <glyph glyph-name="registered" unicode="&#xae;" horiz-adv-x="837" 
d="M72 366q0 189 93.5 286.5t262.5 97.5q104 0 179.5 -44.5t116.5 -130.5t41 -209q0 -179 -88 -275t-249 -96q-169 0 -262.5 96t-93.5 275zM136 366q0 -151 75 -234t217 -83q137 0 207 83t70 234q0 155 -72.5 241t-204.5 86q-142 0 -217 -84t-75 -243zM225 166q28 0 40 9
t12 29v332q0 20 -12 28.5t-40 8.5v33h206q80 0 118 -37t38 -114q0 -38 -19.5 -65.5t-60.5 -48.5q73 -30 73 -109q0 -28 10.5 -47t26.5 -19h5v-32h-7q-65 0 -94.5 23.5t-29.5 74.5q0 37 -19.5 64.5t-44.5 27.5h-19v33h23q29 0 46.5 23.5t17.5 61.5v45q0 39 -17.5 62t-46.5 23
h-58v-368q0 -20 12.5 -29t40.5 -9v-32h-201v32z" />
    <glyph glyph-name="copyright" unicode="&#xa9;" horiz-adv-x="837" 
d="M72 366q0 189 93.5 286.5t262.5 97.5q104 0 179.5 -44.5t116.5 -130.5t41 -209q0 -179 -88 -275t-249 -96q-169 0 -262.5 96t-93.5 275zM136 366q0 -151 75 -234t217 -83q137 0 207 83t70 234q0 155 -72.5 241t-204.5 86q-142 0 -217 -84t-75 -243zM436 614q32 0 46 -3
t20 12h29l36 -141l-30 -8q-23 62 -44 83.5t-58 21.5q-32 0 -54 -27t-22 -66v-238q0 -41 23 -66t61 -25q40 0 65 38.5t25 98.5v14h36v-1q0 -95 -35.5 -141t-108.5 -46q-76 0 -119 49.5t-43 137.5v120q0 187 173 187z" />
    <glyph glyph-name="trademark" unicode="&#x2122;" horiz-adv-x="415" 
d="M102 616v124h-6q-13 0 -19 -7t-14 -32l-9 2l9 55h9q3 -7 14 -7h63q12 0 13 7h9l10 -55l-10 -2q-7 25 -12.5 32t-19.5 7h-7v-124q0 -7 4 -9.5t14 -2.5v-10h-65v10q17 0 17 12zM208 616v112q0 13 -18 13v10h51l36 -108l30 108h54v-10q-17 0 -17 -13v-112q0 -12 17 -12v-10
h-66v10q11 0 14.5 2.5t3.5 9.5v80l2 36l-39 -138h-12l-45 137l2 -36v-79q0 -7 3.5 -9.5t13.5 -2.5v-10h-48v10q11 0 14.5 2.5t3.5 9.5z" />
    <glyph glyph-name="servicemark" unicode="&#x2120;" horiz-adv-x="404" 
d="M105 765q14 0 19.5 -2t7.5 4h10l13 -50l-11 -2q-7 21 -15 29t-21 8q-10 0 -17 -6.5t-7 -16.5q0 -15 20 -26l34 -19q28 -15 28 -47q0 -19 -16 -32.5t-39 -13.5q-17 0 -24.5 4.5t-12.5 4.5q-7 0 -9 -6h-11v62h11q8 -51 41 -51q11 0 20 8.5t9 18.5q0 16 -22 28l-27 15
q-31 17 -31 44q0 18 15.5 32t34.5 14zM185 618v120q0 13 -18 13v11h54l38 -117l33 117h58v-11q-11 0 -15 -2.5t-4 -10.5v-120q0 -8 4 -10.5t15 -2.5v-11h-71v11q11 0 15 2.5t4 10.5v85l2 35l-41 -144h-13l-49 146l2 -38v-84q0 -8 4 -10.5t15 -2.5v-11h-51v11q11 0 14.5 2.5
t3.5 10.5z" />
    <glyph glyph-name="ordfeminine" unicode="&#xaa;" horiz-adv-x="152" 
d="M39 616q-5 -12 17 -12v-10h-48v10q14 0 18 12l42 133h14l45 -133q4 -12 17 -12v-10h-65v10q21 0 17 11l-6 21h-45zM49 647h37l-18 59z" />
    <glyph glyph-name="ordmasculine" unicode="&#xba;" horiz-adv-x="124" 
d="M62 750q54 0 54 -59v-37q0 -60 -54 -60t-54 60v37q0 59 54 59zM62 605q10 0 17 7.5t7 19.5v80q0 12 -7 19.5t-17 7.5t-16.5 -7.5t-6.5 -19.5v-80q0 -27 23 -27z" />
    <glyph glyph-name="dollar" unicode="$" 
d="M243 0v92q-34 6 -51.5 15.5t-28.5 9.5q-23 0 -30 -18h-35v198h34q14 -79 49.5 -122t86.5 -43q23 0 43.5 13t33.5 33t13 42q0 53 -70 92l-88 49q-99 54 -99 140q0 36 19.5 67.5t52 53t70.5 26.5v102h40v-102q32 -2 45 -5.5t20 14.5h34l41 -161l-34 -9q-25 69 -50.5 95
t-66.5 26q-31 0 -53.5 -21.5t-22.5 -52.5q0 -28 14 -46.5t50 -38.5l108 -59q43 -23 66.5 -62.5t23.5 -89.5q0 -41 -23.5 -75t-63 -54t-88.5 -20v-89h-40z" />
    <glyph glyph-name="cent" unicode="&#xa2;" 
d="M265 0v90q-80 6 -125 62t-45 152v137q0 198 170 213v96h40v-95q29 -1 43 -3t20 13h34l41 -161l-34 -9q-18 47 -34 73t-35.5 36.5t-47.5 10.5q-37 0 -62 -30.5t-25 -75.5v-273q0 -46 26.5 -75t69.5 -29q46 0 74.5 44t28.5 113v16h41v-1q0 -198 -140 -213v-91h-40z" />
    <glyph glyph-name="yen" unicode="&#xa5;" 
d="M160 142q32 0 46 10t14 33v20h-63v39h63v40h-83v39h69l-111 245q-12 26 -23.5 34.5t-36.5 8.5v34h230v-34q-31 0 -49 -12.5t-11 -29.5l95 -214l87 212q8 21 -7.5 32.5t-52.5 11.5v34h170v-34q-25 0 -38 -9t-24 -35l-99 -244h78v-39h-84v-40h64v-39h-64v-20q0 -23 14 -33
t46 -10v-37h-230v37z" />
    <glyph glyph-name="sterling" unicode="&#xa3;" 
d="M47 143q32 0 46 10t14 33v156h-60v39h60v87q0 90 46.5 138.5t133.5 48.5q36 0 52 -3t23 13h34l41 -161l-34 -9q-18 47 -34 73t-35.5 36.5t-47.5 10.5q-31 -1 -49 -23t-18 -57v-154h105v-39h-105v-196h96q42 0 66.5 8t41.5 32.5t35 71.5l34 -9l-44 -181h-34
q-5 21 -15.5 29.5t-30.5 8.5h-321v37z" />
    <glyph glyph-name="lira" unicode="&#x20a4;" 
d="M47 143q32 0 46 10t14 33v109h-60v39h60v40h-60v39h60v55q0 90 46.5 138.5t133.5 48.5q36 0 52 -3t23 13h34l41 -161l-34 -9q-18 47 -34 73t-35.5 36.5t-47.5 10.5q-31 -1 -49 -23t-18 -57v-122h105v-39h-105v-40h75v-39h-75v-149h96q42 0 66.5 8t41.5 32.5t35 71.5
l34 -9l-44 -181h-34q-5 21 -15.5 29.5t-30.5 8.5h-321v37z" />
    <glyph glyph-name="Euro" unicode="&#x20ac;" 
d="M310 358v-39h-73v-83q0 -46 26.5 -75t69.5 -29q46 0 74.5 44t28.5 113v16h41v-1q0 -109 -40.5 -161.5t-124.5 -52.5q-86 0 -135.5 57t-49.5 157v15h-64v39h64v40h-64v39h64v4q0 214 198 214q36 0 52 -3t23 13h34l41 -161l-34 -9q-18 47 -34 73t-35.5 36.5t-47.5 10.5
q-37 0 -62 -30.5t-25 -75.5v-72h103v-39h-103v-40h73z" />
    <glyph glyph-name="rupee" unicode="&#x20a8;" horiz-adv-x="501" 
d="M328 160q16 -27 32.5 -37t44.5 -10v-37h-137l-139 234v47h59q36 0 54.5 23t18.5 75v41q0 14 -2 26h-187l30 39h146q-19 42 -60 42h-116l30 39h327l-30 -39h-70q19 -17 29 -42h71l-30 -39h-30q3 -19 3 -41q0 -38 -16 -72.5t-47 -58t-74 -29.5z" />
    <glyph glyph-name="section" unicode="&#xa7;" 
d="M440 112q0 -41 -23.5 -75t-63 -54t-88.5 -20q-37 0 -60 7t-36.5 14t-23.5 7q-23 0 -30 -18h-35v198h34q14 -79 49.5 -121t85.5 -42q23 0 44 13t34 32.5t13 40.5q0 53 -70 92l-88 49q-47 26 -73 62t-26 78q0 85 103 136q-43 31 -63 62.5t-20 66.5q0 39 23 73t60 54.5
t79 20.5q30 0 46.5 -3.5t25 -2.5t13.5 14h34l41 -161l-34 -9q-26 68 -51 94t-66 26q-32 0 -54 -21t-22 -52q0 -28 14.5 -46.5t49.5 -38.5l108 -59q42 -22 66 -62t24 -90q0 -78 -88 -129q36 -30 52 -63t16 -73zM242 323l68 -37q50 35 50 73q0 53 -70 92l-49 28
q-63 -21 -63 -71q0 -28 15 -47t49 -38z" />
    <glyph glyph-name="paragraph" unicode="&#xb6;" 
d="M280 750v-488h-44q-188 0 -188 212v63q0 213 188 213h44zM320 0v750h172v-37q-32 0 -46 -10t-14 -33v-590q0 -23 14 -33t46 -10v-37h-172z" />
    <glyph glyph-name="degree" unicode="&#xb0;" horiz-adv-x="255" 
d="M207 680q0 -73 -79 -73q-80 0 -80 73t80 73q38 0 58.5 -19t20.5 -54zM86 680q0 -21 12 -34.5t30 -13.5t30 13.5t12 34.5q0 22 -11.5 36t-30.5 14q-18 0 -30 -14.5t-12 -35.5z" />
    <glyph glyph-name="onesuperior" unicode="&#xb9;" horiz-adv-x="260" 
d="M56 426q21 0 30 7.5t9 26.5v196h-39v23q28 8 51.5 27t35.5 44h23v-290q0 -19 9 -26.5t29 -7.5v-24h-148v24z" />
    <glyph glyph-name="twosuperior" unicode="&#xb2;" horiz-adv-x="328" 
d="M199 639q0 35 -16 59.5t-38 24.5q-26 0 -40 -25q31 -10 31 -35q0 -15 -11 -26t-26 -10q-18 1 -30.5 13t-12.5 31q0 35 26 59t66 24q51 0 83.5 -31.5t32.5 -78.5q0 -30 -16.5 -54t-40 -45t-46 -42t-34.5 -45h57q28 0 41 13t27 47l20 -4l-20 -125h-18q-1 9 -24 9h-149v28
q0 24 14 45t34.5 40.5t41 39.5t34.5 41.5t14 46.5z" />
    <glyph glyph-name="threesuperior" unicode="&#xb3;" horiz-adv-x="320" 
d="M147 732q-28 0 -42 -19q33 -10 33 -36q0 -13 -11.5 -24t-26.5 -11q-16 2 -28 14t-12 29q0 34 26.5 54.5t66.5 20.5q45 0 72.5 -22.5t27.5 -62.5q0 -27 -15 -49t-41 -34q29 -12 48 -36.5t19 -52.5q0 -56 -30 -84t-85 -28q-40 0 -66.5 21t-26.5 54q0 17 11.5 29.5
t27.5 13.5q15 0 26.5 -11.5t11.5 -25.5q0 -24 -28 -35q14 -16 39 -16q56 0 56 76q0 72 -47 72l-14 25q26 11 40.5 32.5t14.5 45.5q0 60 -47 60z" />
    <glyph glyph-name="four.superior" unicode="&#x2074;" 
d="M128 417q33 0 33 25v68h-119v23l150 237h27v-232h7q20 0 20 27h17v-82h-17q0 27 -20 27h-7v-68q0 -25 34 -25v-18h-125v18zM81 538h80v130z" />
    <glyph glyph-name="zero" unicode="0" 
d="M45 375q0 144 22 228.5t71.5 120.5t133.5 36t132.5 -35t69.5 -119t21 -231t-24 -231t-73 -119t-126 -35q-84 0 -133.5 36.5t-71.5 120.5t-22 228zM385 373q0 179 -27 261.5t-86 82.5t-86 -80t-27 -264q0 -180 27 -259t86 -79q58 0 85.5 81.5t27.5 256.5z" />
    <glyph glyph-name="one" unicode="1" 
d="M134 37q43 0 61.5 12.5t18.5 40.5v514h-80v36q50 15 91.5 50t63.5 80h37v-680q0 -28 18.5 -40.5t61.5 -12.5v-37h-272v37z" />
    <glyph glyph-name="two" unicode="2" 
d="M351 557q0 43 -15 77.5t-40 55t-56 20.5q-61 0 -92 -48q31 -9 48.5 -29t17.5 -45q0 -30 -23 -52t-55 -21q-34 1 -57 26.5t-23 62.5q0 45 25 80.5t68.5 55.5t99.5 20q62 0 110.5 -26.5t76 -73t27.5 -105.5q0 -48 -20.5 -89.5t-53.5 -78t-71.5 -71t-76 -68.5t-67 -70
t-42.5 -77h173q44 0 68.5 7.5t41 32t36.5 73.5l33 -9l-41 -223h-33q-1 11 -12 15t-37 4h-304v61q0 46 21 87t54.5 79.5t71.5 76.5t71.5 77.5t54.5 82.5t21 92z" />
    <glyph glyph-name="three" unicode="3" 
d="M249 712q-28 0 -51.5 -13.5t-37.5 -35.5q32 -10 50 -29.5t18 -45.5q0 -30 -23 -52t-55 -21q-34 1 -57 26.5t-23 62.5q0 45 25 80.5t68.5 55.5t99.5 20q92 0 144.5 -48.5t51.5 -131.5q0 -54 -26.5 -98t-74.5 -70q55 -24 88.5 -74.5t33.5 -112.5q0 -116 -58 -175.5
t-169 -59.5q-56 0 -99.5 20.5t-68.5 55.5t-25 80q0 37 23 62.5t57 26.5q32 1 55 -21t23 -52q0 -25 -18 -45t-48 -29q30 -49 91 -49q122 0 122 174q0 157 -102 157l-30 40q55 23 87 68.5t32 99.5q0 65 -26.5 99.5t-76.5 34.5z" />
    <glyph glyph-name="four" unicode="4" 
d="M216 37q43 0 61.5 12.5t18.5 40.5v140h-254v48l318 492h48v-490h10q23 0 33 14t10 46h37v-170h-37q0 32 -10 46t-33 14h-10v-140q0 -28 18.5 -40.5t61.5 -12.5v-37h-272v37zM112 280h184v292z" />
    <glyph glyph-name="five" unicode="5" 
d="M143 359l-39 39l35 352h182q26 0 37 4.5t12 14.5h33l41 -223l-33 -9q-20 50 -39.5 76.5t-46.5 37t-70 10.5h-67l-21 -220q55 21 95 21q61 0 112.5 -31t83 -82.5t31.5 -113.5q0 -112 -65.5 -178.5t-179.5 -66.5q-56 0 -99.5 20.5t-68.5 55.5t-25 80q0 37 23 62.5t57 26.5
q32 1 52.5 -18.5t20.5 -51.5q0 -48 -61 -75q39 -51 91 -51q62 0 101 50.5t39 133.5q0 53 -16 95.5t-43.5 67t-62.5 24.5q-18 0 -39.5 -7t-40.5 -18.5t-29 -25.5z" />
    <glyph glyph-name="six" unicode="6" 
d="M283 716q-46 0 -74.5 -31t-41.5 -98.5t-14 -177.5q35 22 62 30t66 8q96 0 153.5 -60.5t58.5 -163.5q-1 -110 -58 -170.5t-161 -60.5q-113 0 -169 78t-58 238q-2 162 21.5 262t75.5 146.5t137 46.5q56 0 99.5 -20t68.5 -55.5t25 -80.5q0 -37 -23 -62.5t-57 -26.5
q-31 -1 -54.5 21t-23.5 52q0 26 18 45.5t49 28.5q-15 23 -42 37t-58 14zM153 224q0 -86 32 -137t86 -50q122 0 122 187q0 82 -31.5 126.5t-90.5 44.5q-55 0 -86.5 -45.5t-31.5 -125.5z" />
    <glyph glyph-name="seven" unicode="7" 
d="M147 371v46h116q25 61 57.5 118.5t72.5 114.5h-144q-44 0 -68.5 -7.5t-41 -31.5t-36.5 -74l-33 9l41 223h33q1 -10 12 -14.5t37 -4.5h313l-4 -41q-53 -69 -93.5 -141.5t-67.5 -150.5h79v-46h-94q-50 -169 -43 -371h-117q11 107 30 198.5t49 172.5h-98z" />
    <glyph glyph-name="eight" unicode="8" 
d="M270 760q88 0 138 -48.5t49 -131.5q0 -53 -22 -91t-72 -69q60 -33 87 -82t27 -123q0 -109 -53 -167t-154 -58q-100 0 -153.5 58t-53.5 167q0 74 27 123t87 82q-50 31 -72 69t-22 91q-1 83 49 131.5t138 48.5zM270 440q42 0 61 32.5t19 105.5q0 75 -19 108t-61 33t-61 -33
t-19 -108q0 -73 19 -105.5t61 -32.5zM270 31q49 0 71 42.5t22 139.5q0 96 -22.5 141t-70.5 45t-70.5 -45t-22.5 -141q0 -97 22 -139.5t71 -42.5z" />
    <glyph glyph-name="nine" unicode="9" 
d="M257 39q46 0 74.5 31t41.5 98.5t14 177.5q-35 -22 -62 -30t-66 -8q-96 0 -153.5 60.5t-58.5 163.5q1 110 58.5 170.5t160.5 60.5q113 0 169 -77.5t58 -238.5q2 -162 -21.5 -262t-75.5 -146t-137 -47q-56 0 -99.5 20.5t-68.5 55.5t-25 80q0 37 23 62.5t57 26.5
q32 1 55 -21t23 -52q0 -26 -18 -45.5t-49 -28.5q15 -23 42 -37t58 -14zM387 531q0 86 -32 137t-86 50q-122 0 -122 -187q0 -82 32 -126.5t90 -44.5q56 0 87 45.5t31 125.5z" />
    <glyph glyph-name="numbersign" unicode="#" 
d="M115 0l17 135l-80 -3v64l88 -3l16 150l-74 -3v64l80 -3l13 138h64l-18 -139h109l13 139h64l-18 -138l81 3v-64l-88 3l-16 -150l65 3l-1 -64l-71 3l-12 -135h-64l18 136h-109l-13 -136h-64zM198 192h110l16 152h-110z" />
    <glyph glyph-name="plus" unicode="+" horiz-adv-x="538" 
d="M219 21l3 204l-192 -3v96l192 -3l-3 204h100l-3 -204l192 3v-96l-192 3l3 -204h-100z" />
    <glyph glyph-name="minus" unicode="&#x2212;" horiz-adv-x="538" 
d="M40 291v78h458v-78h-458z" />
    <glyph glyph-name="plusminus" unicode="&#xb1;" horiz-adv-x="538" 
d="M229 186l3 153l-142 -3v78l142 -3l-3 153h80l-3 -153l142 3v-78l-142 3l3 -153h-80zM66 72v67h398v-67h-398z" />
    <glyph glyph-name="multiply" unicode="&#xd7;" horiz-adv-x="538" 
d="M421 56l-142 146l-134 -138l-68 68l138 134l-146 142l71 71l142 -146l133 137l68 -68l-137 -134l146 -142z" />
    <glyph glyph-name="divide" unicode="&#xf7;" horiz-adv-x="538" 
d="M382 452q0 -28 -19.5 -46.5t-46.5 -17.5q-28 1 -47.5 21.5t-19.5 51.5q0 28 19.5 47.5t46.5 18.5q29 -1 48 -22t19 -53zM30 222v97h478v-97h-478zM381 87q0 -28 -19.5 -46.5t-46.5 -17.5q-28 1 -47.5 21.5t-19.5 51.5q0 28 19.5 47.5t46.5 18.5q29 -1 48 -22t19 -53z" />
    <glyph glyph-name="equal" unicode="=" horiz-adv-x="538" 
d="M30 319v97h478v-97h-478zM30 125v97h478v-97h-478z" />
    <glyph glyph-name="approxequal" unicode="&#x2248;" horiz-adv-x="560" 
d="M169 419h145q100 0 157 -45t57 -127h-46q0 30 -27.5 50t-71.5 20h-145q-100 0 -157 45t-57 127h46q0 -30 28 -50t71 -20zM170 227h145q100 0 157 -45t57 -127h-46q0 30 -27.5 50t-71.5 20h-145q-100 0 -157 45t-57 127h46q0 -30 28 -50t71 -20z" />
    <glyph glyph-name="notequal" unicode="&#x2260;" horiz-adv-x="538" 
d="M30 125v97h162l49 97h-211v97h260l45 88l82 -40l-24 -48h115v-97h-165l-49 -97h214v-97h-263l-45 -88l-82 40l24 48h-112z" />
    <glyph glyph-name="fraction" unicode="&#x2044;" horiz-adv-x="539" 
d="M207 -40h-77l219 830h77z" />
    <glyph glyph-name="less" unicode="&#x3c;" horiz-adv-x="480" 
d="M352 149v-99l-265 222l265 218v-96l-142 -120z" />
    <glyph glyph-name="greater" unicode="&#x3e;" horiz-adv-x="480" 
d="M128 149l142 125l-142 120v96l265 -218l-265 -222v99z" />
    <glyph glyph-name="lessequal" unicode="&#x2264;" horiz-adv-x="480" 
d="M352 289v-99l-265 192l265 188v-96l-130 -91zM56 72v67h358v-67h-358z" />
    <glyph glyph-name="greaterequal" unicode="&#x2265;" horiz-adv-x="480" 
d="M118 289l130 94l-130 91v96l265 -188l-265 -192v99zM414 72h-358v67h358v-67z" />
    <glyph glyph-name="percent" unicode="%" horiz-adv-x="880" 
d="M363 -40h-77l219 830h77zM377 512q0 -82 -45 -126t-124 -44q-78 0 -124 44.5t-46 125.5q0 82 45.5 126t124.5 44q76 0 122.5 -45t46.5 -125zM124 514q0 -138 84 -138q41 0 62.5 34t21.5 104q0 71 -21.5 104t-63.5 33q-40 0 -61.5 -33t-21.5 -104zM838 225q0 -82 -45 -126
t-124 -44q-78 0 -124 44.5t-46 125.5q0 82 45.5 126t124.5 44q76 0 122.5 -45t46.5 -125zM585 227q0 -138 84 -138q41 0 62.5 34t21.5 104q0 71 -21.5 104t-63.5 33q-40 0 -61.5 -33t-21.5 -104z" />
    <glyph glyph-name="perthousand" unicode="&#x2030;" horiz-adv-x="1134" 
d="M363 -40h-77l219 830h77zM377 512q0 -82 -45 -126t-124 -44q-78 0 -124 44.5t-46 125.5q0 82 45.5 126t124.5 44q76 0 122.5 -45t46.5 -125zM124 514q0 -138 84 -138q41 0 62.5 34t21.5 104q0 71 -21.5 104t-63.5 33q-40 0 -61.5 -33t-21.5 -104zM1092 225
q0 -82 -45 -126t-124 -44q-35 0 -65 12.5t-62 41.5q-32 -30 -62 -42t-65 -12q-78 0 -124 44.5t-46 125.5q0 82 45.5 126t124.5 44q34 0 63.5 -12.5t62.5 -43.5q32 31 62 43.5t66 12.5q76 0 122.5 -45t46.5 -125zM838 227q0 -138 84 -138q41 0 62.5 34t21.5 104
q0 71 -21.5 104t-63.5 33q-40 0 -61.5 -33t-21.5 -104zM585 227q0 -138 84 -138q41 0 62.5 34t21.5 104q0 71 -21.5 104t-63.5 33q-40 0 -61.5 -33t-21.5 -104z" />
    <glyph glyph-name="logicalnot" unicode="&#xac;" horiz-adv-x="538" 
d="M40 291v78h458v-198h-78v120h-380z" />
    <glyph glyph-name="integral" unicode="&#x222b;" horiz-adv-x="560" 
d="M334 724v-650q0 -100 -44 -157t-121 -57q-73 0 -109 52.5t-36 161.5v1h43v-16q0 -69 23.5 -110.5t61.5 -41.5q30 0 50 28t20 71v650q0 105 45 159.5t133 54.5q28 0 39.5 6t18.5 22h34l44 -181l-34 -9q-19 49 -31.5 75t-26 36.5t-35.5 10.5q-32 0 -53.5 -30.5t-21.5 -75.5
z" />
    <glyph glyph-name="Delta" unicode="&#x394;" horiz-adv-x="480" 
d="M469 1h-467l232 424zM207 199l-41 -82l-26 -42l52 3l88 1l46 -3l-26 42l-42 81l-26 61z" />
    <glyph glyph-name="lozenge" unicode="&#x25ca;" horiz-adv-x="480" 
d="M234 690l220 -295l-220 -293l-217 293zM113 396l119 -163l124 163l-124 163z" />
    <glyph glyph-name="radical" unicode="&#x221a;" horiz-adv-x="501" 
d="M117 -40l-93 345h80l27 -100l26 -119l26 119l154 585h188v-76h-131l-198 -754h-79z" />
    <glyph glyph-name="summation" unicode="&#x2211;" horiz-adv-x="434" 
d="M196 378l-193 294v78h407v-78h-313l189 -273l-1 -41l-190 -286h339v-78h-431v78z" />
    <glyph glyph-name="threequarters" unicode="&#xbe;" horiz-adv-x="880" 
d="M288 -75l254 916l58 -16l-254 -916zM167 718q-41 0 -62 -29q22 -6 35.5 -20t13.5 -34t-17.5 -37t-40.5 -17q-24 2 -42 21t-18 45q0 50 40 81.5t101 31.5q68 0 109 -34t41 -95q0 -40 -22.5 -73t-60.5 -51q44 -19 72 -55.5t28 -79.5q0 -85 -45.5 -127t-128.5 -42
q-61 0 -100.5 31.5t-39.5 80.5q0 27 17.5 45.5t41.5 19.5q23 1 40.5 -16t17.5 -39q0 -18 -12.5 -31.5t-31.5 -21.5q21 -25 60 -25q85 0 85 115q0 110 -71 110l-22 37q39 17 61 49t22 69q0 47 -18 69t-53 22zM624 38q32 0 46 12.5t14 40.5v51h-186v44l250 354h42v-354h50v-44
h-50v-51q0 -28 14 -40.5t46 -12.5v-37h-226v37zM556 186h128v186z" />
    <glyph glyph-name="onequarter" unicode="&#xbc;" horiz-adv-x="880" 
d="M266 -75l254 916l58 -16l-254 -916zM68 247q32 0 46 12.5t14 40.5v304h-60v36q44 13 80 42t55 68h35v-450q0 -28 14 -40.5t46 -12.5v-37h-230v37zM586 38q32 0 46 12.5t14 40.5v51h-186v44l250 354h42v-354h50v-44h-50v-51q0 -28 14 -40.5t46 -12.5v-37h-226v37zM518 186
h128v186z" />
    <glyph glyph-name="onehalf" unicode="&#xbd;" horiz-adv-x="880" 
d="M236 -75l254 916l58 -16l-254 -916zM40 247q32 0 46 12.5t14 40.5v304h-60v36q44 13 80 42t55 68h35v-450q0 -28 14 -40.5t46 -12.5v-37h-230v37zM728 373q0 55 -25 92.5t-60 37.5q-40 0 -61 -39q48 -15 48 -54q0 -23 -17 -40t-40 -16q-28 1 -47.5 20.5t-19.5 47.5
q0 55 40.5 91.5t102.5 36.5q53 0 93 -22.5t63 -60.5t23 -87q0 -37 -17 -68t-43.5 -58.5t-56 -53t-55 -52t-40.5 -56.5h88q29 0 46.5 8.5t31 29.5t28.5 56l30 -7l-30 -193h-29q-1 14 -36 14h-231v44q0 37 21.5 69t53.5 62.5l64 61t53.5 64t21.5 72.5z" />
    <glyph glyph-name="brokenbar" unicode="&#xa6;" horiz-adv-x="828" 
d="M451 379h-75v371h75v-371zM451 -117h-75v359h75v-359z" />
    <glyph glyph-name="guillemetleft" unicode="&#xab;" horiz-adv-x="577" 
d="M363 540l-220 -265l220 -275h-102l-225 272l225 268h102zM553 540l-220 -265l220 -275h-102l-225 272l225 268h102z" />
    <glyph glyph-name="guillemetright" unicode="&#xbb;" horiz-adv-x="577" 
d="M541 272l-225 -272h-102l220 275l-220 265h102zM351 272l-225 -272h-102l220 275l-220 265h102z" />
    <glyph glyph-name="hyphensoft" unicode="&#xad;" 
d="M70 247v67h398v-67h-398z" />
    <glyph glyph-name="currency" unicode="&#xa4;" horiz-adv-x="577" 
d="M79 125l-47 47l78 78q-35 53 -35 131q0 79 35 132l-78 78l47 47l78 -78q53 35 132 35q76 0 129 -37l80 80l47 -47l-80 -80q36 -53 36 -130q0 -79 -34 -131l78 -78l-47 -47l-78 78q-52 -36 -131 -36t-132 36zM183 383q0 -88 26.5 -130.5t78.5 -42.5t79 42.5t27 130.5
q0 89 -27 131t-80 42q-50 0 -77 -42t-27 -131z" />
    <glyph glyph-name="divisionslash" unicode="&#x2215;" horiz-adv-x="539" 
d="M207 -40h-77l219 830h77z" />
    <glyph glyph-name="mu.math" unicode="&#xb5;" horiz-adv-x="488" 
d="M7 -213q32 0 46 10t14 33h1v630q0 23 -14 33t-46 10v37h230v-37q-32 0 -46 -10t-14 -33v-324q0 -46 26.5 -75t69.5 -29q46 0 74.5 44t28.5 113v271q0 24 -13 33.5t-47 9.5v37h163v-37q-34 0 -47 -9.5t-13 -33.5v-256q0 -214 -167 -214q-41 0 -75 14v-186q6 -31 59 -31
v-37h-230v37z" />
    <glyph glyph-name="uni000D" unicode="&#xd;" horiz-adv-x="500" 
 />
    </font>
</defs>
</svg>
